<svg width="275" height="76" viewBox="0 0 275 76" fill="none" xmlns="http://www.w3.org/2000/svg">
<path d="M113.535 40.6063C113.457 43.7838 112.568 46.8887 110.952 49.6257C108.994 53.1585 105.904 55.9304 102.18 57.496C98.4962 58.9248 94.5908 59.6984 90.6403 59.7818L78.6186 59.9053L91.4805 60.0165C99.2149 60.0165 105.446 57.4343 110.174 52.2697C105.891 57.7226 99.1779 60.4448 90.0349 60.4366C80.892 60.4284 76.164 60.3913 75.851 60.3254C75.1715 59.6829 74.4919 59.0157 73.8124 58.3362C73.106 57.7624 72.6355 56.9488 72.4903 56.0505C72.3297 53.2458 72.305 49.5268 72.4286 44.9307C72.5439 38.1929 72.6015 34.4492 72.6015 33.6996C72.6015 32.0935 72.6015 29.6842 72.3915 26.4841C72.1815 23.2841 72.1815 20.8748 72.1815 19.2686C72.1815 17.1435 72.1815 14.9566 72.305 12.7203L72.7869 12.7821C73.5035 14.4295 73.9153 19.6558 74.0224 28.461C74.2034 28.1331 74.285 27.7596 74.2572 27.3861C74.2572 27.1884 74.1006 19.6928 73.7876 4.89937C74.016 5.37655 74.1742 5.88426 74.2572 6.40672C74.2572 8.01291 74.3601 10.4387 74.566 13.684C75.1223 16.8232 75.5018 19.9912 75.7027 23.1729C75.7027 23.6918 75.7027 24.4084 75.5915 25.4586C75.4803 26.5088 75.468 27.2255 75.468 27.7444C76.024 27.3861 76.3081 27.0772 76.3081 26.8425L76.2464 19.5034C76.8978 21.5639 77.2026 23.7183 77.1483 25.8787L76.9383 33.0943L77.7784 53.3446V45.709C77.7784 45.0295 77.7043 44.0164 77.556 42.6449C77.4078 41.2735 77.346 40.2603 77.346 39.5808V37.5422L77.8278 37.8387V37.4186C77.8278 36.702 77.8278 35.7012 77.7414 34.441C77.6549 33.1807 77.6549 32.2294 77.6549 31.5869C77.6511 30.6041 77.7089 29.6219 77.8278 28.6463L78.1367 28.3992C78.9871 31.4957 79.4315 34.6895 79.4587 37.9005C79.4587 41.0634 79.4587 44.2305 79.4587 47.4017C79.4587 48.0813 79.4588 49.0697 79.3352 50.3794C79.2116 51.689 79.2116 52.6527 79.2116 53.2829L91.0604 53.8883C95.2819 54.2864 99.5104 53.2031 103.02 50.8241C104.743 49.6268 106.132 48.0106 107.057 46.1279C107.983 44.2451 108.413 42.1578 108.308 40.0627C108.414 37.726 107.736 35.4212 106.381 33.5143C104.952 31.7106 103.12 30.2675 101.031 29.3012C101.031 29.1035 101.031 28.6463 100.908 27.9174C100.841 27.459 100.804 26.9967 100.796 26.5336V26.1135L104.639 22.4069C105.681 20.8476 106.189 18.9916 106.084 17.1188C106.123 15.1687 105.669 13.2405 104.764 11.5126C103.859 9.78483 102.533 8.31334 100.908 7.23452C97.7202 4.96378 93.8858 3.78097 89.9731 3.86152C88.4822 3.75621 86.9976 3.57476 85.5252 3.31788H87.2673C90.8401 3.24923 94.3976 3.80106 97.7817 4.9488C100.258 5.84887 102.386 7.50966 103.861 9.69324C105.418 11.8514 106.256 14.445 106.257 17.1064C106.229 19.4512 105.544 21.7411 104.281 23.7166V23.8277C105.87 22.7899 106.669 20.5495 106.678 17.1064C106.735 14.0927 105.69 11.1618 103.737 8.86544C101.743 6.59271 99.134 4.94507 96.2249 4.12099C93.414 3.54274 90.5565 3.22019 87.6874 3.15728C83.363 2.86899 80.9785 2.58892 80.5337 2.3171L81.2503 2.25532L75.6657 1.83525C76.1105 1.35339 78.0749 1.10629 81.5592 1.10629C83.0047 1.10629 84.7839 1.10628 86.909 1.29161L90.455 1.41517L79.3352 0.933313L79.1499 0.68621C79.5844 0.480437 80.0539 0.358848 80.5337 0.327895H89.6643C94.8155 0.100426 99.8976 1.58161 104.12 4.54107C106.15 6.00939 107.785 7.95883 108.876 10.2145C109.967 12.4701 110.481 14.9614 110.372 17.4647C110.359 20.0429 109.741 22.582 108.568 24.8779C108.438 24.8109 108.294 24.773 108.148 24.7667C107.79 24.7667 107.394 25.0386 106.912 25.6069C106.43 26.1753 106.035 26.7189 105.949 26.8425C108.144 28.4761 110.071 30.4439 111.657 32.6742C112.986 35.1008 113.635 37.8414 113.535 40.6063ZM75.4309 11.3859C75.3614 11.8043 75.2623 12.2171 75.1344 12.6215L74.4054 3.12019C75.1699 5.80639 75.5157 8.59435 75.4309 11.3859ZM76.0363 19.9235C75.9128 19.491 75.7274 18.8238 75.4927 17.9466L75.7274 17.3412C75.9251 18.1814 76.0363 18.5767 76.0363 18.6632V19.9235ZM77.7784 55.7539V55.6304C77.8002 55.4785 77.7766 55.3237 77.7107 55.1852C77.6448 55.0467 77.5394 54.9308 77.4078 54.852V55.7539H77.7784ZM78.5568 55.7539L78.0749 55.5686L77.8896 55.7539H78.5568ZM94.7917 55.5068H94.3593C93.8421 55.5592 93.3222 55.5798 92.8025 55.5686C92.2836 55.5686 88.6388 55.3503 81.868 54.9138C81.5839 54.9138 81.1761 54.9138 80.6325 54.9138L79.5576 54.9755L79.4093 54.9632V55.618L89.2936 55.9269L94.7917 55.5068ZM102.6 39.3461C102.6 43.275 100.998 45.8202 97.7941 46.9816C96.9481 47.3237 96.0579 47.5442 95.15 47.6365L93.0002 47.55C96.2744 47.2288 98.5477 46.6357 99.7833 45.7461C101.389 44.5847 102.254 42.509 102.254 39.4943C102.254 38.9859 102.17 38.4809 102.007 37.9993C101.735 41.1952 101.196 43.378 100.389 44.5477C99.3138 46.228 97.2381 47.0187 94.211 47.0187C92.7654 47.0187 91.8882 46.821 91.567 46.4256C91.078 46.3372 90.5951 46.2176 90.1214 46.0674L88.5029 46.784L88.6264 47.3894C88.2838 47.0693 87.8537 46.8586 87.3909 46.784V46.4256L87.0326 46.0674L86.3654 46.4874L86.6125 47.4511L86.316 47.1423L86.1924 47.3276L85.8341 46.9075V46.4256L86.1924 46.4874V46.3145C86.1877 46.0302 86.1462 45.7478 86.0689 45.4743L85.8341 45.5361V44.8689C85.9018 44.8692 85.9687 44.8554 86.0307 44.8281C86.0926 44.8009 86.1481 44.7609 86.1936 44.7107C86.239 44.6606 86.2734 44.6015 86.2945 44.5372C86.3156 44.4729 86.3229 44.4049 86.316 44.3376C86.3058 44.243 86.262 44.1553 86.1924 44.0905C85.6735 44.0905 85.414 44.3376 85.414 44.8071C85.4264 45.0614 85.4637 45.3138 85.5252 45.5608C85.5845 45.7668 85.6259 45.9777 85.6488 46.1909C85.6778 46.3294 85.6778 46.4725 85.6488 46.611C85.2383 46.3163 84.959 45.873 84.8704 45.3755C84.7816 44.8407 84.7608 44.2969 84.8086 43.7569C84.8951 42.7932 84.9322 42.2866 84.9322 42.2496C84.893 41.351 84.7731 40.4578 84.5739 39.5808C84.3704 38.7209 84.2463 37.8441 84.2032 36.9615C84.2032 33.8726 85.1875 32.3282 87.1561 32.3282H88.96H90.7639C90.4056 32.3282 89.7137 32.1676 88.7129 31.9576C88.0623 31.8204 87.4007 31.7418 86.736 31.7228C86.1407 31.7527 85.5793 32.009 85.1669 32.4394C84.8086 32.8842 84.4256 33.329 84.0302 33.7614V37.1962C84.0752 37.8133 84.1744 38.4252 84.3268 39.0248C84.5037 39.6594 84.5664 40.3204 84.5121 40.9769H83.9684C83.9897 41.6251 84.0683 42.2701 84.2032 42.9044C84.1553 43.2672 84.0334 43.6162 83.8449 43.9299C82.8441 43.6457 82.3499 41.8789 82.3499 38.6294C82.3644 38.2159 82.4015 37.8034 82.4611 37.3939C82.5292 36.9852 82.5705 36.5725 82.5846 36.1584C82.5574 35.7809 82.487 35.4078 82.3746 35.0464C82.2661 34.7051 82.1956 34.3529 82.1646 33.9962C82.1646 33.0695 83.4001 31.7352 86.0071 29.9684C86.2542 30.059 88.5811 30.4214 92.9878 31.0556C95.3387 31.3008 97.6118 32.0375 99.6597 33.2178C100.627 33.9082 101.404 34.8321 101.918 35.9037C102.432 36.9752 102.667 38.1594 102.6 39.3461ZM99.5979 17.2794C99.5979 22.1351 97.1269 24.5567 92.3206 24.5567C91.6027 24.5284 90.8938 24.3866 90.2202 24.1366C92.1799 24.2256 94.1425 24.0427 96.052 23.593C96.9943 23.3345 97.8086 22.7383 98.3395 21.918C98.8704 21.0976 99.0809 20.1106 98.9308 19.1451V18.0702C98.7405 19.7344 98.0514 21.3021 96.9539 22.5675C95.6537 23.5737 94.0189 24.0464 92.3824 23.8895C91.8404 23.8739 91.2998 23.8243 90.7639 23.7413L89.133 23.5312C88.7917 23.1443 88.37 22.8365 87.8974 22.6293C87.6583 22.7595 87.438 22.9216 87.2426 23.1111C87.4097 23.3768 87.5504 23.6582 87.6627 23.9513C87.5762 23.8401 87.4032 23.5312 87.1191 23.0494L86.4519 23.3582C86.6957 23.5158 86.8855 23.7444 86.9955 24.0131L86.699 23.7166V24.0131L85.9824 23.3582V22.9876L86.8225 22.6911C86.699 22.4934 86.5384 22.2092 86.3407 21.8509V22.4563L85.9824 22.0856V21.7273H86.4642C86.3369 21.5564 86.2716 21.3473 86.2789 21.1343C86.3273 20.7458 86.4058 20.3616 86.5136 19.9852L85.7353 20.047C85.656 20.1729 85.6132 20.3183 85.6117 20.4671C85.628 20.7015 85.6695 20.9334 85.7353 21.159C85.8029 21.363 85.8444 21.5747 85.8588 21.7891H85.587C85.0681 21.7891 84.7839 21.3937 84.7468 20.4671C84.8333 21.9497 84.8704 21.332 84.8704 18.6014C84.8286 17.8619 84.7085 17.1288 84.5121 16.4145C84.3116 15.7175 84.1874 15.0009 84.1414 14.2771C84.2063 13.6553 84.4367 13.0622 84.8086 12.5597C85.2534 11.8678 85.6488 11.5095 86.0441 11.5095C86.5207 11.5249 86.9955 11.5745 87.465 11.6577C87.9292 11.7504 88.4004 11.8041 88.8735 11.8184C89.6219 11.8225 90.3682 11.7396 91.0975 11.5713C88.3669 11.1759 86.9214 10.9658 86.7731 10.9658C86.0949 11.0382 85.4643 11.3491 84.9939 11.8431C84.723 12.035 84.4951 12.2814 84.3249 12.5665C84.1547 12.8516 84.0459 13.1691 84.0055 13.4987C83.9367 14.7209 84.1002 15.9451 84.4874 17.1064V17.403L83.9437 17.4647C83.9528 17.7383 83.9817 18.0108 84.0302 18.2802C84.0816 18.5658 84.1105 18.855 84.1167 19.1451V19.6269L83.7461 19.7505C82.8318 19.0215 82.3746 17.6872 82.3746 15.7227C82.3746 13.7582 83.6101 11.7689 86.1553 9.40907L87.2426 9.11254C88.3113 9.48906 89.4172 9.75002 90.5415 9.89093C92.3083 10.1257 93.4326 10.311 93.9145 10.4346C95.5086 10.7868 96.9418 11.6555 97.9918 12.9056C99.0514 14.1137 99.6239 15.6727 99.5979 17.2794ZM87.5762 45.2395V43.8434H87.2055V44.0781C87.2055 44.2758 87.0449 44.4859 86.736 44.6835C86.4272 44.8812 86.2542 45.0789 86.2542 45.289C86.685 45.1701 87.1377 45.1532 87.5762 45.2395ZM88.0581 45.5978V45.289L86.6125 45.4743L86.8472 45.8944C87.2591 45.8331 87.6645 45.7338 88.0581 45.5978ZM88.231 21.9744C88.0146 21.2463 87.8535 20.5029 87.7492 19.7505L87.5762 20.5289C87.6819 20.668 87.7422 20.8362 87.7492 21.0107C87.7492 21.4061 87.4897 21.5914 86.9708 21.5544L87.5144 21.7891C87.3043 22.0431 87.0816 22.2864 86.8472 22.5181L87.1561 22.6293C87.5506 22.4769 87.9146 22.2551 88.231 21.9744ZM98.1153 40.248C98.1571 39.8136 98.0974 39.3754 97.9408 38.968C97.7843 38.5606 97.5353 38.1952 97.2134 37.9005C96.4968 37.4186 95.7925 36.9368 95.113 36.4549C93.6773 36.2922 92.2334 36.2139 90.7886 36.2201C90.623 36.2252 90.4587 36.1895 90.31 36.1163C90.1614 36.043 90.033 35.9345 89.9361 35.8001C89.7154 35.537 89.517 35.256 89.343 34.9599V36.5167C90.9315 36.5088 92.5181 36.6287 94.0875 36.875L94.211 37.1221L89.2689 36.8132V43.8434H88.0334C88.0707 44.2833 88.0707 44.7255 88.0334 45.1654H88.6264C88.827 45.1342 89.0291 45.1135 89.2318 45.1036C89.2808 45.0949 89.3312 45.0981 89.3786 45.113C89.4261 45.128 89.4693 45.1541 89.5044 45.1893C89.5396 45.2245 89.5658 45.2676 89.5807 45.3151C89.5956 45.3626 89.5989 45.413 89.5901 45.4619C89.3924 45.7832 88.9476 45.9067 88.2681 45.8203V46.2403H88.577C89.2821 46.2474 89.9647 45.9919 90.4921 45.5237C91.9006 45.5237 93.235 45.5237 94.5199 45.3384H93.9763C93.0543 45.3807 92.1305 45.3227 91.221 45.1654L91.0357 44.8565C91.9339 44.4663 92.8894 44.2242 93.8651 44.1399C94.8907 44.0545 95.8897 43.7691 96.8056 43.2998C97.2708 42.9503 97.6348 42.4837 97.8605 41.9475C98.0863 41.4114 98.1657 40.8249 98.0906 40.248H98.1153ZM88.4781 33.9591C88.351 34.1255 88.2471 34.3084 88.1693 34.5028L88.3546 34.441L88.4781 33.9591ZM94.9029 18.2061C94.6425 17.3339 94.2236 16.5172 93.6674 15.7968C93.1385 15.7048 92.6147 15.5852 92.0983 15.4385H89.1577V15.8586C90.4499 15.786 91.7457 15.911 93.0002 16.2292L93.1855 16.4022L92.8272 16.464C92.3129 16.2433 91.7554 16.1419 91.1963 16.1674C90.8783 16.1704 90.5607 16.191 90.245 16.2292H89.2936V18.6261C89.2936 18.3049 89.4171 19.0833 89.6519 20.9737H91.9376C92.8405 20.7148 93.724 20.3928 94.5817 20.01C94.8014 19.4472 94.9105 18.8473 94.9029 18.2431V18.2061ZM94.4828 33.1684H91.2334C91.6411 33.1684 92.4689 33.2425 93.8898 33.4031L94.4828 33.1684ZM94.2357 12.955C93.6698 12.6723 93.0597 12.4884 92.4319 12.4114H91.4064C91.8766 12.4318 92.3419 12.5149 92.7902 12.6585C93.4738 12.7821 93.9557 12.8809 94.2357 12.955ZM95.4713 15.7844C95.3971 15.4632 94.9894 15.1049 94.2357 14.6972H93.6921C94.2748 15.0075 94.8399 15.3498 95.3848 15.7227L95.4713 15.7844ZM97.2134 36.2201C96.7138 35.7562 96.1194 35.4063 95.4713 35.1947H94.2357C94.8906 35.3923 95.8419 35.7136 97.1269 36.1584L97.2134 36.2201ZM97.8188 18.3667V17.8972C97.7999 17.4209 97.7503 16.9463 97.6705 16.4763C97.5676 16.0958 97.3913 15.7391 97.1516 15.4261C97.5127 16.3442 97.7092 17.3187 97.7323 18.3049L97.8188 18.3667ZM105.516 31.2286C103.391 29.7459 102.069 29.0046 101.55 29.0046H101.427L105.516 31.2286ZM103.292 28.3992L102.563 28.1645V28.5228L102.983 28.6463L103.292 28.3992ZM110.013 36.0966C109.635 34.4801 108.891 32.9717 107.84 31.6868C106.788 30.4019 105.457 29.3746 103.947 28.6834L103.403 29.0417C104.967 29.7047 106.373 30.6899 107.53 31.9328C108.655 33.0816 109.479 34.4907 109.927 36.0348L110.013 36.0966ZM106.838 25.1003H103.823C104.466 25.5822 105.059 26.0393 105.751 26.4841C106.144 26.0466 106.481 25.5609 106.752 25.0386L106.838 25.1003ZM112.361 40.8534C111.607 45.7338 110.174 49.4404 108.098 51.9732C109.556 50.5351 110.63 48.7555 111.224 46.7963C111.916 44.8698 112.271 42.8386 112.275 40.7916L112.361 40.8534ZM110.681 41.8665V38.9013C110.558 41.4577 110.177 43.9953 109.544 46.4751C110.02 44.9493 110.371 43.3874 110.594 41.8048L110.681 41.8665Z" fill="#D7D7D7"/>
<path d="M149.069 57.916L146.956 60.0164H139.209L137.887 58.6697C136.157 60.2759 133.6 61.079 130.19 61.079C125.066 61.079 121.038 59.4769 118.106 56.2728C115.306 53.1839 113.905 49.0943 113.905 44.0039V33.5513C113.905 29.1446 113.905 25.6768 113.905 23.1481L114.091 22.6045C113.646 22.9257 113.407 25.3103 113.374 29.7582V22.9628L115.017 21.3442C115.455 20.8534 116.066 20.5522 116.722 20.5041C117.278 20.5041 118.18 20.5041 119.416 20.4176C120.651 20.3311 121.59 20.3187 122.22 20.3187C123.105 20.2584 123.981 20.5171 124.691 21.0477L126.607 22.9628C126.607 24.1365 126.607 25.6562 126.607 27.5343V41.7429C126.607 46.1496 128.151 48.3571 131.24 48.3653C134.316 48.3653 135.848 46.3514 135.799 42.3483L135.626 26.8424C135.557 26.1228 135.68 25.3978 135.984 24.7419C136.316 25.7521 136.499 26.8051 136.528 27.8679C136.602 28.9798 136.689 30.1041 136.763 31.2285C136.849 30.7096 136.948 29.3628 137.072 27.2007C137.183 24.7914 137.22 23.4941 137.183 23.1728C137.504 22.728 137.986 22.135 138.628 21.3689H145.177C144.638 21.5855 144.073 21.7268 143.496 21.789C143.052 21.789 142.471 21.789 141.754 21.789H140.012C138.888 21.789 138.171 22.0856 137.85 22.691V22.8763L138.381 22.2709C143.076 21.9496 145.885 21.8302 146.808 21.9126C145.317 22.1615 143.809 22.2814 142.298 22.2709C141.024 22.2384 139.75 22.3587 138.505 22.6292L138.023 23.111C138.023 23.5188 137.924 24.1118 137.85 24.9149C137.85 24.5937 137.726 24.0995 137.603 23.4199C137.412 23.7501 137.29 24.1159 137.245 24.4948C137.301 26.0781 137.471 27.6553 137.751 29.2146C138.04 30.7729 138.214 32.3504 138.27 33.9343C138.27 34.6138 138.27 35.7753 138.208 37.4185C138.146 39.0618 138.109 40.0625 138.208 40.9027V41.3722L138.814 40.6556V32.3652L139.407 40.112C139.407 47.97 136.561 51.899 130.869 51.899C129.663 51.9595 128.462 51.7096 127.38 51.1731C126.299 50.6366 125.373 49.8315 124.691 48.8348C123.382 46.753 122.771 44.3072 122.949 41.8541L123.308 25.508H121.874C121.658 26.1654 121.554 26.8546 121.566 27.5466C121.624 29.3759 121.827 31.1977 122.171 32.9953C122.509 34.7897 122.711 36.6069 122.776 38.4316C122.631 41.4729 122.973 44.5178 123.79 47.451C124.241 48.8837 125.165 50.121 126.41 50.9604C127.656 51.7997 129.149 52.1917 130.647 52.0719C131.332 52.029 132.013 51.9381 132.685 51.8001C133.736 51.6272 134.316 51.5283 134.428 51.5283L134.316 51.8372H134.428C134.959 51.8372 135.663 51.3553 136.713 50.3916C137.462 49.7738 138.058 48.9916 138.455 48.1059C138.859 46.9033 139.403 44.9388 140.086 42.2124C140.261 42.7165 140.34 43.2485 140.321 43.7815C140.462 46.3785 139.575 48.9267 137.85 50.8735C136.938 51.7776 135.847 52.4801 134.647 52.9356C133.446 53.3911 132.163 53.5893 130.882 53.5175C126.742 53.5175 124.024 51.6889 122.702 48.0441C121.969 46.0096 121.607 42.4636 121.615 37.4062C121.615 36.6401 121.615 35.4664 121.615 33.8602C121.615 32.254 121.615 31.0555 121.615 30.2524C121.564 29.4078 121.389 28.5752 121.096 27.7814C120.861 26.9445 120.507 26.1457 120.046 25.4091C119.651 25.4091 119.045 25.4091 118.242 25.2856L117.945 43.2008C117.836 45.4244 118.057 47.6519 118.6 49.8109C119.43 52.2682 121.149 54.3263 123.419 55.5809C125.597 56.9475 128.113 57.6792 130.684 57.6936C132.233 57.7841 133.781 57.4957 135.194 56.8535C136.39 55.9132 137.48 54.8442 138.443 53.6658L140.482 54.1971C140.457 54.32 140.458 54.4467 140.484 54.5694C140.51 54.692 140.561 54.8079 140.634 54.9099C140.707 55.0119 140.801 55.0977 140.908 55.1622C141.016 55.2266 141.136 55.2682 141.26 55.2843C141.227 55.5343 141.141 55.7743 141.007 55.9876C140.872 56.2009 140.693 56.3825 140.482 56.5199V56.8905C142.409 57.0388 144.188 57.1253 145.893 57.1253L146.857 33.6501L146.437 57.1253H146.61C146.883 56.1684 147.028 55.1796 147.042 54.1847C147.154 52.455 147.215 51.3553 147.215 50.8735L147.339 31.5745C147.339 30.8578 147.462 29.7706 147.574 28.3373H147.697C147.94 26.9884 148.039 25.6176 147.994 24.2477C147.971 23.8362 147.971 23.4237 147.994 23.0122C148.408 24.313 148.592 25.676 148.537 27.04C148.537 28.5968 148.537 30.7466 148.537 33.3413C148.537 36.5536 148.476 38.0981 148.476 37.9745L148.784 27.0895L149.019 26.9783C149.113 27.2926 149.175 27.6154 149.204 27.942L149.069 57.916ZM115.462 49.4403C115.043 45.1866 114.841 40.9144 114.857 36.6401V44.9306C114.93 46.4482 115.133 47.9569 115.462 49.4403ZM116.426 48.3653L116.129 41.5699V45.2765L116.426 48.3653ZM126.359 23.1728C125.67 22.118 124.749 21.2347 123.666 20.5905H120.293L119.218 20.8253C122.925 21.3442 125.198 22.135 126.125 23.1728C126.211 25.9775 126.224 29.4617 126.125 33.6378L126.359 23.1728ZM137.603 54.8519C135.762 57.1006 132.92 58.1755 129.065 58.1013C129.338 58.1017 129.611 58.1224 129.881 58.1631C130.132 58.1759 130.383 58.1759 130.634 58.1631C133.241 58.1631 135.119 57.6318 136.281 56.5446C136.651 56.0933 137.065 55.6795 137.516 55.309L137.603 54.8519ZM143.781 57.323C143.39 57.2545 143.006 57.1554 142.631 57.0264H140.346L140.469 57.2118C141.367 57.3139 142.272 57.3511 143.175 57.323H143.781Z" fill="#D7D7D7"/>
<path d="M171.79 23.111C171.714 24.6816 171.448 26.2373 170.999 27.7443C170.448 29.9435 169.83 31.2655 169.146 31.7103C167.554 31.7333 166.017 32.2951 164.785 33.3042C163.862 34.5621 163.423 36.1105 163.549 37.6656C163.549 38.2216 163.45 39.3459 163.376 41.0263C163.265 42.1263 163.224 43.2322 163.253 44.3375L163.549 54.1353C163.711 55.9468 163.221 57.7567 162.165 59.238L162.054 59.6581C162.419 59.4355 162.758 59.1746 163.067 58.8797C163.512 58.472 163.734 58.2002 163.734 58.0396L163.846 46.4997L163.969 58.0396C163.248 59.2534 162.21 60.2484 160.967 60.9184L160.843 60.7454H153.035C152.228 60.2063 151.482 59.5807 150.811 58.8797C150.287 58.08 150.052 57.1255 150.144 56.1739L150.329 44.0904C150.329 42.8549 150.267 40.8904 150.144 38.3204C150.02 35.7505 149.971 33.8355 149.971 32.5505C149.895 31.1258 149.969 29.697 150.193 28.2879L150.49 28.5227C151.15 31.7748 151.456 35.0889 151.404 38.4069C151.514 38.1414 151.556 37.8527 151.527 37.5668C151.527 36.1953 151.453 33.8602 151.293 30.4748C151.083 27.4601 151.008 25.1002 151.046 23.3829C151.475 24.0194 151.688 24.7779 151.651 25.545C151.651 27.0277 151.589 27.7813 151.589 27.8308C151.589 28.1891 151.849 29.6099 152.244 32.0934C152.504 33.5001 152.648 34.9257 152.676 36.356V37.9869L153.047 37.6286C153.16 37.3202 153.215 36.9933 153.208 36.6648C153.208 36.22 153.171 35.5776 153.097 34.7374C153.01 33.8972 152.973 33.2548 152.973 32.81H153.195C153.483 33.7908 153.649 34.8033 153.69 35.8247C153.69 36.7019 153.69 37.8262 153.69 39.1853V42.2495C153.69 43.485 153.776 45.6225 153.937 48.7484C154.048 51.4665 154.097 53.6164 154.048 55.1731L154.171 55.2349L154.233 55.1731C154.233 54.7778 154.295 54.0735 154.295 53.0727C154.295 52.0719 154.233 50.7252 154.11 48.7978C153.986 46.8703 153.937 45.4371 153.937 44.4734L154.295 44.5352C154.295 44.0904 154.295 43.4479 154.233 42.583C154.171 41.7182 154.171 41.0757 154.171 40.6309C154.131 39.8725 154.253 39.1141 154.53 38.4069C155.461 40.3261 155.782 45.9561 155.493 55.2967C156.717 55.5169 157.957 55.6367 159.2 55.655L159.497 39.7907C159.534 37.8837 159.779 35.9863 160.226 34.132C160.636 32.56 161.552 31.1665 162.833 30.1659C163.997 29.0679 165.532 28.4464 167.132 28.4238H167.49C167.972 28.4238 168.219 27.5219 168.219 25.718C168.219 24.5566 168.133 23.3952 168.096 22.2338H167.429C166.589 22.2497 165.756 22.3913 164.958 22.6539C164.137 22.8616 163.415 23.3515 162.919 24.0377V25.6068L162.437 25.545V26.0269H161.646C161.646 26.0269 161.152 25.9281 160.275 25.718L160.213 25.2362C159.324 24.7667 158.866 24.5195 158.829 24.5195C159.262 23.8771 159.707 23.284 160.151 22.7157L159.126 22.5427H159.719C160.151 22.5427 160.436 22.5427 160.559 22.2956C158.962 22.1982 157.373 21.996 155.802 21.6902H156.284C155.481 21.6902 154.307 21.5419 152.738 21.3813L153.282 20.9612H160.621C159.732 20.7671 158.825 20.6677 157.915 20.6647C156.346 20.6647 155.444 20.6647 155.086 20.6029V20.4176C155.71 20.2227 156.359 20.1228 157.013 20.121H160.621L161.758 21.2577C163.117 19.8245 165.551 19.0956 169.035 19.0956C169.728 19.6364 170.388 20.2181 171.012 20.8377C171.533 21.4792 171.808 22.2849 171.79 23.111ZM152.429 27.6207L152.158 28.3991L151.527 22.2214C152.075 23.9711 152.379 25.788 152.429 27.6207ZM160.843 60.2635C160.21 60.4139 159.565 60.513 158.916 60.5601L153.455 60.2635H160.843ZM162.412 46.9815V39.8278C162.241 42.2093 162.241 44.6001 162.412 46.9815ZM168.121 21.6655H167.392C166.568 21.709 165.757 21.8928 164.995 22.2091C164.198 22.4294 163.474 22.8556 162.894 23.4446C164.072 22.5818 165.467 22.0641 166.922 21.9496C167.336 21.9344 167.744 21.8378 168.121 21.6655ZM167.935 28.7574H167.392C166.364 28.9081 165.369 29.234 164.451 29.7211C165.575 29.2781 166.743 28.9551 167.935 28.7574Z" fill="#D7D7D7"/>
<path d="M207.312 54.9631C207.401 57.7506 206.876 60.5236 205.774 63.0857C204.672 65.6478 203.021 67.9365 200.936 69.7895C196.753 73.5412 191.282 75.533 185.665 75.3494C181.804 75.3469 178.05 74.0797 174.978 71.7416C171.784 69.4623 169.317 66.3088 167.874 62.6605C168.233 61.9704 168.646 61.3094 169.109 60.6836C169.357 60.3806 169.673 60.1408 170.032 59.984C170.391 59.8271 170.782 59.7578 171.172 59.7817L176.856 60.14L176.621 59.9052C173.661 57.8365 171.166 55.1727 169.294 52.0843C167.591 48.8862 166.74 45.3035 166.823 41.6811C166.796 39.0149 167.309 36.3707 168.33 33.9076C169.351 31.4446 170.86 29.2136 172.766 27.3489C174.595 25.4135 176.805 23.8776 179.257 22.8378C181.709 21.798 184.349 21.2769 187.012 21.3072C190.533 21.304 193.964 22.4203 196.81 24.4948C197.254 24.4207 197.514 24.0748 197.6 23.4693H203.123C201.468 23.8241 199.773 23.957 198.082 23.8647L197.477 24.1489V24.2601L205.174 24.013C202.761 24.1777 200.113 24.499 197.23 24.9767C198.395 25.8924 199.306 27.0922 199.874 28.4609C198.89 29.2132 197.736 29.7099 196.513 29.9065L196.39 29.7212L196.031 29.9065L195.797 29.7212L194.833 29.9065L195.129 29.1899L195.364 29.6099H195.611C196.093 29.6099 196.328 29.0045 196.328 27.8061C196.328 27.1265 195.611 26.4223 194.166 25.6933L193.993 25.5821V25.6933C193.08 25.2602 192.104 24.9765 191.102 24.8532L191.46 25.1003C190.568 24.9145 189.664 24.7947 188.754 24.7419C184.085 24.571 179.506 26.0593 175.83 28.9428C174.029 30.4127 172.594 32.2798 171.635 34.3978C170.677 36.5157 170.223 38.8268 170.308 41.1498C170.23 45.7708 171.807 50.2672 174.755 53.8264C176.145 55.6413 177.938 57.1077 179.992 58.1092C182.047 59.1107 184.306 59.6199 186.592 59.5964C188.112 59.5799 189.618 59.2955 191.04 58.7562C192.494 58.3787 193.77 57.5046 194.648 56.2851C192.45 58.2872 189.564 59.3629 186.592 59.2875C184.368 59.2936 182.172 58.7915 180.172 57.8193C178.172 56.8471 176.421 55.4307 175.052 53.6782C172.145 50.2791 170.565 45.9435 170.604 41.4711C170.437 38.4902 171.216 35.5328 172.828 33.02L172.952 33.5636C173.872 31.9259 175.072 30.4623 176.498 29.2393C178.458 27.386 180.002 26.5623 181.131 26.7682L180.945 27.0771C174.941 30.7919 171.934 35.7341 171.926 41.9035C171.926 48.493 174.533 53.1427 179.747 55.8527C181.979 57.1713 184.487 57.9537 187.074 58.1384C190.36 58.1384 193.313 56.5322 195.908 53.3322L199.763 55.0125V55.4326C199.763 55.5562 199.478 56.6681 198.922 58.682C198.278 61.2836 196.705 63.5599 194.499 65.0821C192.261 66.6 189.605 67.3817 186.901 67.3184C185.263 67.3514 183.639 67.0223 182.144 66.3547C180.732 65.614 179.367 64.7888 178.054 63.8837L172.531 63.7601L172.47 63.8837C173.815 66.5494 176.016 68.6859 178.721 69.9501C181.313 71.3974 184.229 72.1627 187.197 72.1741C191.253 72.1559 195.168 70.6829 198.231 68.0227C201.407 65.5524 203.523 61.9651 204.149 57.9902C204.589 54.5814 204.808 51.1476 204.804 47.7105C204.853 44.3004 204.894 40.8739 204.927 37.4309L204.754 55.2226C204.737 57.5086 204.243 59.7658 203.305 61.8506C202.367 63.9353 201.005 65.8017 199.305 67.3308C195.994 70.5736 191.535 72.3766 186.901 72.3471C184.595 72.3176 182.313 71.8696 180.167 71.025H179.92C182.202 72.2231 184.758 72.8024 187.333 72.7054C191.374 72.7029 195.28 71.2519 198.342 68.6157C201.527 66.1112 203.717 62.5548 204.519 58.5832C204.73 57.5311 204.87 56.4662 204.94 55.3955C204.94 51.343 205.026 47.3028 205.063 43.2502C205.052 39.1927 205.271 35.1378 205.718 31.1049H205.841C206.065 30.2005 206.144 29.2665 206.076 28.3373C206.04 27.2362 206.081 26.1338 206.2 25.0385C206.554 26.5733 206.716 28.1463 206.682 29.7212C206.682 31.525 206.682 33.959 206.682 36.9985V42.3483L206.978 29.6594H207.213C207.308 29.9523 207.37 30.2548 207.398 30.5613L207.312 54.9631ZM200.158 42.1506C200.207 43.7766 199.934 45.3961 199.355 46.9164C198.776 48.4366 197.903 49.8275 196.785 51.0094C195.663 52.1823 194.306 53.1047 192.803 53.7158C191.3 54.327 189.684 54.6131 188.062 54.5554C186.493 54.6173 184.93 54.3403 183.478 53.7433C182.026 53.1463 180.72 52.2433 179.648 51.0959C177.491 48.7038 176.348 45.5672 176.46 42.3483C176.428 40.1547 177.057 38.0023 178.264 36.1706C179.499 34.3689 181.363 33.0949 183.491 32.5999C181.523 33.4588 179.777 34.7563 178.388 36.393C177.165 38.1498 176.553 40.2594 176.646 42.3977C176.55 44.2811 176.977 46.1543 177.881 47.8094C177.881 47.8094 177.708 47.0186 177.375 45.5483C177.104 44.5585 176.93 43.5447 176.856 42.5213C176.855 40.0897 177.668 37.7278 179.166 35.8123C179.808 34.8815 180.666 34.12 181.667 33.5929C182.667 33.0658 183.781 32.7887 184.912 32.7853L187.197 33.02C187.738 32.8398 188.308 32.7603 188.878 32.7853C189.431 32.7564 189.985 32.8361 190.508 33.02H188.519C186.602 33.0844 184.726 33.6009 183.046 34.5274H183.169C183.918 34.2008 184.708 33.9764 185.517 33.8602L186.172 33.922L185.937 34.2185C181.65 35.5158 179.5 38.1228 179.5 42.0641C179.456 44.2934 180.275 46.4535 181.786 48.0935C182.471 48.9467 183.341 49.6343 184.329 50.1049C185.317 50.5755 186.399 50.8171 187.494 50.8117C189.015 50.745 190.494 50.2944 191.793 49.502C193.375 48.6248 194.19 47.6858 194.265 46.6603C192.461 49.1314 190.336 50.3669 187.889 50.3669C187.405 50.3369 186.925 50.2582 186.456 50.1322H187.173C188.196 50.2129 189.225 50.074 190.191 49.7245C191.156 49.375 192.036 48.8232 192.771 48.1059C193.506 47.3887 194.078 46.5226 194.451 45.5658C194.824 44.609 194.988 43.5836 194.932 42.5583C195.017 40.9612 194.584 39.3792 193.696 38.0486C192.601 36.8435 191.3 35.8435 189.854 35.0957C190.051 34.8239 190.249 34.6756 190.459 34.6756C191.234 34.7318 191.988 34.9607 192.663 35.3455C193.339 35.7303 193.92 36.2613 194.363 36.8996V36.7884C193.553 35.8042 192.525 35.0217 191.361 34.5027C190.175 34.0454 188.924 33.7785 187.654 33.7119C187.753 33.5865 187.882 33.488 188.029 33.4253C188.175 33.3627 188.336 33.3381 188.495 33.3536C189.178 33.3678 189.859 33.4298 190.533 33.539C191.583 33.6625 192.263 33.7119 192.584 33.7119L192.164 33.539C192.346 33.5338 192.526 33.5688 192.693 33.6414C192.859 33.714 193.008 33.8224 193.128 33.959L192.584 33.8355C193.132 34.0248 193.634 34.3258 194.059 34.7192C194.485 35.1126 194.824 35.59 195.055 36.1212L195.364 35.5776C195.282 35.2563 194.54 34.5768 193.14 33.539C194.734 33.7366 196.105 35.034 197.217 37.4432C198.099 39.2628 198.571 41.2533 198.601 43.2749C198.501 45.2392 197.764 47.1173 196.501 48.6248C195.322 50.1741 193.854 51.4792 192.176 52.4673L192.115 52.6527C194.095 51.8975 195.796 50.5534 196.989 48.8015C198.182 47.0496 198.809 44.9742 198.787 42.8549C198.758 42.2238 198.659 41.598 198.49 40.9892C198.316 40.4022 198.212 39.7967 198.181 39.1853V38.827L198.428 38.8888L196.785 35.1946H197.082C197.848 35.1946 198.589 36.183 199.305 38.1475C199.799 39.4329 200.086 40.788 200.158 42.163V42.1506ZM188.495 64.2173H188.26L186.752 64.279C184.346 64.296 182.024 63.3895 180.266 61.7462C181.058 62.613 182.024 63.3023 183.102 63.7687C184.18 64.2351 185.344 64.4679 186.518 64.452L188.495 64.2173ZM196.365 25.7427C194.363 23.5435 191.32 22.4438 187.234 22.4438C184.889 22.4811 182.568 22.9285 180.377 23.7659L180.562 23.8277C182.643 23.0646 184.834 22.6472 187.049 22.5921C190.434 22.4879 193.743 23.6113 196.365 25.7551V25.7427ZM192.658 24.8408C190.789 24.1567 188.817 23.7933 186.827 23.7659C184.986 23.8932 183.157 24.1533 181.353 24.5443L182.255 24.8408C183.085 24.809 183.912 24.7098 184.726 24.5443C185.541 24.3794 186.367 24.2802 187.197 24.2477C188.512 24.2664 189.821 24.428 191.102 24.7296L190.978 24.4825C191.541 24.5705 192.098 24.6943 192.646 24.8532L192.658 24.8408ZM191.089 61.7462C189.629 62.1997 188.108 62.4248 186.579 62.4134C185.06 62.3625 183.551 62.1387 182.082 61.7462C183.559 62.3061 185.124 62.5949 186.703 62.5987C188.209 62.6962 189.714 62.407 191.077 61.7585L191.089 61.7462ZM191.818 62.1168C190.396 62.5765 188.923 62.8587 187.432 62.957C186.044 62.9769 184.656 62.8943 183.281 62.7099C184.312 63.2025 185.436 63.472 186.579 63.5006C188.422 63.4957 190.233 63.0239 191.843 62.1292L191.818 62.1168ZM196.501 60.3747C195.777 61.6745 194.768 62.7941 193.551 63.6498C192.334 64.5055 190.939 65.0754 189.471 65.3169H189.891C191.274 65.1663 192.573 64.5776 193.597 63.6366C194.798 62.7898 195.787 61.6779 196.488 60.3871L196.501 60.3747Z" fill="#D7D7D7"/>
<path d="M251.383 40.7298C251.477 41.8333 251.25 42.9404 250.728 43.9174C249.997 44.6725 249.212 45.3745 248.381 46.0178C249.307 47.3769 249.764 48.0812 249.764 48.1183C249.764 48.8843 248.722 50.4081 246.638 52.6897C245.336 54.1716 243.91 55.5398 242.376 56.7794C238.887 59.2215 234.724 60.517 230.465 60.486C226.334 60.5454 222.292 59.2859 218.925 56.8905C215.565 54.4645 212.943 51.1542 211.352 47.3275C210.51 44.8314 210.145 42.1993 210.277 39.5684C210.165 36.7227 210.677 33.8871 211.776 31.26C212.875 28.6328 214.535 26.2775 216.64 24.3589C220.958 20.591 226.541 18.5959 232.269 18.7743C231.911 18.751 231.552 18.751 231.194 18.7743C224.819 18.7743 219.77 20.7182 216.047 24.606C212.546 28.2138 210.421 33.2424 209.671 39.6919V38.9012C209.583 36.2085 210.077 33.5285 211.12 31.0443C212.163 28.5601 213.729 26.3303 215.713 24.5072C217.61 22.5429 219.886 20.9829 222.402 19.9213C224.918 18.8596 227.623 18.3181 230.354 18.3296C233.24 18.2361 236.112 18.7736 238.769 19.9046C241.425 21.0356 243.803 22.7329 245.736 24.8779C249.56 29.2548 251.579 34.921 251.383 40.7298ZM214.057 50.1569C211.979 46.4602 210.962 42.2618 211.117 38.0239L211.055 41.7305C211.154 43.2589 211.501 44.761 212.081 46.1785C212.46 47.6262 213.133 48.9804 214.057 50.1569ZM246.453 40.3591C246.415 37.0935 245.502 33.8978 243.809 31.105C242.321 28.1685 239.825 25.8659 236.779 24.6184C234.412 23.8641 231.935 23.5174 229.452 23.5929C227.349 23.5444 225.261 23.9624 223.338 24.817C221.415 25.6715 219.706 26.9412 218.332 28.5351C215.543 31.6994 214.044 35.7958 214.132 40.0132C214.107 42.2423 214.532 44.4535 215.381 46.5148C216.23 48.576 217.486 50.445 219.074 52.0102C220.599 53.621 222.442 54.8983 224.485 55.7616C226.529 56.625 228.729 57.0556 230.947 57.0265C234.046 57.0483 237.088 56.1916 239.719 54.5554C242.406 52.9054 244.639 50.6125 246.218 47.8835L238.397 47.6982C237.104 48.5431 235.758 49.3065 234.37 49.9839C232.936 50.3379 231.458 50.4794 229.983 50.404C229.308 50.4024 228.639 50.2811 228.007 50.0457C228.87 50.0417 229.733 50.0995 230.589 50.2187C234.197 50.2187 236.783 49.2385 238.348 47.2781C237.224 47.8835 236.124 48.5136 235.061 49.082C233.812 49.7299 232.415 50.0408 231.009 49.9839C229.685 50.0556 228.363 49.8222 227.144 49.3016C225.925 48.7811 224.842 47.9873 223.979 46.9816H224.275C223.495 46.2093 222.844 45.3166 222.348 44.3375C222.074 44.4157 221.792 44.4573 221.508 44.4611H221.088V44.3993L222.237 44.1028C222.099 43.8643 222.015 43.5987 221.99 43.3244C221.971 43.2057 221.971 43.0848 221.99 42.9661C222.311 43.0773 222.57 43.4479 222.768 44.041C226.944 43.8433 229.18 43.7445 229.502 43.7445C229.873 43.7316 230.243 43.7947 230.589 43.9298L223.015 44.3499L223.139 44.5846H223.497C224.337 44.5846 225.412 44.5846 226.734 44.5846C228.464 44.4982 229.539 44.4611 229.983 44.4611L233.838 43.868C236.242 43.5062 238.674 43.3614 241.103 43.4356L246.218 43.6209L245.489 43.0155C244.41 42.9414 241.766 42.9414 237.557 43.0155L237.804 42.8425C241.165 42.4348 243.327 42.2371 244.291 42.2371C244.956 42.2288 245.621 42.2701 246.28 42.3607C246.327 42.033 246.356 41.7031 246.367 41.3722C246.453 40.9522 246.453 40.6062 246.453 40.3591ZM248.022 39.346C247.851 34.7279 245.94 30.3454 242.672 27.0777C239.404 23.81 235.022 21.8987 230.404 21.7273C228.226 21.6791 226.061 22.0812 224.046 22.9082C222.03 23.7352 220.207 24.9694 218.691 26.5335C221.607 23.6506 225.552 22.2091 230.527 22.2091C233.213 22.2005 235.862 22.8409 238.247 24.0756C240.633 25.3104 242.685 27.103 244.229 29.3011C244.954 30.2507 245.599 31.2591 246.157 32.3158C246.788 33.2977 247.209 34.4 247.392 35.5529L247.33 35.8L247.096 35.6764V35.973C247.114 36.6691 247.184 37.3629 247.306 38.0487C247.421 38.6937 247.491 39.346 247.516 40.0008C247.518 40.4684 247.456 40.9341 247.33 41.3846H247.936C248.009 40.7077 248.038 40.0267 248.022 39.346ZM240.325 34.5892C240.218 34.7484 240.075 34.8805 239.907 34.9749C239.74 35.0693 239.553 35.1233 239.361 35.1328C239.321 35.4941 239.321 35.8588 239.361 36.2201C239.231 36.2241 239.105 36.1794 239.007 36.0947C238.908 36.0101 238.845 35.8918 238.83 35.7629C238.743 35.4664 238.607 35.3181 238.397 35.3181L238.224 35.7382C237.897 35.4851 237.614 35.1805 237.384 34.8363C237.038 35.0653 236.674 35.2677 236.297 35.4417H236.544L236.235 35.8123L235.815 35.6888L236.297 35.5035H233.826C233.9 35.9112 233.987 36.1089 234.061 36.1089C234.135 36.1089 234.901 36.0471 235.865 35.9235L235.988 36.1706C234.811 36.4754 233.594 36.5963 232.38 36.529C231.551 36.5544 230.725 36.6453 229.909 36.8008C229.118 36.9473 228.317 37.0381 227.512 37.0726C226.747 37.0462 225.984 36.976 225.227 36.8626C224.45 36.7406 223.665 36.6704 222.879 36.6525C222.218 36.6326 221.557 36.6698 220.902 36.7637C222.33 37.022 223.776 37.1625 225.227 37.1838C225.902 37.1838 226.903 37.1344 228.229 37.0355C229.551 36.9367 230.539 36.8873 231.182 36.8873L231.058 37.1838C231.33 37.198 231.602 37.198 231.874 37.1838C232.14 37.1435 232.408 37.1229 232.677 37.122C233.02 37.1286 233.354 37.2313 233.641 37.4185C233.319 38.061 232.282 38.4193 230.515 38.5058C231.602 38.4193 230.441 38.3823 227.031 38.3823C226.664 38.3978 226.3 38.4475 225.943 38.5305C225.59 38.6127 225.23 38.6623 224.868 38.6788C224.19 38.651 223.516 38.56 222.854 38.407C221.952 38.234 221.298 38.1228 220.902 38.0857L218.678 35.071C219.642 32.8911 221.153 30.9973 223.064 29.5729C225.046 28.3531 227.35 27.7589 229.675 27.8679C234.477 27.8679 237.701 29.6882 239.349 33.3289C237.026 29.8447 234.081 28.1026 230.515 28.1026C229.85 28.07 229.185 28.1325 228.538 28.288C230.694 28.3923 232.83 28.7532 234.901 29.3629C236.856 30.3658 238.393 32.0293 239.238 34.0579H239.892C239.684 34.2752 239.502 34.5157 239.349 34.7745C239.681 34.7609 240.01 34.6984 240.325 34.5892ZM222.41 32.427C222.046 32.6305 221.736 32.9187 221.508 33.2671H221.878L222.41 32.427ZM225.659 31.525H225.301C224.918 31.6518 224.565 31.8567 224.265 32.1268C223.965 32.3969 223.725 32.7263 223.559 33.0942C224.176 32.4589 224.884 31.9177 225.659 31.488V31.525ZM238.163 44.807L223.559 45.0541C224.951 47.5252 227.496 48.7278 231.194 48.6619H231.787C227.982 48.6619 225.42 47.5582 224.102 45.3507V45.2395L227.117 47.0063C228.158 47.6003 229.341 47.9033 230.539 47.8835C232.461 47.9996 234.36 47.4207 235.889 46.2526C234.144 46.2931 232.398 46.2147 230.663 46.0178L230.478 45.8325C231.64 45.4316 232.856 45.2108 234.085 45.1777C235.321 45.1777 236.556 45.0788 237.792 44.9924L238.163 44.807ZM235.815 32.9088C234.327 31.8377 232.546 31.251 230.712 31.2285C229.621 31.2319 228.543 31.4678 227.549 31.9204C226.536 32.3776 225.523 32.8347 224.522 33.2671H231.256L235.815 32.9088ZM246.762 47.8835H246.404C244.799 50.811 242.401 53.2263 239.485 54.8519C236.655 56.6524 233.331 57.517 229.983 57.323C230.524 57.3974 231.069 57.4387 231.614 57.4465C234.787 57.4151 237.88 56.4527 240.51 54.6789C243.156 53.0039 245.313 50.6597 246.762 47.8835ZM237.026 34.2309L236.902 33.9343H236.544C236.054 33.9515 235.569 34.0304 235.099 34.1691C234.295 34.3297 233.863 34.4285 233.653 34.478H234.889C235.012 34.478 235.79 34.3915 237.026 34.2309ZM238.101 43.3738C236.977 43.485 236.136 43.5468 235.63 43.5468C236.029 43.4024 236.444 43.3029 236.865 43.2503L238.101 43.3738ZM246.342 47.4017H242.845C243.537 47.4017 244.538 47.4634 245.86 47.5746L246.342 47.4017Z" fill="#D7D7D7"/>
<path d="M274.228 23.111C274.157 24.6813 273.896 26.2371 273.45 27.7443C272.881 29.9436 272.214 31.2656 271.584 31.7104C269.992 31.7333 268.454 32.2951 267.222 33.3042C266.299 34.5621 265.861 36.1105 265.987 37.6656C265.987 38.2216 265.876 39.346 265.802 41.0263C265.69 42.1263 265.649 43.2323 265.678 44.3375L265.987 54.1353C266.144 55.9463 265.653 57.7543 264.603 59.2381L264.48 59.6581C264.848 59.4365 265.192 59.1755 265.505 58.8797C265.937 58.472 266.16 58.2002 266.16 58.0396L266.283 46.4997L266.407 58.0396C265.682 59.255 264.64 60.2502 263.392 60.9184L263.281 60.7454H255.46C254.653 60.2063 253.907 59.5807 253.236 58.8797C252.711 58.0809 252.48 57.1245 252.581 56.1739L252.754 44.0904C252.754 42.8549 252.693 40.8904 252.581 38.3205C252.47 35.7506 252.396 33.8355 252.396 32.5505C252.314 31.1254 252.392 29.6954 252.631 28.2879L252.915 28.5227C253.575 31.775 253.886 35.0886 253.842 38.407C253.939 38.1382 253.977 37.8516 253.953 37.5668C253.953 36.1953 253.879 33.8602 253.718 30.4748C253.52 27.4601 253.434 25.1003 253.483 23.3829C253.899 24.0251 254.107 24.7804 254.076 25.5451C254.076 27.0277 254.015 27.7814 254.015 27.8308C254.015 28.1891 254.274 29.61 254.682 32.0934C254.938 33.5004 255.079 34.926 255.102 36.356V37.9869L255.559 37.6656C255.666 37.3557 255.721 37.0299 255.72 36.7019C255.72 36.2571 255.72 35.6147 255.596 34.7745C255.472 33.9343 255.472 33.2919 255.472 32.8471H255.695C255.988 33.8271 256.158 34.8398 256.201 35.8617C256.201 36.739 256.201 37.8633 256.201 39.2224V42.2865C256.201 43.5221 256.276 45.6595 256.436 48.7854C256.56 51.5036 256.597 53.6534 256.56 55.2102L256.683 55.272V55.2102C256.719 54.5105 256.719 53.8095 256.683 53.1098C256.683 52.1832 256.683 50.7623 256.51 48.8348C256.337 46.9074 256.325 45.4742 256.325 44.5105L256.683 44.5723C256.683 44.1275 256.683 43.485 256.683 42.6201C256.683 41.7552 256.683 41.1128 256.683 40.668C256.636 39.9092 256.758 39.1495 257.042 38.444C257.956 40.3632 258.277 45.9931 258.005 55.3338C259.229 55.5551 260.469 55.675 261.712 55.6921L262.021 39.8278C262.048 37.9208 262.289 36.0228 262.737 34.1691C263.146 32.5931 264.068 31.1979 265.357 30.203C266.522 29.105 268.056 28.4835 269.656 28.4609H270.015C270.497 28.4609 270.731 27.559 270.731 25.7551C270.731 24.5937 270.657 23.4323 270.608 22.2709H269.953C269.113 22.288 268.28 22.4296 267.482 22.691C266.661 22.8987 265.939 23.3886 265.443 24.0748V25.6439L264.961 25.5821V26.064H264.183C264.183 26.064 263.676 25.9651 262.799 25.7551L262.737 25.2732C261.86 24.8037 261.391 24.5566 261.354 24.5566C261.798 23.9141 262.231 23.3211 262.676 22.7527L261.65 22.5798H262.317C262.762 22.5798 263.034 22.5798 263.158 22.3327C261.564 22.2351 259.98 22.0329 258.413 21.7273H258.895C258.092 21.7273 256.906 21.579 255.349 21.4184L255.88 20.9983H263.219C262.33 20.8042 261.423 20.7048 260.513 20.7018C258.957 20.7018 258.042 20.7018 257.684 20.64V20.4547C258.304 20.259 258.949 20.159 259.599 20.1581H263.207L264.356 21.2948C265.715 19.8616 268.137 19.1326 271.621 19.1326C272.314 19.6785 272.978 20.26 273.61 20.8747C274.066 21.5273 274.284 22.3168 274.228 23.111ZM254.867 27.6207L254.595 28.3991L253.965 22.2215C254.52 23.9695 254.823 25.7874 254.867 27.6207ZM263.293 60.2635C262.66 60.4139 262.015 60.5131 261.366 60.5601L255.893 60.2635H263.293ZM264.85 46.9815V39.8278C264.678 42.2093 264.678 44.6001 264.85 46.9815ZM270.558 21.6655H269.842C269.013 21.7074 268.198 21.8912 267.432 22.2091C266.638 22.4332 265.914 22.8588 265.332 23.4446C266.511 22.5836 267.905 22.0661 269.36 21.9496C269.774 21.9357 270.182 21.8391 270.558 21.6655ZM270.385 28.7574H269.842C268.809 28.9057 267.81 29.2318 266.889 29.7212C268.018 29.2803 269.19 28.9574 270.385 28.7574Z" fill="#D7D7D7"/>
<path d="M60.5203 22.4995C59.3278 24.4409 57.9847 26.2858 56.5034 28.0173H43.139C42.465 27.9876 41.8041 27.8209 41.1967 27.5273C40.5893 27.2337 40.0483 26.8194 39.6066 26.3097C38.4972 25.1756 37.4005 24.0669 36.3166 22.9965C34.7962 21.8235 32.9192 21.2073 30.9989 21.2507C29.5823 21.2213 28.1744 21.4782 26.8596 22.006C25.5448 22.5337 24.3502 23.3214 23.3475 24.3218C22.3304 25.3137 21.5291 26.5048 20.9937 27.8204C20.4583 29.136 20.2003 30.5478 20.236 31.9676C20.1831 33.4054 20.4225 34.8389 20.9398 36.1815C21.4571 37.5242 22.2414 38.748 23.2455 39.7791C24.2614 40.7887 25.4734 41.5798 26.8068 42.1036C28.1403 42.6274 29.5669 42.8728 30.9989 42.8247C32.4674 42.7813 33.9117 42.4405 35.2445 41.8228C36.5772 41.2051 37.7706 40.3234 38.7522 39.2312C38.831 39.2713 38.8961 39.3339 38.9393 39.411C38.9824 39.4882 39.0016 39.5764 38.9945 39.6644C38.8075 40.6732 38.2589 41.5793 37.4515 42.213C36.559 43.1244 35.4848 43.8382 34.2985 44.3079C33.1121 44.7777 31.8403 44.9931 30.5653 44.9401C29.1474 44.9222 27.7423 44.6681 26.4081 44.1882C25.047 43.8 23.7943 43.1021 22.7482 42.1493C22.7482 42.1493 22.6844 42.1493 22.6844 42.3277C22.6844 42.5061 23.0287 42.8502 23.7428 43.258C26.0122 44.5895 28.6106 45.2563 31.2412 45.1822C33.2957 45.2586 35.3137 44.6239 36.9542 43.3854L40.4228 40.0977C41.8566 38.9143 43.6642 38.2776 45.5237 38.3009L54.0294 38.4921C52.4248 39.0216 50.746 39.2926 49.0561 39.2949C50.2123 39.2949 48.5375 39.2949 44.0317 39.2949C43.2685 39.303 42.5193 39.5005 41.8515 39.8697C41.1837 40.239 40.6182 40.7684 40.206 41.4102C38.3442 43.8824 37.375 45.1694 37.2857 45.2331C35.5105 46.7293 33.2278 47.4866 30.9096 47.3485C27.8697 47.1739 24.942 46.1398 22.4676 44.3666L22.0723 44.0735C22.0977 44.5081 22.1836 44.937 22.3274 45.3479C23.067 46.4183 24.8778 47.1701 27.7215 47.5779C29.7915 47.9087 31.8936 47.9899 33.9829 47.82C32.6183 48.3346 31.1694 48.5897 29.7109 48.5718C27.5919 48.6328 25.4875 48.2046 23.5611 47.3206C21.6347 46.4365 19.9382 45.1204 18.6037 43.4746C15.9132 40.1263 14.5069 35.9284 14.6377 31.6363C14.5365 27.281 16.1112 23.0529 19.0373 19.8235C20.4473 18.2362 22.1888 16.9776 24.1389 16.1365C26.089 15.2954 28.2 14.8923 30.323 14.9556C32.9289 14.9529 35.4923 15.6152 37.7703 16.8798C40.0993 18.1354 42.1 19.9208 43.6108 22.0917L44.2867 21.9643C42.4823 20.0477 40.5661 18.2393 38.5482 16.5485C36.2356 15.1918 33.5747 14.5448 30.8969 14.688C28.73 14.5818 26.5643 14.918 24.5318 15.6761C22.4994 16.4341 20.6428 17.5982 19.0755 19.0971C15.9995 22.2696 14.229 26.4813 14.1149 30.8972L13.6176 30.5276C13.4584 30.8333 13.3919 31.1787 13.4263 31.5216C13.4263 36.4065 15.3306 41.1809 19.1393 45.8448H18.7057C14.0214 42.8629 11.6835 38.1098 11.692 31.5853C11.5739 29.0784 11.9808 26.5745 12.8867 24.2338C13.7926 21.893 15.1775 19.767 16.9528 17.9918C18.7281 16.2166 20.8547 14.8313 23.1965 13.9244C25.5383 13.0176 28.0438 12.6093 30.5526 12.7256C35.137 12.5241 39.6297 14.0525 43.139 17.0072C43.8497 17.7849 44.6169 18.509 45.4344 19.1736C45.9718 19.2362 46.5133 19.2575 47.054 19.2373H48.9158C48.1414 18.2343 47.4383 17.1783 46.8117 16.077C46.1937 14.9915 45.4395 13.9895 44.5673 13.0951C42.6038 11.5083 40.3199 10.3649 37.8723 9.7437C35.4404 8.98422 32.9092 8.58914 30.3613 8.57134C27.1102 8.48217 23.876 9.06936 20.8641 10.2956C17.8521 11.5219 15.1282 13.3605 12.8652 15.6947C9.27299 19.6574 6.94719 24.6019 6.18605 29.8943C5.42491 35.1867 6.26311 40.5857 8.59318 45.3988C9.66437 47.3018 12.1426 49.8207 16.0277 52.9555C20.4371 56.5655 25.9617 58.5378 31.662 58.5369C37.4235 58.4582 43.0342 56.6853 47.7936 53.4397C43.2651 57.1305 37.568 59.0869 31.7258 58.9574C22.8757 58.9574 15.2456 54.765 8.83547 46.38C6.51456 43.3217 5.35836 38.6492 5.36687 32.3627C5.4052 31.4054 5.50744 30.4518 5.67292 29.5082C5.85453 28.5508 5.93573 27.577 5.91521 26.6028H5.80044C5.24046 28.9138 4.96636 31.2847 4.98429 33.6624C4.79686 38.2552 5.98696 42.7992 8.4019 46.7113C11.0114 50.4491 14.479 53.5079 18.5144 55.6315C22.3386 57.9482 26.695 59.2428 31.1647 59.3907C40.1932 59.3907 47.8446 55.7717 54.1187 48.5336L54.2335 48.9669C55.7214 46.6863 57.0507 44.3062 58.2122 41.8435C58.3393 42.0915 58.4008 42.3679 58.3907 42.6463C58.3907 44.133 57.4215 46.2186 55.4832 48.9032C54.1407 50.8739 52.5792 52.6865 50.8286 54.3062C48.9963 55.8613 46.9993 57.2116 44.8733 58.333V58.5114C47.2979 57.4528 49.5234 55.9875 51.4535 54.1788C53.429 52.4193 55.1768 50.4202 56.6564 48.2278L57.4088 47.8455C57.0865 48.8189 56.627 49.7414 56.0443 50.5853C53.2134 54.5206 49.467 57.7088 45.1284 59.8749C40.7824 62.0745 35.9724 63.2018 31.1009 63.1627C21.8853 63.1627 13.5326 59.1528 6.04273 51.1332C2.11504 46.8855 0.151197 40.6244 0.151197 32.3499C0.0198013 27.046 1.30511 21.8029 3.87485 17.1602C6.66422 12.6314 10.4661 8.81047 14.9821 5.99723C16.6405 4.91986 18.4324 4.0631 20.3125 3.44862C23.5146 2.49795 26.8426 2.03821 30.1827 2.0851C35.4953 1.99725 40.7489 3.20907 45.4854 5.61493C50.2439 8.07225 54.2194 11.811 56.9624 16.4083C57.3705 17.1092 57.8806 18.1669 58.5055 19.5686C59.0475 20.5773 59.4263 21.6655 59.6277 22.7926C59.257 23.5995 58.7622 24.3434 58.1612 24.9972C57.6229 25.7671 57.0122 26.484 56.3376 27.138L54.6033 27.3801C54.7323 27.4638 54.883 27.5081 55.0369 27.5075L56.5161 27.4438C57.2303 26.5391 57.9316 25.6471 58.633 24.7805C59.346 24.0197 59.92 23.1398 60.329 22.1809C60.1682 21.1549 59.8133 20.1689 59.2834 19.2755C58.8163 18.3118 58.2523 17.3981 57.6001 16.5485C53.7064 11.6297 50.3355 8.23151 47.4875 6.35403C43.3785 3.83198 38.8322 2.10297 34.0849 1.25681H35.5769C37.0268 1.45727 38.4593 1.76825 39.8617 2.18704C43.9168 3.3214 47.6534 5.38027 50.7776 8.20178C54.01 10.8788 56.7057 14.1433 58.7223 17.8228C59.1303 18.5619 59.5384 19.3265 59.921 20.1166C60.3093 20.8513 60.5149 21.6686 60.5203 22.4995ZM35.5132 3.71621C33.9756 3.65635 32.4427 3.50744 30.9224 3.27021C28.6226 3.30927 26.3343 3.60418 24.0999 4.14949C21.8828 4.59893 19.7375 5.34923 17.7238 6.37953L17.5963 6.68535C22.2227 4.64488 27.2173 3.5695 32.2741 3.52507C33.3567 3.52206 34.4384 3.58589 35.5132 3.71621ZM27.8618 5.88255H27.543C24.5081 6.17418 21.5476 6.99356 18.795 8.30372C21.6772 7.01733 24.7467 6.19995 27.8873 5.88255H27.8618ZM34.2379 5.62767C34.1487 5.62767 33.4983 5.41105 32.2486 5.07973C31.6219 4.89646 30.9754 4.7895 30.323 4.76115H29.4559L34.2379 5.62767ZM36.7119 45.9977C35.5181 46.5194 34.2962 46.9746 33.052 47.3612L34.0467 47.5397C34.6715 47.2975 35.1434 47.0809 35.4749 46.9152C35.9464 46.7106 36.3618 46.396 36.6864 45.9977H36.7119ZM53.5321 27.3928C49.0112 27.2983 44.5154 26.6955 40.1295 25.5961L39.4536 25.0991L39.5684 25.5324C40.6961 26.2808 41.9019 26.9046 43.1645 27.3928C44.501 27.7557 45.8909 27.8808 47.2707 27.7624L53.5321 27.3928ZM56.5034 39.486H54.4375C53.277 39.486 51.0837 39.6134 47.8573 39.8556C45.8069 39.9062 43.7678 40.1753 41.7745 40.6584L41.5322 41.2828C41.9403 40.8241 42.2591 40.5947 42.4631 40.5947C49.8764 40.5522 54.5565 40.1826 56.5034 39.486ZM54.7691 23.6719C54.6732 23.2648 54.5276 22.871 54.3355 22.4995C54.3355 22.7034 54.3355 22.9965 54.3355 23.366C54.3355 23.7356 54.3992 24.0032 54.3992 24.1688C54.464 24.1613 54.5265 24.1405 54.5828 24.1076C54.639 24.0747 54.6879 24.0305 54.7262 23.9778C54.7646 23.9252 54.7916 23.8651 54.8055 23.8015C54.8195 23.7379 54.8201 23.672 54.8073 23.6081L54.7691 23.6719ZM56.2993 21.6457H55.4322C55.2154 21.6457 54.9731 21.8114 54.6798 22.1427H55.955L56.2993 21.6457Z" fill="#D7D7D7"/>
</svg>
