<svg width="127" height="161" viewBox="0 0 127 161" fill="none" xmlns="http://www.w3.org/2000/svg">
<path d="M10.0684 117.423H116.176C116.846 117.43 117.507 117.573 118.119 117.843C118.732 118.114 119.283 118.506 119.739 118.996C120.196 119.486 120.548 120.063 120.774 120.693C121.001 121.324 121.097 121.993 121.056 122.661C118.462 158.492 88.7719 158.492 63.1222 158.492C37.4726 158.492 7.93097 156.503 5.20044 122.661C5.15678 121.992 5.24983 121.321 5.47392 120.689C5.698 120.056 6.04843 119.477 6.50386 118.984C6.95929 118.492 7.5102 118.097 8.12302 117.824C8.73584 117.552 9.39775 117.407 10.0684 117.398V117.423Z" fill="#DD0E0E"/>
<path d="M118.005 70.7195H8.25223C7.88667 70.718 7.52706 70.6269 7.20487 70.4542C6.88267 70.2815 6.60773 70.0325 6.40411 69.7289C6.20049 69.4253 6.07439 69.0764 6.03687 68.7128C5.99936 68.3491 6.05155 67.9818 6.18889 67.6431C10.8571 56.3852 18.7578 46.7638 28.8925 39.9949C39.0273 33.2259 50.9411 29.6131 63.1285 29.6131C75.3158 29.6131 87.2297 33.2259 97.3644 39.9949C107.499 46.7638 115.4 56.3852 120.068 67.6431C120.205 67.9818 120.258 68.3491 120.22 68.7128C120.183 69.0764 120.056 69.4253 119.853 69.7289C119.649 70.0325 119.374 70.2815 119.052 70.4542C118.73 70.6269 118.37 70.718 118.005 70.7195V70.7195Z" fill="#DD0E0E"/>
<path d="M24.457 54.2945C24.0688 54.29 23.6978 54.1341 23.4228 53.8601C23.2778 53.7168 23.1626 53.5461 23.084 53.3579C23.0053 53.1697 22.9649 52.9678 22.9649 52.7639C22.9649 52.56 23.0053 52.3581 23.084 52.1699C23.1626 51.9817 23.2778 51.811 23.4228 51.6677C31.2376 43.5264 41.4607 38.1103 52.5859 36.2175C52.9973 36.1476 53.4196 36.2439 53.76 36.4854C54.1003 36.7268 54.3309 37.0936 54.4008 37.505C54.4707 37.9164 54.3744 38.3388 54.1329 38.6791C53.8915 39.0195 53.5247 39.25 53.1133 39.32C42.6132 41.0722 32.9566 46.1598 25.5739 53.8291C25.4277 53.9766 25.2537 54.0937 25.062 54.1735C24.8703 54.2534 24.6647 54.2945 24.457 54.2945V54.2945Z" fill="black"/>
<path d="M21.7683 58.4931C21.7683 58.8371 21.6661 59.1734 21.4747 59.4594C21.2834 59.7453 21.0114 59.968 20.6933 60.0992C20.3753 60.2304 20.0254 60.2642 19.6881 60.1963C19.3508 60.1284 19.0413 59.9619 18.7987 59.7179C18.5562 59.4739 18.3915 59.1633 18.3256 58.8256C18.2598 58.4879 18.2957 58.1383 18.4287 57.821C18.5618 57.5037 18.7861 57.2331 19.0732 57.0435C19.3603 56.8538 19.6972 56.7537 20.0412 56.7557C20.2689 56.7557 20.4943 56.8007 20.7045 56.8882C20.9147 56.9756 21.1056 57.1037 21.2661 57.2652C21.4266 57.4267 21.5536 57.6183 21.6398 57.829C21.726 58.0397 21.7696 58.2654 21.7683 58.4931Z" fill="black"/>
<path d="M10.0684 119.894C9.73375 119.898 9.40349 119.971 9.09766 120.107C8.79182 120.242 8.51679 120.439 8.28923 120.685C8.06487 120.925 7.893 121.21 7.78452 121.52C7.67604 121.831 7.63333 122.16 7.65911 122.488C10.1302 153.463 36.4347 156.058 63.1222 156.058C89.192 156.058 116.164 156.058 118.585 122.488C118.602 122.159 118.552 121.829 118.439 121.519C118.327 121.209 118.153 120.925 117.928 120.683C117.704 120.441 117.433 120.246 117.132 120.111C116.831 119.975 116.506 119.902 116.176 119.894H10.0684ZM63.1222 161C41.6857 161 5.81816 161 2.74168 122.884C2.65957 121.875 2.78734 120.86 3.11694 119.903C3.44655 118.946 3.97084 118.068 4.65676 117.324C5.34796 116.579 6.18505 115.983 7.11602 115.575C8.04698 115.167 9.05192 114.955 10.0684 114.952H116.176C117.185 114.96 118.182 115.174 119.106 115.58C120.029 115.987 120.86 116.578 121.547 117.317C122.234 118.057 122.763 118.928 123.102 119.879C123.44 120.83 123.581 121.84 123.515 122.847C120.76 161 88.7966 161 63.1222 161Z" fill="black"/>
<path d="M8.61043 68.2485H117.646C113.123 57.526 105.539 48.3753 95.8418 41.9413C86.1448 35.5072 74.7658 32.0756 63.1284 32.0756C51.4909 32.0756 40.1119 35.5072 30.4149 41.9413C20.7178 48.3753 13.1334 57.526 8.61043 68.2485V68.2485ZM118.005 73.1906H8.25212C7.47971 73.1922 6.71886 73.0031 6.037 72.6402C5.35514 72.2773 4.77335 71.7518 4.3432 71.1102C3.91306 70.4687 3.64783 69.7309 3.57105 68.9623C3.49427 68.1937 3.60831 67.4181 3.90305 66.7041C8.75746 54.993 16.9749 44.984 27.5166 37.9422C38.0583 30.9005 50.451 27.142 63.1284 27.142C75.8057 27.142 88.1984 30.9005 98.7401 37.9422C109.282 44.984 117.499 54.993 122.354 66.7041C122.645 67.419 122.756 68.1943 122.678 68.9621C122.599 69.7299 122.334 70.4668 121.905 71.1082C121.475 71.7497 120.895 72.276 120.215 72.6412C119.535 73.0064 118.776 73.1993 118.005 73.203V73.1906Z" fill="black"/>
<path d="M48.753 47.6522C48.2653 48.0556 47.6464 48.2659 47.0139 48.2431C46.3813 48.2203 45.7792 47.966 45.3218 47.5285C44.8645 47.0909 44.5838 46.5006 44.533 45.8697C44.4822 45.2388 44.6649 44.6112 45.0464 44.1062C46.0224 43.0683 50.3715 40.1525 51.4094 41.1409C52.4472 42.1293 49.7785 46.6143 48.79 47.6522H48.753Z" fill="black"/>
<path d="M23.1404 62.9852C22.8621 63.1791 22.5484 63.3163 22.2171 63.3889C21.8858 63.4616 21.5435 63.4683 21.2096 63.4086C20.8757 63.3489 20.5569 63.2241 20.2713 63.0412C19.9857 62.8583 19.7389 62.621 19.545 62.3427C19.3511 62.0645 19.2139 61.7507 19.1412 61.4195C19.0686 61.0882 19.0619 60.7458 19.1216 60.412C19.1812 60.0781 19.3061 59.7593 19.4889 59.4736C19.6718 59.188 19.9092 58.9412 20.1874 58.7473C21.423 57.9319 26.2045 55.9674 27.0199 57.1411C27.8354 58.3149 24.3141 62.1698 23.1404 62.9852Z" fill="black"/>
<path d="M60.4411 59.9828C60.3526 60.6627 59.9976 61.2797 59.4543 61.6979C58.9109 62.1162 58.2237 62.3014 57.5437 62.2129C56.8638 62.1245 56.2469 61.7695 55.8286 61.2261C55.4104 60.6828 55.2251 59.9955 55.3136 59.3156C55.4989 57.8947 57.3152 52.9897 58.7237 53.1379C60.1322 53.2862 60.6264 58.5372 60.4411 59.9457V59.9828Z" fill="black"/>
<path d="M81.4081 42.7718C81.7845 43.2832 81.9592 43.9154 81.899 44.5475C81.8387 45.1796 81.5476 45.7673 81.0814 46.1984C80.6152 46.6295 80.0065 46.8737 79.3716 46.8843C78.7367 46.8949 78.1201 46.6712 77.6397 46.256C76.6637 45.2182 74.0073 40.7208 75.0451 39.7324C76.083 38.744 80.4197 41.6845 81.4081 42.7224V42.7718Z" fill="black"/>
<path d="M88.9449 60.5141C89.1964 60.742 89.4005 61.0173 89.5456 61.3242C89.6908 61.631 89.774 61.9635 89.7906 62.3025C89.8073 62.6415 89.757 62.9805 89.6426 63.3001C89.5282 63.6197 89.352 63.9136 89.1241 64.1651C88.8961 64.4166 88.6208 64.6207 88.314 64.7658C88.0071 64.9109 87.6747 64.9942 87.3357 65.0108C86.9966 65.0274 86.6577 64.9771 86.3381 64.8628C86.0185 64.7484 85.7245 64.5722 85.4731 64.3442C84.4229 63.3929 81.4082 59.1056 82.3595 58.0554C83.3109 57.0052 87.8823 59.5504 88.9449 60.5264V60.5141Z" fill="black"/>
<path d="M102.289 50.6175C102.67 51.1707 102.821 51.8508 102.709 52.5133C102.597 53.1758 102.231 53.7687 101.689 54.1659C101.147 54.5631 100.472 54.7334 99.8063 54.6407C99.1408 54.548 98.5377 54.1995 98.1249 53.6692C97.2724 52.5202 95.1967 47.7263 96.3458 46.8861C97.4948 46.046 101.449 49.4684 102.289 50.5927V50.6175Z" fill="black"/>
<path d="M104.451 113.358C98.2732 113.358 95.172 110.368 92.4044 107.736C89.9333 105.352 87.9565 103.474 83.7556 103.474C79.5548 103.474 77.578 105.352 75.1069 107.736C72.3517 110.368 69.2258 113.358 63.0728 113.358C56.9199 113.358 53.7816 110.368 51.0264 107.736C48.5553 105.352 46.5784 103.474 42.3776 103.474C38.1768 103.474 36.2 105.352 33.7289 107.736C30.9736 110.368 27.8477 113.358 21.6948 113.358C15.5418 113.358 12.4159 110.368 9.6607 107.736C7.48616 105.648 5.59579 103.857 2.24749 103.535C1.59213 103.473 0.98833 103.153 0.568939 102.646C0.149548 102.138 -0.051089 101.485 0.011171 100.83C0.0734309 100.174 0.393487 99.5704 0.900926 99.151C1.40837 98.7316 2.06162 98.531 2.71699 98.5932C7.81975 99.0874 10.6368 101.769 13.1202 104.153C15.6036 106.538 17.5681 108.403 21.7689 108.403C25.9697 108.403 27.9466 106.525 30.4177 104.153C33.1729 101.509 36.2988 98.5191 42.4518 98.5191C48.6047 98.5191 51.7306 101.509 54.4982 104.153C56.9693 106.525 58.9461 108.403 63.147 108.403C67.3478 108.403 69.3246 106.525 71.7957 104.153C74.5509 101.509 77.6768 98.5191 83.8298 98.5191C89.9827 98.5191 93.121 101.509 95.8762 104.153C98.3473 106.525 100.324 108.403 104.525 108.403C108.726 108.403 110.703 106.525 113.174 104.153C115.645 101.781 118.474 99.0874 123.589 98.5932C124.245 98.531 124.898 98.7316 125.405 99.151C125.913 99.5704 126.233 100.174 126.295 100.83C126.357 101.485 126.157 102.138 125.737 102.646C125.318 103.153 124.714 103.473 124.059 103.535C120.649 103.857 118.771 105.648 116.646 107.736C113.878 110.368 110.752 113.358 104.599 113.358H104.451Z" fill="black"/>
<path d="M64.2836 34.8768H64.0612C63.4093 34.8172 62.8077 34.5014 62.3885 33.9987C61.9692 33.4961 61.7665 32.8476 61.8248 32.1956L64.5554 2.25867C64.6144 1.6033 64.9313 0.998204 65.4364 0.576496C65.9415 0.154788 66.5935 -0.0489886 67.2488 0.00999449C67.9042 0.0689776 68.5093 0.385889 68.931 0.891011C69.3527 1.39613 69.5565 2.04809 69.4975 2.70346L66.7423 32.6651C66.6866 33.2812 66.4019 33.854 65.9443 34.2704C65.4868 34.6867 64.8898 34.9163 64.2712 34.9138L64.2836 34.8768Z" fill="black"/>
<path d="M68.225 19.6303C71.5363 20.8659 75.1687 20.2975 78.9865 19.6303C82.8043 18.9632 86.8198 18.3083 90.9094 19.445L91.7619 7.4974C88.4507 6.26187 84.8182 6.83021 81.0128 7.4974C77.2074 8.16459 73.1672 8.80707 69.0775 7.67038L68.225 19.618V19.6303ZM93.084 25.5485C92.6495 25.5514 92.2224 25.4361 91.8484 25.215C88.1418 23.1145 84.0769 23.8064 79.7402 24.5354C74.9587 25.3385 69.547 26.2528 64.3578 23.2999C63.956 23.0693 63.6271 22.7304 63.4086 22.3219C63.1901 21.9134 63.0909 21.4516 63.1223 20.9894L64.3578 3.95142C64.3876 3.53542 64.5221 3.13372 64.749 2.78374C64.9758 2.43377 65.2875 2.14689 65.6551 1.94985C66.0218 1.74648 66.4343 1.63977 66.8536 1.63977C67.2729 1.63977 67.6853 1.74648 68.0521 1.94985C71.7587 4.05026 75.8112 3.35836 80.1479 2.6294C84.9294 1.8263 90.3411 0.924362 95.5303 3.86493C95.9341 4.09644 96.2644 4.43729 96.4829 4.84823C96.7015 5.25917 96.7996 5.7235 96.7659 6.18773L95.5303 23.2134C95.5156 23.6275 95.397 24.0312 95.1854 24.3874C94.9738 24.7437 94.6761 25.041 94.3195 25.252C93.9626 25.4447 93.5637 25.5465 93.1581 25.5485H93.084Z" fill="black"/>
<path d="M120.266 81.271H5.18801C4.53265 81.271 3.90412 81.0107 3.4407 80.5472C2.97729 80.0838 2.71695 79.4553 2.71695 78.7999C2.71695 78.1446 2.97729 77.516 3.4407 77.0526C3.90412 76.5892 4.53265 76.3289 5.18801 76.3289H120.266C120.921 76.3289 121.55 76.5892 122.013 77.0526C122.476 77.516 122.737 78.1446 122.737 78.7999C122.737 79.4553 122.476 80.0838 122.013 80.5472C121.55 81.0107 120.921 81.271 120.266 81.271Z" fill="black"/>
<path d="M120.266 96.4063H5.18801C4.53265 96.4063 3.90412 96.146 3.4407 95.6826C2.97729 95.2191 2.71695 94.5906 2.71695 93.9352C2.71695 93.2799 2.97729 92.6514 3.4407 92.1879C3.90412 91.7245 4.53265 91.4642 5.18801 91.4642H120.266C120.921 91.4642 121.55 91.7245 122.013 92.1879C122.476 92.6514 122.737 93.2799 122.737 93.9352C122.737 94.5906 122.476 95.2191 122.013 95.6826C121.55 96.146 120.921 96.4063 120.266 96.4063Z" fill="black"/>
<path d="M15.0353 88.6349H8.19047C7.71206 88.6349 7.25323 88.4448 6.91494 88.1065C6.57664 87.7682 6.3866 87.3094 6.3866 86.831C6.3866 86.3526 6.57664 85.8937 6.91494 85.5554C7.25323 85.2172 7.71206 85.0271 8.19047 85.0271H15.0353C15.5137 85.0271 15.9726 85.2172 16.3109 85.5554C16.6492 85.8937 16.8392 86.3526 16.8392 86.831C16.8392 87.3094 16.6492 87.7682 16.3109 88.1065C15.9726 88.4448 15.5137 88.6349 15.0353 88.6349V88.6349Z" fill="black"/>
<path d="M35.1127 88.6349H28.2679C27.7895 88.6349 27.3306 88.4448 26.9924 88.1065C26.6541 87.7682 26.464 87.3094 26.464 86.831C26.464 86.3526 26.6541 85.8937 26.9924 85.5554C27.3306 85.2172 27.7895 85.0271 28.2679 85.0271H35.1127C35.5912 85.0271 36.05 85.2172 36.3883 85.5554C36.7266 85.8937 36.9166 86.3526 36.9166 86.831C36.9166 87.3094 36.7266 87.7682 36.3883 88.1065C36.05 88.4448 35.5912 88.6349 35.1127 88.6349Z" fill="black"/>
<path d="M55.1902 88.6349H48.3453C47.8669 88.6349 47.4081 88.4448 47.0698 88.1065C46.7315 87.7682 46.5414 87.3094 46.5414 86.831C46.5414 86.3526 46.7315 85.8937 47.0698 85.5554C47.4081 85.2172 47.8669 85.0271 48.3453 85.0271H55.1902C55.6686 85.0271 56.1274 85.2172 56.4657 85.5554C56.804 85.8937 56.994 86.3526 56.994 86.831C56.994 87.3094 56.804 87.7682 56.4657 88.1065C56.1274 88.4448 55.6686 88.6349 55.1902 88.6349Z" fill="black"/>
<path d="M75.2676 88.6349H68.3733C67.8949 88.6349 67.436 88.4448 67.0977 88.1065C66.7595 87.7682 66.5694 87.3094 66.5694 86.831C66.5694 86.3526 66.7595 85.8937 67.0977 85.5554C67.436 85.2172 67.8949 85.0271 68.3733 85.0271H75.2181C75.6966 85.0271 76.1554 85.2172 76.4937 85.5554C76.832 85.8937 77.022 86.3526 77.022 86.831C77.022 87.3094 76.832 87.7682 76.4937 88.1065C76.1554 88.4448 75.6966 88.6349 75.2181 88.6349H75.2676Z" fill="black"/>
<path d="M95.345 88.6349H88.5001C88.0217 88.6349 87.5629 88.4448 87.2246 88.1065C86.8863 87.7682 86.6963 87.3094 86.6963 86.831C86.6963 86.3526 86.8863 85.8937 87.2246 85.5554C87.5629 85.2172 88.0217 85.0271 88.5001 85.0271H95.345C95.8234 85.0271 96.2822 85.2172 96.6205 85.5554C96.9588 85.8937 97.1489 86.3526 97.1489 86.831C97.1489 87.3094 96.9588 87.7682 96.6205 88.1065C96.2822 88.4448 95.8234 88.6349 95.345 88.6349V88.6349Z" fill="black"/>
<path d="M115.422 88.6349H108.578C108.099 88.6349 107.64 88.4448 107.302 88.1065C106.964 87.7682 106.774 87.3094 106.774 86.831C106.774 86.3526 106.964 85.8937 107.302 85.5554C107.64 85.2172 108.099 85.0271 108.578 85.0271H115.422C115.901 85.0271 116.36 85.2172 116.698 85.5554C117.036 85.8937 117.226 86.3526 117.226 86.831C117.226 87.3094 117.036 87.7682 116.698 88.1065C116.36 88.4448 115.901 88.6349 115.422 88.6349V88.6349Z" fill="black"/>
</svg>
