<svg width="127" height="161" viewBox="0 0 127 161" fill="none" xmlns="http://www.w3.org/2000/svg">
<path d="M10.0685 119.894C9.73382 119.898 9.40356 119.971 9.09773 120.106C8.79189 120.242 8.51686 120.439 8.28931 120.684C8.06495 120.925 7.89307 121.21 7.78459 121.52C7.67611 121.831 7.6334 122.16 7.65918 122.488C10.1302 153.463 36.4348 156.058 63.1223 156.058C89.192 156.058 116.164 156.058 118.585 122.488C118.602 122.159 118.552 121.829 118.439 121.519C118.327 121.209 118.153 120.925 117.928 120.683C117.704 120.441 117.433 120.246 117.132 120.111C116.831 119.975 116.506 119.902 116.176 119.894H10.0685ZM63.1223 161C41.6858 161 5.81823 161 2.74175 122.884C2.65964 121.875 2.78741 120.86 3.11702 119.903C3.44662 118.946 3.97092 118.068 4.65683 117.324C5.34804 116.579 6.18513 115.983 7.11609 115.575C8.04705 115.167 9.05199 114.955 10.0685 114.952H116.176C117.185 114.96 118.182 115.173 119.106 115.58C120.029 115.987 120.86 116.578 121.547 117.317C122.234 118.056 122.763 118.928 123.102 119.879C123.44 120.83 123.581 121.84 123.515 122.847C120.76 161 88.7967 161 63.1223 161Z" fill="#D7D7D7"/>
<path d="M8.61045 68.2485H117.646C113.123 57.526 105.539 48.3753 95.8419 41.9413C86.1448 35.5073 74.7658 32.0756 63.1284 32.0756C51.491 32.0756 40.1119 35.5073 30.4149 41.9413C20.7179 48.3753 13.1334 57.526 8.61045 68.2485ZM118.005 73.1907H8.25214C7.47973 73.1922 6.71888 73.0031 6.03702 72.6402C5.35516 72.2773 4.77337 71.7518 4.34322 71.1103C3.91307 70.4687 3.64785 69.7309 3.57107 68.9623C3.49429 68.1938 3.60833 67.4181 3.90307 66.7041C8.75748 54.9931 16.9749 44.9841 27.5166 37.9423C38.0583 30.9005 50.4511 27.1421 63.1284 27.1421C75.8057 27.1421 88.1984 30.9005 98.7401 37.9423C109.282 44.9841 117.499 54.9931 122.354 66.7041C122.645 67.419 122.756 68.1943 122.678 68.9621C122.599 69.7299 122.334 70.4668 121.905 71.1083C121.475 71.7497 120.895 72.2761 120.215 72.6413C119.536 73.0065 118.776 73.1994 118.005 73.203V73.1907Z" fill="#D7D7D7"/>
<path d="M48.7529 47.6522C48.2653 48.0556 47.6464 48.2659 47.0139 48.2431C46.3813 48.2203 45.7792 47.966 45.3218 47.5285C44.8645 47.0909 44.5837 46.5006 44.5329 45.8697C44.4822 45.2388 44.6649 44.6112 45.0463 44.1062C46.0224 43.0683 50.3715 40.1525 51.4094 41.1409C52.4472 42.1293 49.7784 46.6143 48.79 47.6522H48.7529Z" fill="#D7D7D7"/>
<path d="M23.1404 62.9852C22.8621 63.1791 22.5484 63.3163 22.2171 63.3889C21.8858 63.4616 21.5435 63.4683 21.2096 63.4086C20.8758 63.349 20.5569 63.2241 20.2713 63.0412C19.9857 62.8583 19.7389 62.621 19.545 62.3427C19.3511 62.0645 19.2139 61.7508 19.1413 61.4195C19.0686 61.0882 19.062 60.7458 19.1216 60.412C19.1813 60.0781 19.3061 59.7593 19.489 59.4736C19.6719 59.188 19.9092 58.9412 20.1875 58.7473C21.423 57.9319 26.2045 55.9674 27.02 57.1411C27.8354 58.3149 24.3142 62.1698 23.1404 62.9852Z" fill="#D7D7D7"/>
<path d="M60.4411 59.9828C60.3527 60.6627 59.9977 61.2797 59.4543 61.6979C58.911 62.1162 58.2237 62.3014 57.5438 62.2129C56.8639 62.1245 56.2469 61.7695 55.8287 61.2261C55.4104 60.6828 55.2252 59.9955 55.3137 59.3156C55.499 57.8947 57.3152 52.9897 58.7237 53.1379C60.1322 53.2862 60.6265 58.5372 60.4411 59.9457V59.9828Z" fill="#D7D7D7"/>
<path d="M81.4082 42.7718C81.7845 43.2832 81.9593 43.9154 81.899 44.5475C81.8387 45.1796 81.5477 45.7673 81.0814 46.1984C80.6152 46.6295 80.0065 46.8737 79.3716 46.8843C78.7367 46.8949 78.1202 46.6712 77.6398 46.256C76.6637 45.2182 74.0073 40.7208 75.0452 39.7324C76.083 38.744 80.4197 41.6845 81.4082 42.7224V42.7718Z" fill="#D7D7D7"/>
<path d="M88.9448 60.5141C89.1963 60.7421 89.4004 61.0173 89.5455 61.3242C89.6906 61.6311 89.7739 61.9635 89.7905 62.3025C89.8072 62.6415 89.7569 62.9805 89.6425 63.3001C89.5281 63.6197 89.3519 63.9136 89.1239 64.1651C88.896 64.4166 88.6207 64.6207 88.3139 64.7658C88.007 64.911 87.6746 64.9942 87.3356 65.0108C86.9965 65.0275 86.6575 64.9772 86.338 64.8628C86.0184 64.7484 85.7244 64.5722 85.4729 64.3443C84.4227 63.3929 81.408 59.1056 82.3594 58.0554C83.3108 57.0052 87.8822 59.5504 88.9448 60.5265V60.5141Z" fill="#D7D7D7"/>
<path d="M102.289 50.6174C102.67 51.1706 102.821 51.8507 102.709 52.5133C102.597 53.1758 102.231 53.7686 101.689 54.1659C101.147 54.5631 100.472 54.7334 99.8062 54.6407C99.1407 54.5479 98.5376 54.1994 98.1249 53.6692C97.2723 52.5202 95.1966 47.7263 96.3457 46.8861C97.4947 46.046 101.448 49.4684 102.289 50.5927V50.6174Z" fill="#D7D7D7"/>
<path d="M104.451 113.358C98.2731 113.358 95.1719 110.368 92.4043 107.736C89.9333 105.352 87.9564 103.474 83.7556 103.474C79.5548 103.474 77.5779 105.352 75.1069 107.736C72.3516 110.368 69.2257 113.358 63.0728 113.358C56.9198 113.358 53.7816 110.368 51.0263 107.736C48.5553 105.352 46.5784 103.474 42.3776 103.474C38.1768 103.474 36.1999 105.352 33.7289 107.736C30.9736 110.368 27.8477 113.358 21.6948 113.358C15.5418 113.358 12.4159 110.368 9.66067 107.736C7.48613 105.648 5.59577 103.857 2.24747 103.535C1.5921 103.473 0.988306 103.153 0.568916 102.646C0.149525 102.138 -0.0511119 101.485 0.0111481 100.83C0.073408 100.174 0.393464 99.5704 0.900903 99.151C1.40834 98.7316 2.0616 98.531 2.71697 98.5932C7.81972 99.0874 10.6367 101.769 13.1202 104.153C15.6036 106.538 17.5681 108.403 21.7689 108.403C25.9697 108.403 27.9466 106.525 30.4176 104.153C33.1729 101.509 36.2988 98.5191 42.4517 98.5191C48.6047 98.5191 51.7306 101.509 54.4982 104.153C56.9692 106.525 58.9461 108.403 63.1469 108.403C67.3477 108.403 69.3246 106.525 71.7956 104.153C74.5509 101.509 77.6768 98.5191 83.8297 98.5191C89.9827 98.5191 93.1209 101.509 95.8762 104.153C98.3473 106.525 100.324 108.403 104.525 108.403C108.726 108.403 110.703 106.525 113.174 104.153C115.645 101.781 118.474 99.0874 123.589 98.5932C124.245 98.531 124.898 98.7316 125.405 99.151C125.913 99.5704 126.233 100.174 126.295 100.83C126.357 101.485 126.157 102.138 125.737 102.646C125.318 103.153 124.714 103.473 124.059 103.535C120.649 103.857 118.771 105.648 116.646 107.736C113.878 110.368 110.752 113.358 104.599 113.358H104.451Z" fill="#D7D7D7"/>
<path d="M64.2836 34.8768H64.0612C63.4094 34.8172 62.8078 34.5014 62.3885 33.9987C61.9692 33.4961 61.7665 32.8476 61.8249 32.1956L64.5554 2.25867C64.6144 1.6033 64.9313 0.998204 65.4364 0.576496C65.9416 0.154788 66.5935 -0.0489886 67.2489 0.00999449C67.9043 0.0689776 68.5094 0.385889 68.9311 0.891011C69.3528 1.39613 69.5565 2.04809 69.4976 2.70346L66.7423 32.6651C66.6866 33.2812 66.4019 33.854 65.9444 34.2704C65.4869 34.6867 64.8898 34.9163 64.2712 34.9138L64.2836 34.8768Z" fill="#D7D7D7"/>
<path d="M68.225 19.6303C71.5362 20.8658 75.1687 20.2975 78.9865 19.6303C82.8043 18.9631 86.8198 18.3083 90.9094 19.445L91.7619 7.49737C88.4507 6.26183 84.8182 6.83018 81.0128 7.49737C77.2073 8.16456 73.1671 8.80704 69.0775 7.67034L68.225 19.618V19.6303ZM93.0839 25.5485C92.6495 25.5514 92.2224 25.436 91.8484 25.2149C88.1418 23.1145 84.0769 23.8064 79.7402 24.5354C74.9586 25.3385 69.547 26.2528 64.3578 23.2998C63.9559 23.0693 63.627 22.7304 63.4086 22.3219C63.1901 21.9133 63.0909 21.4516 63.1222 20.9894L64.3578 3.95139C64.3875 3.53539 64.5221 3.13369 64.7489 2.78371C64.9758 2.43373 65.2875 2.14686 65.6551 1.94982C66.0218 1.74645 66.4342 1.63974 66.8535 1.63974C67.2729 1.63974 67.6853 1.74645 68.052 1.94982C71.7586 4.05023 75.8112 3.35833 80.1479 2.62937C84.9294 1.82627 90.341 0.924331 95.5303 3.8649C95.9341 4.09641 96.2643 4.43726 96.4829 4.8482C96.7015 5.25914 96.7995 5.72347 96.7658 6.1877L95.5303 23.2134C95.5155 23.6274 95.3969 24.0311 95.1854 24.3874C94.9738 24.7436 94.676 25.0409 94.3195 25.252C93.9625 25.4447 93.5637 25.5465 93.1581 25.5485H93.0839Z" fill="#D7D7D7"/>
<path d="M120.266 81.271H5.18796C4.53259 81.271 3.90407 81.0107 3.44065 80.5473C2.97724 80.0839 2.71689 79.4553 2.71689 78.8C2.71689 78.1446 2.97724 77.5161 3.44065 77.0527C3.90407 76.5892 4.53259 76.3289 5.18796 76.3289H120.266C120.921 76.3289 121.549 76.5892 122.013 77.0527C122.476 77.5161 122.737 78.1446 122.737 78.8C122.737 79.4553 122.476 80.0839 122.013 80.5473C121.549 81.0107 120.921 81.271 120.266 81.271Z" fill="#D7D7D7"/>
<path d="M120.266 96.4063H5.18796C4.53259 96.4063 3.90407 96.146 3.44065 95.6825C2.97724 95.2191 2.71689 94.5906 2.71689 93.9352C2.71689 93.2799 2.97724 92.6514 3.44065 92.1879C3.90407 91.7245 4.53259 91.4642 5.18796 91.4642H120.266C120.921 91.4642 121.549 91.7245 122.013 92.1879C122.476 92.6514 122.737 93.2799 122.737 93.9352C122.737 94.5906 122.476 95.2191 122.013 95.6825C121.549 96.146 120.921 96.4063 120.266 96.4063Z" fill="#D7D7D7"/>
<path d="M15.0352 88.6348H8.19035C7.71193 88.6348 7.25311 88.4448 6.91481 88.1065C6.57652 87.7682 6.38647 87.3094 6.38647 86.8309C6.38647 86.3525 6.57652 85.8937 6.91481 85.5554C7.25311 85.2171 7.71193 85.0271 8.19035 85.0271H15.0352C15.5136 85.0271 15.9724 85.2171 16.3107 85.5554C16.649 85.8937 16.8391 86.3525 16.8391 86.8309C16.8391 87.3094 16.649 87.7682 16.3107 88.1065C15.9724 88.4448 15.5136 88.6348 15.0352 88.6348Z" fill="#D7D7D7"/>
<path d="M35.1126 88.6348H28.2677C27.7893 88.6348 27.3305 88.4448 26.9922 88.1065C26.6539 87.7682 26.4639 87.3094 26.4639 86.8309C26.4639 86.3525 26.6539 85.8937 26.9922 85.5554C27.3305 85.2171 27.7893 85.0271 28.2677 85.0271H35.1126C35.591 85.0271 36.0499 85.2171 36.3881 85.5554C36.7264 85.8937 36.9165 86.3525 36.9165 86.8309C36.9165 87.3094 36.7264 87.7682 36.3881 88.1065C36.0499 88.4448 35.591 88.6348 35.1126 88.6348Z" fill="#D7D7D7"/>
<path d="M55.19 88.6348H48.3451C47.8667 88.6348 47.4079 88.4448 47.0696 88.1065C46.7313 87.7682 46.5413 87.3094 46.5413 86.8309C46.5413 86.3525 46.7313 85.8937 47.0696 85.5554C47.4079 85.2171 47.8667 85.0271 48.3451 85.0271H55.19C55.6684 85.0271 56.1272 85.2171 56.4655 85.5554C56.8038 85.8937 56.9939 86.3525 56.9939 86.8309C56.9939 87.3094 56.8038 87.7682 56.4655 88.1065C56.1272 88.4448 55.6684 88.6348 55.19 88.6348Z" fill="#D7D7D7"/>
<path d="M75.2674 88.6348H68.3731C67.8947 88.6348 67.4358 88.4448 67.0975 88.1065C66.7593 87.7682 66.5692 87.3094 66.5692 86.8309C66.5692 86.3525 66.7593 85.8937 67.0975 85.5554C67.4358 85.2171 67.8947 85.0271 68.3731 85.0271H75.2179C75.6964 85.0271 76.1552 85.2171 76.4935 85.5554C76.8318 85.8937 77.0218 86.3525 77.0218 86.8309C77.0218 87.3094 76.8318 87.7682 76.4935 88.1065C76.1552 88.4448 75.6964 88.6348 75.2179 88.6348H75.2674Z" fill="#D7D7D7"/>
<path d="M95.3449 88.6348H88.5C88.0216 88.6348 87.5628 88.4448 87.2245 88.1065C86.8862 87.7682 86.6962 87.3094 86.6962 86.8309C86.6962 86.3525 86.8862 85.8937 87.2245 85.5554C87.5628 85.2171 88.0216 85.0271 88.5 85.0271H95.3449C95.8233 85.0271 96.2821 85.2171 96.6204 85.5554C96.9587 85.8937 97.1488 86.3525 97.1488 86.8309C97.1488 87.3094 96.9587 87.7682 96.6204 88.1065C96.2821 88.4448 95.8233 88.6348 95.3449 88.6348Z" fill="#D7D7D7"/>
<path d="M115.422 88.6348H108.577C108.099 88.6348 107.64 88.4448 107.302 88.1065C106.964 87.7682 106.774 87.3094 106.774 86.8309C106.774 86.3525 106.964 85.8937 107.302 85.5554C107.64 85.2171 108.099 85.0271 108.577 85.0271H115.422C115.901 85.0271 116.36 85.2171 116.698 85.5554C117.036 85.8937 117.226 86.3525 117.226 86.8309C117.226 87.3094 117.036 87.7682 116.698 88.1065C116.36 88.4448 115.901 88.6348 115.422 88.6348Z" fill="#D7D7D7"/>
</svg>
