<svg width="280" height="81" viewBox="0 0 280 81" fill="none" xmlns="http://www.w3.org/2000/svg">
<path d="M57.7152 0.62616H14.8151C6.63293 0.62616 0 7.25909 0 15.4412V58.3414C0 66.5235 6.63293 73.1564 14.8151 73.1564H57.7152C65.8974 73.1564 72.5303 66.5235 72.5303 58.3414V15.4412C72.5303 7.25909 65.8974 0.62616 57.7152 0.62616Z" fill="#DD0E0E"/>
<path d="M119.891 45.7443C119.813 48.9488 118.917 52.08 117.287 54.8402C115.311 58.403 112.196 61.1984 108.44 62.7773C104.725 64.2182 100.787 64.9983 96.8026 65.0824L84.6789 65.207L97.6499 65.3192C105.45 65.3192 111.734 62.715 116.502 57.5067C112.183 63.0058 105.413 65.7511 96.192 65.7428C86.9716 65.7345 82.2035 65.6971 81.8878 65.6307C81.2025 64.9827 80.5172 64.3099 79.8319 63.6246C79.1196 63.0459 78.6451 62.2255 78.4987 61.3195C78.3367 58.491 78.3118 54.7405 78.4364 50.1054C78.5527 43.3105 78.6108 39.535 78.6108 38.7791C78.6108 37.1593 78.6108 34.7296 78.399 31.5024C78.1872 28.2753 78.1872 25.8455 78.1872 24.2257C78.1872 22.0826 78.1872 19.8772 78.3118 17.6219L78.7977 17.6842C79.5204 19.3455 79.9358 24.6162 80.0437 33.4961C80.2263 33.1654 80.3086 32.7887 80.2805 32.412C80.2805 32.2127 80.1227 24.6535 79.807 9.73462C80.0373 10.2159 80.1968 10.7279 80.2805 11.2548C80.2805 12.8746 80.3843 15.3209 80.592 18.5938C81.1529 21.7596 81.5357 24.9544 81.7383 28.1631C81.7383 28.6865 81.7383 29.4091 81.6262 30.4682C81.514 31.5274 81.5016 32.25 81.5016 32.7734C82.0623 32.412 82.3489 32.1005 82.3489 31.8638L82.2866 24.4625C82.9436 26.5405 83.2509 28.7132 83.1962 30.8919L82.9843 38.1686L83.8316 58.5907V50.8904C83.8316 50.2051 83.7569 49.1833 83.6073 47.8003C83.4578 46.4172 83.3955 45.3955 83.3955 44.7102V42.6542L83.8815 42.9533V42.5296C83.8815 41.8069 83.8815 40.7977 83.7942 39.5267C83.707 38.2558 83.707 37.2964 83.707 36.6485C83.7033 35.6573 83.7615 34.6668 83.8815 33.683L84.193 33.4338C85.0505 36.5565 85.4987 39.7774 85.5262 43.0156C85.5262 46.2054 85.5262 49.3993 85.5262 52.5974C85.5262 53.2827 85.5262 54.2795 85.4016 55.6003C85.277 56.921 85.277 57.8929 85.277 58.5284L97.2262 59.139C101.484 59.5405 105.748 58.448 109.288 56.0488C111.025 54.8414 112.426 53.2115 113.359 51.3128C114.292 49.414 114.726 47.309 114.621 45.1961C114.727 42.8397 114.043 40.5152 112.677 38.5922C111.236 36.7732 109.388 35.3179 107.282 34.3433C107.282 34.144 107.282 33.683 107.157 32.9478C107.09 32.4855 107.052 32.0194 107.045 31.5523V31.1286L110.92 27.3906C111.971 25.8181 112.483 23.9464 112.378 22.0577C112.417 20.0911 111.959 18.1464 111.046 16.404C110.133 14.6615 108.796 13.1775 107.157 12.0896C103.943 9.79959 100.076 8.60674 96.1298 8.68797C94.6262 8.58177 93.129 8.39878 91.6441 8.13973H93.401C97.004 8.07049 100.592 8.627 104.005 9.78447C106.502 10.6922 108.648 12.3671 110.135 14.5691C111.705 16.7456 112.551 19.3612 112.552 22.0452C112.523 24.4099 111.833 26.7192 110.559 28.7114V28.8235C112.162 27.7769 112.968 25.5174 112.976 22.0452C113.034 19.0059 111.98 16.0501 110.01 13.7343C107.999 11.4423 105.368 9.78071 102.435 8.94965C99.5998 8.36649 96.7181 8.0412 93.8246 7.97776C89.4636 7.68702 87.0588 7.40458 86.6102 7.13046L87.3329 7.06816L81.7009 6.64452C82.1495 6.15857 84.1307 5.90938 87.6444 5.90938C89.1022 5.90938 90.8965 5.90937 93.0396 6.09627L96.6157 6.22088L85.4016 5.73494L85.2147 5.48574C85.6529 5.27822 86.1264 5.1556 86.6102 5.12438H95.8183C101.013 4.89499 106.138 6.38873 110.397 9.37328C112.444 10.8541 114.092 12.82 115.193 15.0948C116.293 17.3696 116.811 19.882 116.701 22.4065C116.688 25.0066 116.065 27.5672 114.882 29.8826C114.751 29.815 114.606 29.7768 114.459 29.7705C114.097 29.7705 113.698 30.0446 113.213 30.6178C112.727 31.1909 112.328 31.7392 112.241 31.8638C114.455 33.5112 116.398 35.4957 117.997 37.745C119.338 40.1921 119.992 42.956 119.891 45.7443ZM81.4642 16.2762C81.3941 16.6981 81.2942 17.1144 81.1652 17.5222L80.43 7.94036C81.2009 10.6493 81.5498 13.4609 81.4642 16.2762ZM82.0747 24.8861C81.9501 24.45 81.7632 23.7772 81.5265 22.8925L81.7632 22.282C81.9626 23.1292 82.0747 23.528 82.0747 23.6152V24.8861ZM83.8316 61.0204V60.8958C83.8536 60.7427 83.8298 60.5865 83.7633 60.4469C83.6968 60.3072 83.5905 60.1903 83.4578 60.1108V61.0204H83.8316ZM84.6166 61.0204L84.1307 60.8335L83.9438 61.0204H84.6166ZM100.989 60.7712H100.553C100.032 60.824 99.5072 60.8449 98.9831 60.8335C98.4598 60.8335 94.7841 60.6134 87.9559 60.1732C87.6693 60.1732 87.2581 60.1732 86.7099 60.1732L85.6259 60.2354L85.4764 60.223V60.8834L95.4444 61.1949L100.989 60.7712ZM108.864 44.4734C108.864 48.4357 107.248 51.0025 104.017 52.1737C103.164 52.5187 102.266 52.741 101.351 52.8341L99.1825 52.7469C102.484 52.423 104.777 51.8249 106.023 50.9277C107.643 49.7565 108.515 47.6632 108.515 44.6229C108.514 44.1102 108.43 43.601 108.266 43.1153C107.992 46.3383 107.448 48.5396 106.634 49.7191C105.55 51.4137 103.456 52.2111 100.404 52.2111C98.9457 52.2111 98.0611 52.0118 97.7371 51.613C97.2439 51.5239 96.757 51.4032 96.2793 51.2517L94.647 51.9744L94.7716 52.5849C94.4261 52.2622 93.9923 52.0496 93.5256 51.9744V51.613L93.1642 51.2517L92.4914 51.6754L92.7406 52.6472L92.4416 52.3357L92.317 52.5226L91.9556 52.099V51.613L92.317 51.6754V51.5009C92.3122 51.2143 92.2704 50.9295 92.1924 50.6536L91.9556 50.7159V50.0431C92.0238 50.0434 92.0914 50.0294 92.1539 50.002C92.2163 49.9745 92.2723 49.9341 92.3181 49.8836C92.364 49.8331 92.3987 49.7734 92.4199 49.7086C92.4412 49.6438 92.4486 49.5752 92.4416 49.5073C92.4313 49.4119 92.3871 49.3235 92.317 49.2581C91.7936 49.2581 91.532 49.5073 91.532 49.9808C91.5445 50.2372 91.582 50.4917 91.6441 50.7408C91.7039 50.9487 91.7456 51.1613 91.7687 51.3763C91.7979 51.516 91.7979 51.6603 91.7687 51.8C91.3547 51.5027 91.0731 51.0557 90.9837 50.5539C90.8942 50.0147 90.8733 49.4662 90.9214 48.9217C91.0086 47.9498 91.046 47.4389 91.046 47.4015C91.0065 46.4954 90.8856 45.5946 90.6847 44.7102C90.4795 43.8429 90.3543 42.9587 90.3109 42.0686C90.3109 38.9536 91.3035 37.3961 93.2888 37.3961H95.108H96.9272C96.5659 37.3961 95.8681 37.2341 94.8588 37.0223C94.2027 36.8839 93.5355 36.8047 92.8652 36.7855C92.2648 36.8156 91.6987 37.0742 91.2828 37.5082C90.9214 37.9568 90.5352 38.4053 90.1364 38.8414V42.3053C90.1818 42.9276 90.2819 43.5447 90.4355 44.1495C90.6139 44.7894 90.6772 45.456 90.6224 46.1181H90.0741C90.0956 46.7718 90.1748 47.4222 90.3109 48.0619C90.2626 48.4278 90.1396 48.7798 89.9495 49.0961C88.9403 48.8095 88.4419 47.0277 88.4419 43.7507C88.4565 43.3337 88.4939 42.9177 88.554 42.5047C88.6227 42.0925 88.6644 41.6763 88.6786 41.2587C88.6512 40.878 88.5801 40.5018 88.4668 40.1373C88.3573 39.7932 88.2863 39.438 88.255 39.0782C88.255 38.1437 89.501 36.798 92.1301 35.0162C92.3793 35.1076 94.7259 35.4731 99.17 36.1127C101.541 36.36 103.833 37.1029 105.898 38.2932C106.874 38.9894 107.658 39.9212 108.176 41.0018C108.695 42.0825 108.931 43.2767 108.864 44.4734ZM105.836 22.2197C105.836 27.1165 103.344 29.5587 98.4972 29.5587C97.7732 29.5301 97.0582 29.3871 96.379 29.135C98.3553 29.2248 100.334 29.0402 102.26 28.5868C103.21 28.3261 104.032 27.7248 104.567 26.8975C105.102 26.0703 105.315 25.0749 105.163 24.1011V23.0171C104.972 24.6954 104.277 26.2765 103.17 27.5526C101.859 28.5673 100.21 29.0441 98.5595 28.8858C98.0128 28.87 97.4676 28.8201 96.9272 28.7363L95.2825 28.5245C94.9383 28.1342 94.513 27.8238 94.0365 27.6149C93.7953 27.7462 93.5731 27.9097 93.3761 28.1008C93.5446 28.3687 93.6865 28.6525 93.7997 28.9481C93.7125 28.836 93.538 28.5245 93.2515 28.0385L92.5786 28.35C92.8245 28.509 93.0159 28.7394 93.1269 29.0104L92.8278 28.7114V29.0104L92.1051 28.35V27.9762L92.9524 27.6772C92.8278 27.4778 92.6658 27.1912 92.4665 26.8299V27.4404L92.1051 27.0666V26.7053H92.5911C92.4627 26.5329 92.3968 26.322 92.4042 26.1072C92.453 25.7154 92.5321 25.328 92.6409 24.9484L91.8559 25.0107C91.776 25.1377 91.7328 25.2843 91.7313 25.4344C91.7478 25.6707 91.7896 25.9047 91.8559 26.1321C91.9241 26.3378 91.966 26.5514 91.9805 26.7676H91.7064C91.1831 26.7676 90.8965 26.3689 90.8591 25.4344C90.9463 26.9296 90.9837 26.3066 90.9837 23.5529C90.9416 22.807 90.8205 22.0678 90.6224 21.3475C90.4202 20.6445 90.2949 19.9218 90.2486 19.1919C90.314 18.5648 90.5463 17.9667 90.9214 17.4599C91.37 16.7621 91.7687 16.4008 92.1674 16.4008C92.648 16.4164 93.1269 16.4663 93.6003 16.5503C94.0685 16.6438 94.5436 16.6979 95.0208 16.7123C95.7755 16.7165 96.5282 16.6329 97.2636 16.4631C94.5099 16.0644 93.0521 15.8525 92.9026 15.8525C92.2186 15.9255 91.5827 16.2391 91.1083 16.7372C90.8351 16.9308 90.6053 17.1793 90.4336 17.4668C90.262 17.7543 90.1523 18.0745 90.1115 18.4069C90.0421 19.6395 90.207 20.874 90.5975 22.0452V22.3443L90.0492 22.4065C90.0584 22.6824 90.0875 22.9573 90.1364 23.2289C90.1882 23.5169 90.2174 23.8086 90.2237 24.1011V24.5871L89.8499 24.7117C88.9278 23.9765 88.4668 22.6308 88.4668 20.6497C88.4668 18.6685 89.7128 16.6625 92.2796 14.2826L93.3761 13.9835C94.4538 14.3632 95.5691 14.6264 96.7029 14.7685C98.4847 15.0053 99.6186 15.1922 100.105 15.3168C101.712 15.672 103.158 16.548 104.216 17.8088C105.285 19.0271 105.862 20.5993 105.836 22.2197ZM93.7125 50.4169V49.0089H93.3387V49.2456C93.3387 49.445 93.1767 49.6568 92.8652 49.8562C92.5537 50.0555 92.3793 50.2549 92.3793 50.4667C92.8138 50.3468 93.2702 50.3298 93.7125 50.4169ZM94.1984 50.7782V50.4667L92.7406 50.6536L92.9773 51.0773C93.3927 51.0155 93.8015 50.9154 94.1984 50.7782ZM94.3729 26.9545C94.1546 26.2202 93.9922 25.4705 93.8869 24.7117L93.7125 25.4967C93.819 25.637 93.8799 25.8066 93.8869 25.9826C93.8869 26.3813 93.6253 26.5682 93.1019 26.5309L93.6502 26.7676C93.4383 27.0237 93.2137 27.2691 92.9773 27.5027L93.2888 27.6149C93.6867 27.4612 94.0538 27.2375 94.3729 26.9545ZM104.341 45.383C104.383 44.9449 104.323 44.503 104.165 44.0922C104.007 43.6813 103.756 43.3128 103.431 43.0156C102.709 42.5296 101.998 42.0437 101.313 41.5578C99.8653 41.3937 98.4092 41.3147 96.9521 41.321C96.7851 41.3261 96.6194 41.2901 96.4695 41.2162C96.3196 41.1424 96.1901 41.0329 96.0924 40.8974C95.8698 40.632 95.6698 40.3486 95.4943 40.0501V41.6201C97.0963 41.6121 98.6963 41.733 100.279 41.9814L100.404 42.2306L95.4195 41.9191V49.0089H94.1735C94.2112 49.4525 94.2112 49.8985 94.1735 50.3421H94.7716C94.9739 50.3106 95.1777 50.2898 95.3821 50.2798C95.4315 50.271 95.4823 50.2743 95.5302 50.2893C95.5781 50.3044 95.6216 50.3307 95.6571 50.3662C95.6926 50.4017 95.719 50.4452 95.734 50.4931C95.749 50.541 95.7523 50.5918 95.7435 50.6412C95.5441 50.9651 95.0956 51.0897 94.4103 51.0025V51.4262H94.7218C95.4329 51.4332 96.1213 51.1756 96.6531 50.7035C98.0735 50.7035 99.4192 50.7035 100.715 50.5166H100.167C99.237 50.5593 98.3054 50.5008 97.3882 50.3421L97.2013 50.0306C98.1071 49.637 99.0707 49.393 100.055 49.3079C101.089 49.2218 102.096 48.934 103.02 48.4606C103.489 48.1082 103.856 47.6377 104.084 47.0969C104.312 46.5562 104.392 45.9648 104.316 45.383H104.341ZM94.6221 39.0408C94.4939 39.2086 94.3891 39.393 94.3106 39.5891L94.4975 39.5267L94.6221 39.0408ZM101.101 23.1542C100.839 22.2746 100.416 21.451 99.8553 20.7244C99.3219 20.6316 98.7937 20.511 98.2729 20.3631H95.3074V20.7867C96.6106 20.7136 97.9173 20.8396 99.1825 21.1605L99.3694 21.335L99.008 21.3973C98.4894 21.1747 97.9271 21.0725 97.3633 21.0983C97.0426 21.1012 96.7223 21.122 96.4039 21.1605H95.4444V23.5778C95.4444 23.2538 95.569 24.0388 95.8058 25.9452H98.1109C99.0214 25.6842 99.9124 25.3594 100.777 24.9733C100.999 24.4058 101.109 23.8008 101.101 23.1915V23.1542ZM100.678 38.2434H97.4007C97.8119 38.2434 98.6467 38.3181 100.08 38.4801L100.678 38.2434ZM100.428 17.8586C99.8578 17.5735 99.2425 17.3881 98.6093 17.3104H97.5751C98.0493 17.331 98.5186 17.4148 98.9707 17.5596C99.6601 17.6842 100.146 17.7839 100.428 17.8586ZM101.674 20.712C101.6 20.388 101.189 20.0267 100.428 19.6155H99.8802C100.468 19.9284 101.038 20.2737 101.587 20.6497L101.674 20.712ZM103.431 41.321C102.928 40.8531 102.328 40.5002 101.674 40.2868H100.428C101.089 40.4862 102.048 40.8101 103.344 41.2587L103.431 41.321ZM104.042 23.3162V22.8427C104.023 22.3623 103.973 21.8837 103.892 21.4098C103.789 21.026 103.611 20.6662 103.369 20.3506C103.733 21.2765 103.931 22.2592 103.955 23.2538L104.042 23.3162ZM111.805 36.2871C109.661 34.7919 108.328 34.0443 107.805 34.0443H107.68L111.805 36.2871ZM109.562 33.4338L108.827 33.197V33.5584L109.25 33.683L109.562 33.4338ZM116.34 41.1964C115.958 39.5662 115.208 38.045 114.148 36.7492C113.087 35.4534 111.745 34.4174 110.222 33.7203L109.674 34.0817C111.251 34.7503 112.669 35.7438 113.836 36.9973C114.97 38.1558 115.801 39.5769 116.253 41.1341L116.34 41.1964ZM113.138 30.1069H110.098C110.745 30.5929 111.344 31.0539 112.041 31.5024C112.438 31.0612 112.777 30.5713 113.051 30.0446L113.138 30.1069ZM118.707 45.9935C117.947 50.9153 116.502 54.6533 114.409 57.2076C115.878 55.7573 116.962 53.9627 117.561 51.9869C118.259 50.044 118.617 47.9956 118.62 45.9312L118.707 45.9935ZM117.013 47.0153V44.0248C116.889 46.603 116.505 49.1621 115.867 51.6629C116.347 50.1242 116.701 48.5491 116.926 46.953L117.013 47.0153Z" fill="#D7D7D7"/>
<path d="M155.726 63.2009L153.596 65.3191H145.783L144.45 63.961C142.706 65.5808 140.126 66.3907 136.687 66.3907C131.521 66.3907 127.459 64.775 124.501 61.5437C121.677 58.4287 120.265 54.3044 120.265 49.1708V38.6296C120.265 34.1855 120.265 30.6883 120.265 28.1382L120.452 27.5899C120.003 27.9139 119.762 30.3187 119.729 34.8043V27.9513L121.386 26.319C121.828 25.824 122.444 25.5202 123.106 25.4717C123.667 25.4717 124.576 25.4717 125.822 25.3845C127.068 25.2973 128.015 25.2848 128.651 25.2848C129.542 25.224 130.427 25.4848 131.143 26.02L133.074 27.9513C133.074 29.135 133.074 30.6676 133.074 32.5615V46.8906C133.074 51.3347 134.631 53.5609 137.746 53.5693C140.849 53.5693 142.394 51.5382 142.344 47.5012L142.17 31.8638C142.1 31.1381 142.225 30.4069 142.531 29.7455C142.866 30.7642 143.05 31.8261 143.079 32.8979C143.154 34.0194 143.241 35.1532 143.316 36.2871C143.403 35.7637 143.503 34.4056 143.628 32.2251C143.74 29.7954 143.777 28.4871 143.74 28.1631C144.064 27.7145 144.55 27.1164 145.198 26.3439H151.802C151.259 26.5623 150.689 26.7049 150.107 26.7676C149.658 26.7676 149.073 26.7676 148.35 26.7676H146.593C145.459 26.7676 144.737 27.0666 144.413 27.6772V27.864L144.948 27.2535C149.683 26.9295 152.516 26.8091 153.446 26.8922C151.943 27.1432 150.422 27.2641 148.898 27.2535C147.613 27.2208 146.329 27.3421 145.073 27.6149L144.587 28.1008C144.587 28.512 144.487 29.1101 144.413 29.92C144.413 29.596 144.288 29.0976 144.163 28.4123C143.971 28.7453 143.848 29.1142 143.802 29.4963C143.859 31.093 144.03 32.6836 144.313 34.2561C144.605 35.8276 144.78 37.4185 144.836 39.0158C144.836 39.7011 144.836 40.8724 144.774 42.5296C144.712 44.1868 144.674 45.1961 144.774 46.0433V46.5168L145.385 45.7941V37.4334L145.983 45.2459C145.983 53.1705 143.113 57.1328 137.373 57.1328C136.157 57.1939 134.945 56.9419 133.854 56.4008C132.764 55.8598 131.83 55.0479 131.143 54.0427C129.822 51.9433 129.206 49.4767 129.386 47.0028L129.747 30.5181H128.302C128.083 31.1811 127.978 31.876 127.99 32.574C128.05 34.4188 128.254 36.2561 128.601 38.0689C128.941 39.8785 129.146 41.7111 129.211 43.5513C129.065 46.6184 129.41 49.6891 130.233 52.6472C130.688 54.092 131.62 55.3398 132.876 56.1863C134.132 57.0328 135.638 57.428 137.148 57.3073C137.839 57.2639 138.526 57.1723 139.204 57.0332C140.263 56.8587 140.849 56.759 140.961 56.759L140.849 57.0705H140.961C141.497 57.0705 142.207 56.5846 143.266 55.6127C144.021 54.9896 144.623 54.2008 145.023 53.3076C145.43 52.0948 145.978 50.1136 146.668 47.3641C146.844 47.8725 146.924 48.409 146.905 48.9465C147.047 51.5656 146.152 54.1353 144.413 56.0987C143.493 57.0104 142.393 57.7189 141.182 58.1782C139.972 58.6376 138.678 58.8375 137.385 58.7651C133.211 58.7651 130.47 56.921 129.137 53.2453C128.397 51.1935 128.032 47.6175 128.04 42.5171C128.04 41.7446 128.04 40.5609 128.04 38.9411C128.04 37.3213 128.04 36.1126 128.04 35.3027C127.988 34.4509 127.812 33.6113 127.517 32.8107C127.28 31.9668 126.923 31.1612 126.458 30.4184C126.059 30.4184 125.448 30.4184 124.638 30.2938L124.339 48.3609C124.229 50.6034 124.452 52.8498 125 55.0271C125.837 57.5052 127.57 59.5808 129.859 60.8459C132.056 62.2242 134.593 62.9621 137.186 62.9766C138.748 63.0679 140.309 62.7771 141.734 62.1293C142.941 61.1811 144.04 60.1031 145.011 58.9146L147.067 59.4504C147.042 59.5744 147.042 59.7022 147.069 59.8259C147.096 59.9496 147.147 60.0664 147.221 60.1693C147.294 60.2721 147.388 60.3587 147.497 60.4237C147.605 60.4887 147.726 60.5306 147.852 60.5469C147.819 60.799 147.732 61.041 147.596 61.2561C147.46 61.4713 147.28 61.6544 147.067 61.7929V62.1667C149.01 62.3162 150.805 62.4035 152.524 62.4035L153.496 38.7293L153.072 62.4035H153.247C153.522 61.4384 153.669 60.4413 153.683 59.438C153.795 57.6935 153.857 56.5846 153.857 56.0987L153.982 36.636C153.982 35.9133 154.107 34.8168 154.219 33.3714H154.343C154.588 32.011 154.688 30.6286 154.642 29.2471C154.62 28.8321 154.62 28.4161 154.642 28.0011C155.06 29.3129 155.246 30.6875 155.191 32.0631C155.191 33.6331 155.191 35.8011 155.191 38.4178C155.191 41.6574 155.128 43.2149 155.128 43.0903L155.44 32.1129L155.677 32.0008C155.771 32.3178 155.834 32.6433 155.864 32.9727L155.726 63.2009ZM121.835 54.6533C121.412 50.3636 121.208 46.0551 121.224 41.7446V50.1053C121.299 51.6359 121.503 53.1573 121.835 54.6533ZM122.807 53.5693L122.508 46.7162V50.4542L122.807 53.5693ZM132.825 28.1631C132.13 27.0994 131.201 26.2086 130.108 25.5589H126.707L125.623 25.7957C129.361 26.319 131.654 27.1164 132.588 28.1631C132.675 30.9915 132.688 34.5053 132.588 38.7168L132.825 28.1631ZM144.163 60.1108C142.307 62.3785 139.441 63.4626 135.554 63.3878C135.829 63.3882 136.104 63.409 136.376 63.4501C136.629 63.463 136.883 63.463 137.136 63.4501C139.765 63.4501 141.659 62.9143 142.83 61.8178C143.204 61.3628 143.621 60.9454 144.076 60.5718L144.163 60.1108ZM150.394 62.6028C150 62.5338 149.613 62.4338 149.235 62.3038H146.93L147.054 62.4907C147.96 62.5937 148.872 62.6312 149.783 62.6028H150.394Z" fill="#D7D7D7"/>
<path d="M178.641 28.1007C178.564 29.6847 178.296 31.2535 177.843 32.7733C177.287 34.9912 176.664 36.3244 175.974 36.773C174.369 36.7961 172.818 37.3627 171.576 38.3803C170.645 39.6489 170.203 41.2105 170.33 42.7787C170.33 43.3394 170.23 44.4733 170.155 46.1679C170.043 47.2772 170.001 48.3926 170.031 49.5072L170.33 59.3881C170.493 61.215 169.998 63.0401 168.934 64.5341L168.822 64.9577C169.19 64.7332 169.532 64.4701 169.844 64.1727C170.292 63.7616 170.517 63.4874 170.517 63.3255L170.629 51.6877L170.753 63.3255C170.026 64.5495 168.979 65.553 167.726 66.2287L167.601 66.0542H159.726C158.912 65.5106 158.16 64.8797 157.483 64.1727C156.955 63.3662 156.718 62.4036 156.811 61.444L156.997 49.258C156.997 48.012 156.935 46.0308 156.811 43.4391C156.686 40.8474 156.636 38.9161 156.636 37.6203C156.56 36.1834 156.635 34.7426 156.86 33.3215L157.159 33.5583C157.825 36.838 158.135 40.1801 158.082 43.5264C158.192 43.2585 158.235 42.9674 158.206 42.6791C158.206 41.296 158.131 38.941 157.969 35.527C157.758 32.4867 157.683 30.1068 157.72 28.3749C158.154 29.0168 158.368 29.7817 158.331 30.5554C158.331 32.0506 158.268 32.8107 158.268 32.8605C158.268 33.2218 158.53 34.6548 158.929 37.1592C159.191 38.578 159.336 40.0156 159.365 41.458V43.1027L159.739 42.7414C159.853 42.4304 159.908 42.1007 159.901 41.7695C159.901 41.3209 159.863 40.673 159.789 39.8257C159.701 38.9784 159.664 38.3305 159.664 37.8819H159.888C160.179 38.871 160.346 39.8921 160.387 40.9222C160.387 41.8068 160.387 42.9407 160.387 44.3113V47.4015C160.387 48.6475 160.474 50.8031 160.636 53.9555C160.748 56.6967 160.798 58.8647 160.748 60.4347L160.873 60.497L160.935 60.4347C160.935 60.036 160.997 59.3258 160.997 58.3165C160.997 57.3072 160.935 55.9491 160.81 54.0053C160.686 52.0615 160.636 50.6161 160.636 49.6443L160.997 49.7066C160.997 49.258 160.997 48.6101 160.935 47.7379C160.873 46.8657 160.873 46.2177 160.873 45.7692C160.831 45.0043 160.955 44.2395 161.234 43.5264C162.173 45.4618 162.497 51.1395 162.206 60.5593C163.44 60.7814 164.69 60.9022 165.944 60.9207L166.243 44.9219C166.281 42.9986 166.527 41.0852 166.978 39.2152C167.392 37.6298 168.316 36.2245 169.607 35.2155C170.782 34.1082 172.329 33.4813 173.943 33.4586H174.305C174.791 33.4586 175.04 32.549 175.04 30.7298C175.04 29.5586 174.952 28.3873 174.915 27.2161H174.242C173.395 27.2321 172.555 27.3749 171.75 27.6397C170.922 27.8492 170.195 28.3432 169.694 29.0353V30.6177L169.208 30.5554V31.0413H168.411C168.411 31.0413 167.913 30.9416 167.028 30.7298L166.966 30.2439C166.068 29.7704 165.607 29.5212 165.57 29.5212C166.006 28.8733 166.455 28.2752 166.903 27.702L165.869 27.5276H166.467C166.903 27.5276 167.19 27.5276 167.314 27.2784C165.704 27.1802 164.101 26.9762 162.517 26.6678H163.003C162.193 26.6678 161.01 26.5183 159.427 26.3563L159.975 25.9327H167.377C166.48 25.7369 165.566 25.6367 164.648 25.6336C163.066 25.6336 162.156 25.6336 161.795 25.5713V25.3844C162.424 25.1879 163.079 25.0871 163.738 25.0854H167.377L168.523 26.2317C169.894 24.7864 172.348 24.0512 175.862 24.0512C176.561 24.5966 177.227 25.1833 177.856 25.8081C178.381 26.455 178.659 27.2676 178.641 28.1007ZM159.116 32.6487L158.842 33.4337L158.206 27.2036C158.759 28.9681 159.065 30.8004 159.116 32.6487ZM167.601 65.5683C166.962 65.7199 166.312 65.8199 165.657 65.8673L160.15 65.5683H167.601ZM169.183 52.1737V44.9593C169.01 47.3609 169.01 49.772 169.183 52.1737ZM174.94 26.6429H174.205C173.374 26.6868 172.556 26.8722 171.788 27.1912C170.984 27.4134 170.254 27.8431 169.669 28.4372C170.857 27.567 172.264 27.045 173.731 26.9295C174.149 26.9141 174.56 26.8167 174.94 26.6429ZM174.753 33.795H174.205C173.168 33.9469 172.165 34.2757 171.239 34.7669C172.373 34.3201 173.551 33.9944 174.753 33.795Z" fill="#D7D7D7"/>
<path d="M214.463 60.2229C214.553 63.0341 214.024 65.8306 212.912 68.4144C211.801 70.9983 210.136 73.3063 208.034 75.175C203.815 78.9586 198.298 80.9673 192.633 80.7821C188.74 80.7795 184.954 79.5016 181.855 77.1437C178.635 74.8451 176.147 71.6648 174.691 67.9856C175.054 67.2896 175.47 66.6231 175.937 65.992C176.187 65.6863 176.506 65.4445 176.867 65.2864C177.229 65.1282 177.623 65.0583 178.018 65.0824L183.749 65.4437L183.512 65.207C180.527 63.1207 178.011 60.4343 176.124 57.3197C174.406 54.0945 173.548 50.4814 173.632 46.8283C173.604 44.1394 174.121 41.4728 175.151 38.9889C176.181 36.505 177.703 34.2551 179.625 32.3746C181.47 30.4227 183.698 28.8738 186.171 27.8252C188.643 26.7766 191.306 26.251 193.991 26.2816C197.543 26.2784 201.003 27.4042 203.872 29.4963C204.321 29.4215 204.582 29.0727 204.67 28.4621H210.239C208.57 28.8199 206.86 28.954 205.156 28.8608L204.545 29.1474V29.2596L212.308 29.0104C209.874 29.1765 207.203 29.5005 204.296 29.9822C205.471 30.9057 206.389 32.1156 206.962 33.496C205.971 34.2547 204.806 34.7556 203.573 34.9538L203.449 34.7669L203.087 34.9538L202.851 34.7669L201.879 34.9538L202.178 34.2311L202.414 34.6548H202.664C203.15 34.6548 203.386 34.0443 203.386 32.8356C203.386 32.1503 202.664 31.4401 201.206 30.7049L201.031 30.5928V30.7049C200.111 30.2681 199.127 29.9821 198.116 29.8577L198.477 30.1069C197.578 29.9195 196.665 29.7987 195.748 29.7455C191.04 29.5731 186.422 31.074 182.715 33.9819C180.899 35.4643 179.451 37.3473 178.485 39.4832C177.518 41.6191 177.06 43.9498 177.145 46.2925C177.067 50.9527 178.658 55.4872 181.631 59.0766C183.032 60.9069 184.84 62.3857 186.912 63.3957C188.984 64.4057 191.263 64.9192 193.568 64.8955C195.101 64.8789 196.62 64.5921 198.053 64.0482C199.52 63.6675 200.807 62.7859 201.692 61.5562C199.475 63.5752 196.565 64.66 193.568 64.584C191.325 64.5902 189.111 64.0838 187.094 63.1033C185.077 62.1229 183.311 60.6945 181.93 58.9271C178.998 55.4993 177.405 51.1269 177.444 46.6165C177.276 43.6103 178.061 40.6279 179.687 38.0938L179.812 38.642C180.74 36.9904 181.95 35.5144 183.388 34.281C185.365 32.412 186.922 31.5813 188.06 31.789L187.873 32.1005C181.818 35.8468 178.786 40.8308 178.778 47.0526C178.778 53.698 181.407 58.3871 186.665 61.1201C188.916 62.4498 191.446 63.2389 194.054 63.4252C197.368 63.4252 200.346 61.8053 202.963 58.5782L206.85 60.2728V60.6964C206.85 60.821 206.564 61.9424 206.003 63.9734C205.353 66.597 203.767 68.8926 201.542 70.4278C199.285 71.9585 196.606 72.7468 193.879 72.683C192.228 72.7162 190.59 72.3844 189.082 71.7111C187.658 70.9641 186.281 70.132 184.958 69.2191L179.388 69.0945L179.326 69.2191C180.682 71.9075 182.903 74.0621 185.631 75.337C188.244 76.7966 191.185 77.5683 194.178 77.5798C198.269 77.5615 202.217 76.076 205.305 73.3933C208.508 70.902 210.643 67.2843 211.274 63.2756C211.718 59.838 211.938 56.3751 211.934 52.9088C211.984 49.4699 212.025 46.0142 212.059 42.542L211.884 60.4846C211.867 62.79 211.369 65.0664 210.423 67.1688C209.477 69.2712 208.103 71.1534 206.389 72.6955C203.05 75.9658 198.553 77.7841 193.879 77.7543C191.554 77.7246 189.253 77.2728 187.088 76.4211H186.839C189.141 77.6293 191.718 78.2135 194.315 78.1156C198.39 78.1131 202.329 76.6498 205.417 73.9913C208.629 71.4655 210.838 67.879 211.647 63.8737C211.86 62.8127 212.001 61.7388 212.071 60.659C212.071 56.5721 212.158 52.4977 212.196 48.4108C212.185 44.3188 212.405 40.2295 212.856 36.1625H212.981C213.206 35.2504 213.286 34.3084 213.217 33.3714C213.181 32.2609 213.222 31.1492 213.342 30.0446C213.699 31.5924 213.863 33.1787 213.828 34.7669C213.828 36.5861 213.828 39.0408 213.828 42.1059V47.5012L214.127 34.7046H214.364C214.459 35 214.522 35.3051 214.551 35.6142L214.463 60.2229ZM207.249 47.3018C207.298 48.9415 207.023 50.5748 206.439 52.1079C205.855 53.6411 204.975 55.0438 203.847 56.2357C202.716 57.4186 201.348 58.3487 199.832 58.9651C198.315 59.5814 196.686 59.8699 195.051 59.8117C193.468 59.8742 191.892 59.5949 190.427 58.9928C188.963 58.3908 187.646 57.4801 186.565 56.3229C184.39 53.9105 183.237 50.7474 183.35 47.5012C183.318 45.289 183.952 43.1183 185.17 41.2711C186.415 39.4541 188.295 38.1693 190.44 37.6701C188.456 38.5363 186.696 39.8448 185.294 41.4954C184.061 43.2671 183.444 45.3945 183.537 47.551C183.44 49.4504 183.872 51.3394 184.783 53.0085C184.783 53.0085 184.609 52.2111 184.272 50.7283C183.999 49.7301 183.824 48.7077 183.749 47.6756C183.748 45.2234 184.569 42.8415 186.079 40.9098C186.727 39.9711 187.592 39.2031 188.601 38.6715C189.61 38.1399 190.733 37.8605 191.873 37.857L194.178 38.0938C194.724 37.9121 195.298 37.8318 195.873 37.857C196.431 37.8279 196.99 37.9083 197.518 38.0938H195.512C193.578 38.1587 191.686 38.6796 189.992 39.6139H190.116C190.872 39.2846 191.668 39.0583 192.484 38.9411L193.144 39.0034L192.907 39.3024C188.584 40.6107 186.416 43.2398 186.416 47.2146C186.371 49.4628 187.197 51.6412 188.721 53.2951C189.412 54.1556 190.289 54.8489 191.286 55.3235C192.283 55.7981 193.373 56.0418 194.477 56.0363C196.011 55.969 197.503 55.5147 198.813 54.7156C200.408 53.8309 201.231 52.8839 201.305 51.8497C199.486 54.3418 197.343 55.5878 194.876 55.5878C194.388 55.5575 193.903 55.4782 193.431 55.351H194.153C195.186 55.4325 196.223 55.2923 197.197 54.9399C198.171 54.5875 199.058 54.0309 199.799 53.3076C200.54 52.5843 201.118 51.7109 201.494 50.746C201.87 49.7811 202.035 48.747 201.978 47.713C202.064 46.1023 201.627 44.5069 200.732 43.165C199.628 41.9496 198.316 40.9412 196.857 40.1871C197.057 39.913 197.256 39.7634 197.468 39.7634C198.25 39.8201 199.009 40.0509 199.69 40.4389C200.372 40.827 200.958 41.3625 201.405 42.0063V41.8941C200.588 40.9016 199.552 40.1125 198.377 39.589C197.181 39.1278 195.92 38.8587 194.639 38.7916C194.739 38.6651 194.869 38.5657 195.017 38.5025C195.165 38.4394 195.326 38.4145 195.487 38.4302C196.175 38.4445 196.862 38.507 197.543 38.6171C198.602 38.7417 199.287 38.7916 199.611 38.7916L199.187 38.6171C199.37 38.6119 199.553 38.6472 199.721 38.7204C199.889 38.7936 200.038 38.903 200.159 39.0407L199.611 38.9161C200.163 39.1071 200.67 39.4106 201.099 39.8074C201.528 40.2041 201.87 40.6856 202.103 41.2213L202.414 40.673C202.331 40.3491 201.584 39.6638 200.172 38.6171C201.779 38.8165 203.162 40.1248 204.283 42.5545C205.172 44.3895 205.649 46.3969 205.679 48.4357C205.578 50.4165 204.835 52.3106 203.561 53.8309C202.372 55.3933 200.891 56.7095 199.2 57.706L199.137 57.8929C201.135 57.1313 202.85 55.7758 204.053 54.0091C205.256 52.2424 205.889 50.1493 205.866 48.012C205.837 47.3756 205.737 46.7445 205.567 46.1306C205.391 45.5386 205.287 44.9279 205.255 44.3114V43.95L205.505 44.0123L203.847 40.2868H204.146C204.919 40.2868 205.667 41.2836 206.389 43.2647C206.887 44.561 207.177 45.9276 207.249 47.3143V47.3018ZM195.487 69.5555H195.25L193.73 69.6178C191.303 69.635 188.961 68.7208 187.188 67.0635C187.987 67.9377 188.962 68.6329 190.048 69.1032C191.135 69.5735 192.309 69.8084 193.493 69.7923L195.487 69.5555ZM203.424 30.7548C201.405 28.5369 198.336 27.4279 194.216 27.4279C191.85 27.4655 189.51 27.9167 187.3 28.7612L187.487 28.8235C189.585 28.0539 191.795 27.633 194.029 27.5775C197.443 27.4724 200.779 28.6053 203.424 30.7672V30.7548ZM199.686 29.8452C197.8 29.1553 195.812 28.7888 193.804 28.7612C191.948 28.8895 190.103 29.1519 188.285 29.5462L189.194 29.8452C190.032 29.8131 190.865 29.7131 191.686 29.5462C192.508 29.3799 193.341 29.2799 194.178 29.2471C195.504 29.266 196.825 29.4289 198.116 29.733L197.991 29.4839C198.559 29.5726 199.121 29.6974 199.673 29.8577L199.686 29.8452ZM198.103 67.0635C196.631 67.5209 195.097 67.7479 193.555 67.7364C192.023 67.6851 190.501 67.4593 189.02 67.0635C190.509 67.6282 192.087 67.9194 193.68 67.9233C195.198 68.0216 196.717 67.73 198.091 67.076L198.103 67.0635ZM198.838 67.4373C197.404 67.9009 195.919 68.1855 194.415 68.2846C193.015 68.3046 191.616 68.2213 190.228 68.0354C191.269 68.5322 192.403 68.8039 193.555 68.8329C195.413 68.8279 197.239 68.3521 198.863 67.4498L198.838 67.4373ZM203.561 65.6805C202.83 66.9913 201.813 68.1203 200.586 68.9833C199.358 69.8463 197.952 70.421 196.471 70.6645H196.895C198.289 70.5127 199.599 69.9189 200.633 68.9699C201.843 68.116 202.841 66.9947 203.548 65.6929L203.561 65.6805Z" fill="#D7D7D7"/>
<path d="M256.952 45.8688C257.047 46.9817 256.818 48.0982 256.292 49.0835C255.554 49.845 254.763 50.5529 253.925 51.2017C254.859 52.5723 255.32 53.2826 255.32 53.32C255.32 54.0925 254.269 55.6292 252.168 57.9302C250.855 59.4246 249.417 60.8044 247.869 62.0545C244.35 64.5174 240.152 65.8238 235.857 65.7925C231.691 65.8524 227.615 64.5823 224.22 62.1666C220.831 59.72 218.187 56.3816 216.582 52.5225C215.733 50.0053 215.365 47.3508 215.498 44.6976C215.385 41.8278 215.901 38.9681 217.01 36.3187C218.118 33.6692 219.792 31.294 221.915 29.3592C226.269 25.5592 231.9 23.5473 237.677 23.7272C237.316 23.7037 236.954 23.7037 236.593 23.7272C230.163 23.7272 225.071 25.6876 221.317 29.6084C217.786 33.2467 215.643 38.318 214.887 44.8222V44.0247C214.798 41.3092 215.297 38.6065 216.348 36.1012C217.4 33.596 218.98 31.3473 220.98 29.5087C222.894 27.5277 225.188 25.9545 227.726 24.8838C230.263 23.8132 232.991 23.2671 235.745 23.2786C238.656 23.1844 241.552 23.7264 244.231 24.8671C246.911 26.0077 249.309 27.7193 251.258 29.8825C255.115 34.2965 257.15 40.0108 256.952 45.8688ZM219.31 55.3759C217.215 51.6479 216.189 47.4138 216.345 43.14L216.283 46.8781C216.383 48.4193 216.732 49.9342 217.317 51.3637C217.699 52.8237 218.378 54.1894 219.31 55.3759ZM251.981 45.495C251.943 42.2017 251.022 38.9789 249.314 36.1624C247.814 33.201 245.297 30.8789 242.225 29.6208C239.838 28.8602 237.339 28.5105 234.836 28.5866C232.714 28.5377 230.609 28.9593 228.67 29.8211C226.731 30.6828 225.007 31.9634 223.622 33.5707C220.809 36.7618 219.297 40.893 219.385 45.1461C219.361 47.3942 219.789 49.6241 220.646 51.7029C221.502 53.7816 222.768 55.6664 224.369 57.2449C225.908 58.8693 227.766 60.1575 229.827 61.0281C231.887 61.8988 234.106 62.3331 236.343 62.3037C239.469 62.3258 242.536 61.4617 245.19 59.8117C247.899 58.1477 250.152 55.8353 251.744 53.0832L243.857 52.8963C242.552 53.7484 241.195 54.5183 239.795 55.2014C238.349 55.5584 236.859 55.7011 235.372 55.6251C234.691 55.6234 234.016 55.5011 233.378 55.2637C234.249 55.2597 235.119 55.318 235.982 55.4382C239.62 55.4382 242.229 54.4497 243.807 52.4727C242.673 53.0832 241.564 53.7187 240.493 54.2919C239.233 54.9453 237.824 55.2588 236.406 55.2014C235.071 55.2738 233.737 55.0384 232.508 54.5134C231.279 53.9884 230.187 53.1878 229.316 52.1736H229.615C228.828 51.3948 228.172 50.4945 227.671 49.5072C227.396 49.586 227.111 49.6279 226.824 49.6318H226.4V49.5695L227.559 49.2704C227.42 49.0299 227.335 48.7621 227.31 48.4854C227.291 48.3657 227.291 48.2438 227.31 48.1241C227.634 48.2362 227.895 48.61 228.095 49.2081C232.306 49.0088 234.562 48.9091 234.886 48.9091C235.26 48.8961 235.633 48.9598 235.982 49.096L228.344 49.5196L228.469 49.7564H228.83C229.677 49.7564 230.761 49.7564 232.095 49.7564C233.839 49.6692 234.923 49.6318 235.372 49.6318L239.259 49.0337C241.683 48.6687 244.135 48.5228 246.586 48.5976L251.744 48.7845L251.009 48.1739C249.921 48.0992 247.254 48.0992 243.01 48.1739L243.259 47.9995C246.648 47.5883 248.828 47.3889 249.8 47.3889C250.471 47.3806 251.142 47.4222 251.806 47.5136C251.854 47.1831 251.883 46.8504 251.894 46.5167C251.981 46.0931 251.981 45.7442 251.981 45.495ZM253.563 44.4733C253.39 39.816 251.463 35.3964 248.167 32.101C244.872 28.8056 240.452 26.8781 235.795 26.7052C233.599 26.6566 231.416 27.0621 229.383 27.8961C227.351 28.7301 225.512 29.9748 223.983 31.5522C226.924 28.6448 230.903 27.1911 235.92 27.1911C238.629 27.1825 241.3 27.8282 243.706 29.0734C246.111 30.3186 248.181 32.1265 249.738 34.3432C250.469 35.3009 251.12 36.3178 251.682 37.3835C252.318 38.3738 252.743 39.4854 252.928 40.648L252.866 40.8972L252.629 40.7726V41.0717C252.647 41.7737 252.718 42.4734 252.841 43.165C252.957 43.8155 253.028 44.4733 253.052 45.1337C253.055 45.6053 252.992 46.0749 252.866 46.5292H253.476C253.55 45.8465 253.579 45.1598 253.563 44.4733ZM245.801 39.6761C245.692 39.8368 245.548 39.97 245.379 40.0651C245.211 40.1603 245.022 40.2148 244.829 40.2244C244.788 40.5888 244.788 40.9565 244.829 41.3209C244.698 41.3249 244.57 41.2798 244.471 41.1945C244.372 41.1091 244.308 40.9898 244.293 40.8599C244.206 40.5608 244.069 40.4113 243.857 40.4113L243.682 40.8349C243.353 40.5796 243.066 40.2724 242.835 39.9254C242.486 40.1563 242.119 40.3604 241.739 40.5359H241.988L241.676 40.9097L241.253 40.7851L241.739 40.5982H239.247C239.321 41.0094 239.409 41.2087 239.483 41.2087C239.558 41.2087 240.331 41.1464 241.303 41.0218L241.427 41.271C240.24 41.5784 239.013 41.7003 237.789 41.6324C236.952 41.658 236.119 41.7497 235.297 41.9065C234.498 42.0543 233.691 42.1459 232.88 42.1806C232.108 42.154 231.338 42.0833 230.574 41.9688C229.791 41.8458 229 41.7751 228.207 41.757C227.54 41.7369 226.873 41.7745 226.213 41.8691C227.653 42.1296 229.112 42.2713 230.574 42.2928C231.256 42.2928 232.265 42.2429 233.602 42.1433C234.935 42.0436 235.932 41.9937 236.58 41.9937L236.456 42.2928C236.729 42.3071 237.004 42.3071 237.278 42.2928C237.546 42.2522 237.817 42.2314 238.088 42.2305C238.433 42.2371 238.77 42.3407 239.06 42.5295C238.736 43.1774 237.689 43.5388 235.907 43.626C237.004 43.5388 235.833 43.5014 232.394 43.5014C232.024 43.5171 231.657 43.5672 231.297 43.6509C230.941 43.7338 230.578 43.7838 230.213 43.8004C229.529 43.7725 228.849 43.6807 228.182 43.5263C227.272 43.3519 226.612 43.2397 226.213 43.2023L223.971 40.1621C224.943 37.9637 226.466 36.0538 228.394 34.6173C230.393 33.3872 232.716 32.788 235.06 32.8979C239.903 32.8979 243.155 34.7336 244.816 38.4052C242.474 34.8915 239.504 33.1346 235.907 33.1346C235.237 33.1017 234.566 33.1647 233.914 33.3215C236.088 33.4267 238.242 33.7906 240.331 34.4055C242.303 35.4169 243.852 37.0945 244.704 39.1404H245.365C245.155 39.3595 244.971 39.602 244.816 39.863C245.152 39.8493 245.483 39.7863 245.801 39.6761ZM227.733 37.4956C227.367 37.7009 227.055 37.9915 226.824 38.3429H227.198L227.733 37.4956ZM231.011 36.586H230.649C230.263 36.7139 229.907 36.9205 229.605 37.1929C229.302 37.4653 229.06 37.7975 228.892 38.1685C229.515 37.5278 230.229 36.9821 231.011 36.5487V36.586ZM243.62 49.9806L228.892 50.2298C230.296 52.7219 232.863 53.9347 236.593 53.8682H237.191C233.353 53.8682 230.77 52.7551 229.441 50.5289V50.4168L232.481 52.1985C233.531 52.7977 234.723 53.1032 235.932 53.0832C237.87 53.2003 239.785 52.6165 241.327 51.4385C239.567 51.4793 237.806 51.4002 236.057 51.2017L235.87 51.0148C237.042 50.6105 238.269 50.3878 239.508 50.3545C240.754 50.3545 242 50.2548 243.246 50.1675L243.62 49.9806ZM241.253 37.9816C239.752 36.9013 237.955 36.3096 236.107 36.287C235.006 36.2904 233.919 36.5283 232.917 36.9848C231.895 37.4458 230.873 37.9068 229.864 38.3429H236.655L241.253 37.9816ZM252.292 53.0832H251.931C250.313 56.0356 247.894 58.4714 244.953 60.1107C242.1 61.9265 238.748 62.7984 235.372 62.6027C235.917 62.6778 236.466 62.7194 237.016 62.7273C240.215 62.6956 243.335 61.7251 245.988 59.9363C248.656 58.2471 250.831 55.883 252.292 53.0832ZM242.474 39.3148L242.349 39.0158H241.988C241.494 39.0331 241.004 39.1126 240.53 39.2525C239.72 39.4145 239.284 39.5142 239.072 39.564H240.318C240.443 39.564 241.228 39.4768 242.474 39.3148ZM243.558 48.5353C242.424 48.6474 241.577 48.7097 241.066 48.7097C241.469 48.5641 241.887 48.4638 242.312 48.4107L243.558 48.5353ZM251.869 52.5973H248.343C249.04 52.5973 250.05 52.6596 251.383 52.7717L251.869 52.5973Z" fill="#D7D7D7"/>
<path d="M279.991 28.1008C279.92 29.6843 279.656 31.2534 279.206 32.7733C278.633 34.9912 277.96 36.3244 277.325 36.773C275.719 36.7961 274.169 37.3627 272.926 38.3804C271.996 39.6489 271.553 41.2105 271.68 42.7788C271.68 43.3395 271.568 44.4734 271.493 46.1679C271.381 47.2773 271.339 48.3926 271.369 49.5072L271.68 59.3881C271.838 61.2145 271.344 63.0378 270.285 64.5341L270.16 64.9578C270.532 64.7342 270.879 64.471 271.194 64.1728C271.63 63.7616 271.855 63.4875 271.855 63.3255L271.979 51.6877L272.104 63.3255C271.373 64.5512 270.322 65.5549 269.064 66.2287L268.952 66.0542H261.064C260.25 65.5106 259.498 64.8797 258.821 64.1728C258.292 63.3671 258.058 62.4026 258.161 61.444L258.336 49.258C258.336 48.012 258.273 46.0309 258.161 43.4392C258.049 40.8475 257.974 38.9161 257.974 37.6203C257.891 36.183 257.97 34.741 258.211 33.3216L258.497 33.5583C259.163 36.8382 259.476 40.1799 259.432 43.5264C259.53 43.2554 259.568 42.9663 259.544 42.6791C259.544 41.296 259.469 38.9411 259.307 35.527C259.108 32.4867 259.021 30.1069 259.071 28.3749C259.49 29.0226 259.699 29.7843 259.669 30.5554C259.669 32.0506 259.606 32.8107 259.606 32.8605C259.606 33.2219 259.868 34.6548 260.279 37.1593C260.538 38.5782 260.679 40.0159 260.703 41.458V43.1027L261.164 42.7788C261.272 42.4662 261.327 42.1377 261.326 41.8069C261.326 41.3583 261.326 40.7104 261.201 39.8631C261.077 39.0158 261.077 38.3679 261.077 37.9193H261.301C261.597 38.9077 261.768 39.9289 261.812 40.9596C261.812 41.8443 261.812 42.9781 261.812 44.3487V47.4389C261.812 48.6849 261.887 50.8405 262.049 53.9929C262.173 56.7341 262.211 58.9021 262.173 60.4721L262.298 60.5344V60.4721C262.333 59.7665 262.333 59.0595 262.298 58.3539C262.298 57.4194 262.298 55.9865 262.123 54.0427C261.949 52.0989 261.936 50.6536 261.936 49.6817L262.298 49.744C262.298 49.2954 262.298 48.6475 262.298 47.7753C262.298 46.9031 262.298 46.2551 262.298 45.8066C262.25 45.0414 262.374 44.2752 262.659 43.5638C263.581 45.4992 263.905 51.1769 263.631 60.5967C264.865 60.82 266.115 60.9408 267.369 60.9581L267.681 44.9593C267.708 43.0361 267.951 41.122 268.403 39.2526C268.816 37.6632 269.745 36.2562 271.045 35.2529C272.22 34.1456 273.767 33.5187 275.381 33.496H275.742C276.228 33.496 276.465 32.5864 276.465 30.7672C276.465 29.596 276.39 28.4247 276.34 27.2535H275.68C274.833 27.2708 273.993 27.4136 273.188 27.6771C272.36 27.8866 271.632 28.3806 271.132 29.0727V30.6551L270.646 30.5928V31.0787H269.861C269.861 31.0787 269.35 30.9791 268.466 30.7672L268.403 30.2813C267.519 29.8078 267.045 29.5586 267.008 29.5586C267.456 28.9107 267.892 28.3126 268.341 27.7394L267.307 27.565H267.98C268.428 27.565 268.702 27.565 268.827 27.3158C267.22 27.2174 265.622 27.0134 264.042 26.7053H264.528C263.718 26.7053 262.522 26.5557 260.952 26.3937L261.488 25.9701H268.889C267.993 25.7744 267.078 25.6741 266.16 25.6711C264.59 25.6711 263.668 25.6711 263.307 25.6088V25.4219C263.932 25.2245 264.583 25.1237 265.238 25.1228H268.877L270.036 26.2691C271.406 24.8238 273.848 24.0886 277.362 24.0886C278.061 24.6391 278.73 25.2256 279.368 25.8455C279.828 26.5036 280.048 27.2998 279.991 28.1008ZM260.466 32.6487L260.192 33.4337L259.557 27.2036C260.116 28.9665 260.422 30.7998 260.466 32.6487ZM268.964 65.5683C268.325 65.7199 267.675 65.8199 267.02 65.8673L261.5 65.5683H268.964ZM270.534 52.1737V44.9593C270.361 47.361 270.361 49.772 270.534 52.1737ZM276.291 26.6429H275.568C274.733 26.6852 273.911 26.8706 273.138 27.1912C272.336 27.4171 271.607 27.8463 271.02 28.4372C272.209 27.5688 273.615 27.0469 275.082 26.9295C275.5 26.9154 275.911 26.818 276.291 26.6429ZM276.116 33.795H275.568C274.527 33.9446 273.519 34.2734 272.59 34.7669C273.729 34.3224 274.91 33.9967 276.116 33.795Z" fill="#D7D7D7"/>
<path d="M59.3102 63.6619L56.0332 66.8766C54.678 66.8465 53.3221 66.8881 51.9712 67.0012C50.0399 67.1134 48.7067 67.1757 47.9715 67.1757C47.4281 67.1822 46.8902 67.0657 46.3982 66.8348C45.9062 66.6039 45.4729 66.2646 45.1306 65.8424C44.5668 66.056 43.9573 66.1204 43.3613 66.0293L43.2492 65.7801C43.4644 65.3825 43.7059 64.9995 43.9719 64.6338C43.7351 64.4344 43.3862 64.1105 42.9377 63.6619V44.3861H39.3741C34.9217 46.7286 31.8897 47.8999 30.2782 47.8999C30.3613 51.1395 30.3613 56.028 30.2782 62.5654V63.5996C29.1568 64.6463 28.0354 65.7801 26.9513 67.0012C26.266 67.0012 25.2568 67.0012 23.9485 67.0012C22.6401 67.0012 21.6932 67.0635 21.1325 67.0635C19.2017 67.2024 17.2701 66.8058 15.5503 65.9172C14.0551 64.9079 13.3075 63.0389 13.3075 60.3351L13.1829 26.6928C13.2251 26.133 13.3511 25.5828 13.5567 25.0605C14.3126 26.3065 14.7944 34.9953 15.0021 51.127C15.1509 50.891 15.2367 50.6207 15.2513 50.3421L14.5286 13.7841C14.5729 13.3574 14.6734 12.9384 14.8277 12.5381C15.1173 14.1373 15.2591 15.7598 15.2513 17.385C15.2513 20.3381 15.5503 24.8611 16.0363 31.0912C16.4516 36.9059 16.6551 41.4289 16.6468 44.6602C16.6468 46.5293 16.6468 48.3235 16.5222 50.0555L16.7714 49.5197L17.1951 49.0836C17.2698 48.9341 17.3072 44.7142 17.3072 36.4241C18.2578 44.294 18.5537 52.2293 18.1919 60.1482H18.7401C18.6494 57.1322 18.7701 54.1136 19.1015 51.1146C19.3922 51.5631 19.7369 54.5328 20.1357 60.0236C20.6159 60.1161 21.1045 60.1578 21.5935 60.1482C22.1607 60.1501 22.7272 60.1084 23.2881 60.0236C23.2881 55.7788 23.3711 49.4159 23.5373 40.9347C24.67 39.7181 25.8857 38.5815 27.1756 37.533L35.175 37.3586L45.0559 37.5954C45.4434 37.6181 45.8275 37.6807 46.2022 37.7823C46.8765 38.2932 47.4873 38.883 48.0214 39.5391C48.6167 40.0845 49.1289 40.7142 49.5415 41.4081L49.2923 56.3603C52.1454 50.3975 53.6554 43.8813 53.7157 37.2714L54.3262 11.4665H47.7846C47.7846 21.8084 47.6227 28.4787 47.2987 31.4774C46.8899 31.836 46.5029 32.2189 46.1399 32.6238C45.3151 32.7447 44.4806 32.7864 43.6479 32.7484L34.3153 32.3247C32.8948 32.3247 31.4993 32.3247 30.1287 32.3247C28.7441 32.3651 27.3772 32.0061 26.1913 31.2905L26.129 30.7423L26.6149 15.9521L26.7395 31.4151C27.2628 17.9582 27.5245 11.1259 27.5245 10.9182C27.5245 9.9962 27.2753 9.44796 26.7894 9.28598L24.9203 9.03678C25.6086 9.02098 26.2952 8.96272 26.9763 8.86234C25.3186 8.72157 23.6529 8.70074 21.9922 8.80003C20.3222 8.91087 18.6448 8.78927 17.0082 8.4387C17.8679 7.86553 21.2945 7.75338 27.3251 8.07734L27.0136 7.70356C25.6097 7.66441 24.2104 7.52281 22.827 7.2799C23.9451 7.04046 25.0853 6.91935 26.2287 6.91856H27.1382C28.1464 7.9985 29.0672 9.15678 29.8919 10.3825C30.2129 11.935 30.297 13.5272 30.1411 15.1048L29.7175 28.6241H43.3488V9.93391C44.0466 9.19876 44.7444 8.48854 45.4795 7.77831C45.8173 7.42341 46.223 7.14011 46.6725 6.94531C47.1221 6.75051 47.6062 6.6482 48.0961 6.64444C49.4485 6.69213 50.7908 6.89703 52.0958 7.25499C53.3995 7.66256 54.7386 7.94624 56.0955 8.10227C56.8681 8.53837 57.6281 9.01185 58.4007 9.4978C58.6939 9.83639 58.9103 10.2345 59.035 10.6646C59.1598 11.0948 59.1899 11.5469 59.1233 11.9898C59.1233 13.6512 58.9614 20.8656 58.6374 33.633C58.438 42.405 58.3384 49.636 58.3384 55.3261C58.3384 58.2085 58.3384 60.9788 58.3384 63.637L58.0891 64.0606L58.8866 63.2756L59.1856 57.9427L59.3102 63.6619ZM16.4475 23.2288C16.4125 23.9356 16.3293 24.6392 16.1983 25.3346C15.9491 23.3493 15.7871 20.7659 15.7123 17.5844C15.5877 13.3729 15.5088 10.8061 15.4756 9.88408C16.2132 14.2924 16.5344 18.7603 16.435 23.2288H16.4475ZM16.6967 33.0474C16.705 34.446 16.784 35.8434 16.9334 37.234L17.058 35.1656C17.058 35.1656 16.9459 34.5053 16.6842 33.0474H16.6967ZM18.628 61.9673L18.0299 61.3568V61.9673H18.628ZM23.3005 62.5156V62.1418H20.9331L23.3005 62.5156ZM47.9092 41.3334C47.5317 40.7018 47.0612 40.1305 46.5137 39.6388C45.8773 39.2149 45.122 39.0053 44.3581 39.0407H27.7114L26.8641 39.2152C26.1522 39.7273 25.5184 40.3401 24.9826 41.0344L24.8705 41.8318L25.1072 56.921C25.1072 47.335 25.2277 42.0602 25.4686 41.0966C25.7552 39.9628 26.9638 39.4021 29.1069 39.4021C30.9261 39.4021 33.6424 39.481 37.2559 39.6388C40.8693 39.7966 43.5897 39.8797 45.4172 39.888C46.7131 39.888 47.361 40.7187 47.361 42.38L47.5354 56.1485L47.9092 41.3334ZM26.7271 61.9424H25.2941L25.1695 62.7274L25.5309 63.1511L26.7271 61.9424ZM47.3361 11.5039C47.253 15.948 47.0287 22.5934 46.6632 31.4401C46.4945 31.6897 46.268 31.8949 46.0028 32.0382H44.5076C44.0591 32.0382 38.3814 31.9177 27.4747 31.6768C30.3613 32.1173 33.2767 32.3422 36.1967 32.3497H45.0559C46.4639 32.3497 47.1866 31.8263 47.2364 30.7672L47.3361 11.5039ZM29.2689 28.5991V23.6899L28.7207 17.7464V28.5991H29.2689ZM44.2958 44.4235H43.2367V48.4232C43.2929 47.0211 43.6409 45.6461 44.2584 44.3861L44.2958 44.4235ZM44.2958 64.1852C44.0687 64.0562 43.8741 63.8768 43.7272 63.6608C43.5804 63.4448 43.485 63.1979 43.4485 62.9392C43.3738 62.391 43.3115 61.8552 43.2741 61.3319V63.5747L44.1214 64.422L44.2958 64.1852ZM53.454 66.129C52.3452 66.4455 51.2113 66.6665 50.0648 66.7894H48.8188C48.0318 66.8068 47.2446 66.7652 46.4639 66.6648L45.5543 65.8175H45.9156C45.9156 66.0169 46.5386 66.1415 47.6725 66.1789C48.4824 66.1789 49.6163 66.1789 51.0616 66.1789L53.454 66.129ZM55.2732 63.0264L54.0272 62.852L53.9026 63.0264H55.2732ZM56.0582 23.2662L55.7591 53.6938H55.5722L55.8837 23.2662H56.0582ZM57.3914 60.6466V40.9347C57.2294 42.0187 57.1546 42.6292 57.1546 42.7414L57.3914 60.6466Z" fill="#D7D7D7"/>
</svg>
