<svg width="275" height="76" viewBox="0 0 275 76" fill="none" xmlns="http://www.w3.org/2000/svg">
<path d="M113.535 40.6063C113.457 43.7838 112.569 46.8887 110.953 49.6257C108.994 53.1585 105.904 55.9304 102.18 57.496C98.4963 58.9248 94.5908 59.6984 90.6404 59.7817L78.6186 59.9053L91.4805 60.0165C99.215 60.0165 105.446 57.4342 110.174 52.2697C105.891 57.7225 99.1779 60.4448 90.035 60.4366C80.892 60.4283 76.1641 60.3913 75.8511 60.3254C75.1715 59.6829 74.492 59.0157 73.8124 58.3362C73.1061 57.7624 72.6355 56.9488 72.4904 56.0504C72.3298 53.2458 72.3051 49.5268 72.4286 44.9307C72.5439 38.1929 72.6016 34.4492 72.6016 33.6996C72.6016 32.0934 72.6016 29.6842 72.3916 26.4841C72.1815 23.2841 72.1815 20.8748 72.1815 19.2686C72.1815 17.1435 72.1815 14.9566 72.3051 12.7203L72.7869 12.7821C73.5035 14.4295 73.9154 19.6558 74.0225 28.461C74.2035 28.1331 74.2851 27.7596 74.2572 27.3861C74.2572 27.1884 74.1007 19.6928 73.7877 4.89936C74.0161 5.37655 74.1742 5.88426 74.2572 6.40672C74.2572 8.01291 74.3602 10.4387 74.5661 13.684C75.1223 16.8232 75.5018 19.9912 75.7028 23.1729C75.7028 23.6918 75.7028 24.4084 75.5916 25.4586C75.4804 26.5088 75.468 27.2255 75.468 27.7444C76.024 27.3861 76.3082 27.0772 76.3082 26.8424L76.2464 19.5034C76.8979 21.5639 77.2027 23.7183 77.1484 25.8787L76.9383 33.0942L77.7785 53.3446V45.709C77.7785 45.0295 77.7044 44.0163 77.5561 42.6449C77.4078 41.2735 77.346 40.2603 77.346 39.5808V37.5422L77.8279 37.8387V37.4186C77.8279 36.702 77.8279 35.7012 77.7414 34.441C77.6549 33.1807 77.6549 32.2294 77.6549 31.5869C77.6512 30.6041 77.709 29.6219 77.8279 28.6463L78.1368 28.3992C78.9872 31.4957 79.4316 34.6895 79.4588 37.9005C79.4588 41.0634 79.4588 44.2305 79.4588 47.4017C79.4588 48.0813 79.4588 49.0697 79.3353 50.3793C79.2117 51.689 79.2117 52.6527 79.2117 53.2828L91.0605 53.8883C95.282 54.2864 99.5104 53.2031 103.02 50.8241C104.743 49.6268 106.132 48.0106 107.057 46.1279C107.983 44.2451 108.413 42.1578 108.309 40.0626C108.414 37.726 107.736 35.4212 106.381 33.5143C104.952 31.7106 103.12 30.2675 101.031 29.3011C101.031 29.1035 101.031 28.6463 100.908 27.9174C100.841 27.459 100.804 26.9967 100.796 26.5336V26.1135L104.639 22.4069C105.682 20.8476 106.189 18.9916 106.085 17.1188C106.123 15.1687 105.669 13.2405 104.764 11.5126C103.859 9.78482 102.533 8.31334 100.908 7.23452C97.7203 4.96378 93.8859 3.78097 89.9732 3.86152C88.4823 3.75621 86.9977 3.57476 85.5253 3.31788H87.2674C90.8401 3.24923 94.3977 3.80106 97.7818 4.9488C100.258 5.84887 102.386 7.50966 103.861 9.69324C105.418 11.8514 106.257 14.445 106.258 17.1064C106.229 19.4512 105.544 21.7411 104.281 23.7166V23.8277C105.87 22.7899 106.669 20.5495 106.678 17.1064C106.736 14.0927 105.69 11.1618 103.737 8.86543C101.743 6.59271 99.1341 4.94507 96.225 4.12099C93.4141 3.54274 90.5566 3.22019 87.6875 3.15728C83.3631 2.86899 80.9785 2.58892 80.5337 2.3171L81.2503 2.25532L75.6657 1.83525C76.1105 1.35339 78.075 1.10629 81.5592 1.10629C83.0048 1.10629 84.784 1.10628 86.9091 1.29161L90.4551 1.41517L79.3353 0.933313L79.1499 0.68621C79.5844 0.480437 80.054 0.358847 80.5337 0.327895H89.6643C94.8156 0.100426 99.8976 1.58161 104.12 4.54107C106.15 6.00939 107.785 7.95883 108.876 10.2145C109.967 12.4701 110.481 14.9614 110.372 17.4647C110.359 20.0429 109.741 22.582 108.568 24.8779C108.438 24.8109 108.294 24.773 108.148 24.7667C107.79 24.7667 107.394 25.0386 106.912 25.6069C106.43 26.1753 106.035 26.7189 105.949 26.8424C108.144 28.476 110.071 30.4439 111.657 32.6742C112.986 35.1008 113.635 37.8413 113.535 40.6063ZM75.431 11.3859C75.3615 11.8042 75.2624 12.2171 75.1344 12.6214L74.4055 3.12019C75.1699 5.80639 75.5158 8.59435 75.431 11.3859ZM76.0364 19.9235C75.9128 19.491 75.7275 18.8238 75.4927 17.9466L75.7275 17.3412C75.9252 18.1814 76.0364 18.5767 76.0364 18.6632V19.9235ZM77.7785 55.7539V55.6304C77.8003 55.4785 77.7767 55.3237 77.7108 55.1852C77.6448 55.0467 77.5394 54.9308 77.4078 54.852V55.7539H77.7785ZM78.5569 55.7539L78.075 55.5686L77.8897 55.7539H78.5569ZM94.7918 55.5068H94.3593C93.8422 55.5592 93.3223 55.5798 92.8026 55.5686C92.2836 55.5686 88.6388 55.3503 81.8681 54.9138C81.5839 54.9138 81.1762 54.9138 80.6326 54.9138L79.5577 54.9755L79.4094 54.9632V55.618L89.2937 55.9269L94.7918 55.5068ZM102.6 39.346C102.6 43.275 100.998 45.8202 97.7941 46.9816C96.9481 47.3237 96.0579 47.5442 95.1501 47.6365L93.0003 47.55C96.2744 47.2287 98.5478 46.6357 99.7833 45.7461C101.39 44.5847 102.254 42.509 102.254 39.4943C102.254 38.9859 102.17 38.4809 102.007 37.9993C101.735 41.1952 101.196 43.378 100.389 44.5476C99.3138 46.228 97.2381 47.0187 94.2111 47.0187C92.7655 47.0187 91.8883 46.821 91.567 46.4256C91.078 46.3372 90.5952 46.2175 90.1215 46.0673L88.5029 46.784L88.6265 47.3894C88.2839 47.0693 87.8538 46.8586 87.3909 46.784V46.4256L87.0326 46.0673L86.3654 46.4874L86.6125 47.4511L86.316 47.1422L86.1925 47.3276L85.8342 46.9075V46.4256L86.1925 46.4874V46.3144C86.1878 46.0302 86.1463 45.7478 86.0689 45.4743L85.8342 45.536V44.8689C85.9018 44.8692 85.9688 44.8553 86.0307 44.8281C86.0927 44.8008 86.1482 44.7609 86.1936 44.7107C86.2391 44.6606 86.2735 44.6015 86.2946 44.5372C86.3156 44.4729 86.323 44.4049 86.316 44.3376C86.3059 44.243 86.262 44.1553 86.1925 44.0905C85.6735 44.0905 85.4141 44.3376 85.4141 44.8071C85.4265 45.0613 85.4637 45.3138 85.5253 45.5608C85.5846 45.7668 85.626 45.9777 85.6488 46.1909C85.6778 46.3294 85.6778 46.4725 85.6488 46.611C85.2383 46.3162 84.9591 45.873 84.8704 45.3754C84.7817 44.8407 84.7609 44.2968 84.8087 43.7569C84.8952 42.7932 84.9322 42.2866 84.9322 42.2495C84.893 41.351 84.7731 40.4578 84.5739 39.5808C84.3704 38.7209 84.2463 37.8441 84.2033 36.9614C84.2033 33.8726 85.1876 32.3282 87.1562 32.3282H88.9601H90.7639C90.4056 32.3282 89.7137 32.1676 88.713 31.9576C88.0623 31.8204 87.4007 31.7418 86.7361 31.7228C86.1408 31.7526 85.5794 32.009 85.167 32.4394C84.8087 32.8842 84.4256 33.329 84.0303 33.7614V37.1962C84.0753 37.8133 84.1745 38.4252 84.3268 39.0248C84.5038 39.6594 84.5665 40.3204 84.5121 40.9769H83.9685C83.9898 41.6251 84.0683 42.2701 84.2033 42.9044C84.1554 43.2672 84.0334 43.6162 83.8449 43.9299C82.8442 43.6457 82.35 41.8789 82.35 38.6294C82.3645 38.2159 82.4016 37.8034 82.4612 37.3939C82.5293 36.9852 82.5706 36.5725 82.5847 36.1584C82.5575 35.7809 82.487 35.4078 82.3747 35.0464C82.2661 34.7051 82.1957 34.3529 82.1646 33.9962C82.1646 33.0695 83.4002 31.7352 86.0071 29.9683C86.2542 30.059 88.5812 30.4214 92.9879 31.0556C95.3388 31.3008 97.6119 32.0375 99.6598 33.2178C100.627 33.9082 101.404 34.8321 101.918 35.9037C102.433 36.9752 102.667 38.1594 102.6 39.346ZM99.598 17.2794C99.598 22.1351 97.1269 24.5567 92.3207 24.5567C91.6028 24.5284 90.8939 24.3866 90.2203 24.1366C92.18 24.2256 94.1426 24.0427 96.052 23.593C96.9944 23.3345 97.8086 22.7383 98.3395 21.918C98.8705 21.0976 99.0809 20.1106 98.9308 19.1451V18.0702C98.7406 19.7344 98.0515 21.3021 96.954 22.5675C95.6538 23.5737 94.019 24.0464 92.3825 23.8895C91.8404 23.8739 91.2998 23.8243 90.7639 23.7412L89.133 23.5312C88.7917 23.1443 88.3701 22.8364 87.8975 22.6293C87.6584 22.7595 87.4381 22.9216 87.2427 23.1111C87.4098 23.3768 87.5505 23.6582 87.6628 23.9513C87.5763 23.8401 87.4033 23.5312 87.1191 23.0494L86.4519 23.3582C86.6958 23.5158 86.8855 23.7444 86.9956 24.0131L86.699 23.7166V24.0131L85.9824 23.3582V22.9876L86.8226 22.6911C86.699 22.4934 86.5384 22.2092 86.3407 21.8509V22.4563L85.9824 22.0856V21.7273H86.4643C86.337 21.5564 86.2716 21.3473 86.2789 21.1343C86.3273 20.7458 86.4058 20.3616 86.5137 19.9852L85.7353 20.047C85.656 20.1729 85.6132 20.3183 85.6118 20.4671C85.6281 20.7015 85.6695 20.9334 85.7353 21.159C85.8029 21.363 85.8445 21.5747 85.8589 21.7891H85.5871C85.0681 21.7891 84.784 21.3937 84.7469 20.4671C84.8334 21.9497 84.8704 21.332 84.8704 18.6014C84.8287 17.8619 84.7085 17.1288 84.5121 16.4145C84.3117 15.7175 84.1874 15.0009 84.1415 14.2771C84.2063 13.6553 84.4367 13.0622 84.8087 12.5597C85.2535 11.8678 85.6488 11.5095 86.0442 11.5095C86.5208 11.5249 86.9956 11.5745 87.4651 11.6577C87.9293 11.7504 88.4004 11.8041 88.8736 11.8184C89.622 11.8225 90.3683 11.7396 91.0975 11.5713C88.367 11.1759 86.9214 10.9658 86.7732 10.9658C86.0949 11.0382 85.4644 11.3491 84.994 11.8431C84.7231 12.035 84.4952 12.2814 84.325 12.5665C84.1548 12.8516 84.046 13.1691 84.0056 13.4987C83.9368 14.7209 84.1003 15.9451 84.4874 17.1064V17.403L83.9438 17.4647C83.9529 17.7383 83.9818 18.0108 84.0303 18.2802C84.0816 18.5658 84.1105 18.855 84.1168 19.1451V19.6269L83.7461 19.7505C82.8318 19.0215 82.3747 17.6871 82.3747 15.7226C82.3747 13.7581 83.6102 11.7689 86.1554 9.40907L87.2427 9.11254C88.3113 9.48906 89.4173 9.75002 90.5415 9.89093C92.3084 10.1257 93.4327 10.311 93.9145 10.4346C95.5086 10.7868 96.9419 11.6555 97.9918 12.9056C99.0515 14.1137 99.624 15.6727 99.598 17.2794ZM87.5763 45.2395V43.8434H87.2056V44.0781C87.2056 44.2758 87.045 44.4858 86.7361 44.6835C86.4272 44.8812 86.2542 45.0789 86.2542 45.2889C86.6851 45.1701 87.1377 45.1532 87.5763 45.2395ZM88.0581 45.5978V45.2889L86.6125 45.4743L86.8473 45.8944C87.2592 45.8331 87.6645 45.7338 88.0581 45.5978ZM88.2311 21.9744C88.0147 21.2463 87.8536 20.5029 87.7492 19.7505L87.5763 20.5289C87.6819 20.668 87.7423 20.8362 87.7492 21.0107C87.7492 21.4061 87.4898 21.5914 86.9709 21.5544L87.5145 21.7891C87.3044 22.0431 87.0817 22.2864 86.8473 22.5181L87.1562 22.6293C87.5507 22.4768 87.9147 22.2551 88.2311 21.9744ZM98.1154 40.248C98.1571 39.8136 98.0974 39.3754 97.9409 38.968C97.7844 38.5606 97.5353 38.1952 97.2134 37.9005C96.4968 37.4186 95.7926 36.9368 95.113 36.4549C93.6774 36.2922 92.2335 36.2138 90.7886 36.2201C90.623 36.2252 90.4587 36.1895 90.3101 36.1163C90.1614 36.043 90.033 35.9345 89.9361 35.8001C89.7154 35.537 89.5171 35.2559 89.3431 34.9599V36.5167C90.9316 36.5088 92.5182 36.6286 94.0875 36.875L94.2111 37.1221L89.2689 36.8132V43.8434H88.0334C88.0708 44.2833 88.0708 44.7255 88.0334 45.1654H88.6265C88.827 45.1342 89.0291 45.1135 89.2319 45.1036C89.2809 45.0949 89.3312 45.0981 89.3787 45.113C89.4262 45.1279 89.4693 45.1541 89.5045 45.1893C89.5397 45.2245 89.5659 45.2676 89.5808 45.3151C89.5957 45.3626 89.5989 45.4129 89.5902 45.4619C89.3925 45.7832 88.9477 45.9067 88.2682 45.8202V46.2403H88.577C89.2822 46.2473 89.9648 45.9919 90.4921 45.5237C91.9006 45.5237 93.235 45.5237 94.52 45.3384H93.9763C93.0544 45.3807 92.1305 45.3227 91.2211 45.1654L91.0358 44.8565C91.9339 44.4662 92.8895 44.2242 93.8651 44.1399C94.8908 44.0545 95.8898 43.7691 96.8057 43.2997C97.2708 42.9503 97.6348 42.4837 97.8606 41.9475C98.0863 41.4113 98.1657 40.8249 98.0907 40.248H98.1154ZM88.4782 33.9591C88.3511 34.1255 88.2472 34.3084 88.1693 34.5028L88.3546 34.441L88.4782 33.9591ZM94.903 18.2061C94.6425 17.3339 94.2237 16.5172 93.6674 15.7968C93.1385 15.7048 92.6148 15.5852 92.0983 15.4385H89.1577V15.8586C90.45 15.786 91.7457 15.911 93.0003 16.2292L93.1856 16.4022L92.8273 16.464C92.313 16.2433 91.7554 16.1419 91.1964 16.1674C90.8784 16.1704 90.5607 16.191 90.245 16.2292H89.2937V18.6261C89.2937 18.3049 89.4172 19.0833 89.652 20.9737H91.9377C92.8405 20.7148 93.7241 20.3927 94.5817 20.0099C94.8015 19.4472 94.9106 18.8472 94.903 18.2431V18.2061ZM94.4829 33.1684H91.2334C91.6412 33.1684 92.469 33.2425 93.8898 33.4031L94.4829 33.1684ZM94.2358 12.955C93.6699 12.6723 93.0598 12.4884 92.4319 12.4114H91.4064C91.8766 12.4318 92.342 12.5149 92.7902 12.6585C93.4739 12.7821 93.9557 12.8809 94.2358 12.955ZM95.4713 15.7844C95.3972 15.4632 94.9895 15.1049 94.2358 14.6972H93.6922C94.2749 15.0074 94.84 15.3498 95.3848 15.7226L95.4713 15.7844ZM97.2134 36.2201C96.7138 35.7562 96.1194 35.4063 95.4713 35.1946H94.2358C94.8906 35.3923 95.842 35.7136 97.1269 36.1584L97.2134 36.2201ZM97.8188 18.3667V17.8972C97.7999 17.4209 97.7504 16.9463 97.6706 16.4763C97.5676 16.0958 97.3914 15.7391 97.1516 15.4261C97.5127 16.3442 97.7093 17.3187 97.7323 18.3049L97.8188 18.3667ZM105.516 31.2286C103.391 29.7459 102.069 29.0046 101.55 29.0046H101.427L105.516 31.2286ZM103.292 28.3992L102.563 28.1645V28.5228L102.983 28.6463L103.292 28.3992ZM110.014 36.0966C109.635 34.4801 108.891 32.9717 107.84 31.6868C106.788 30.4019 105.457 29.3746 103.947 28.6834L103.403 29.0417C104.967 29.7047 106.373 30.6898 107.53 31.9328C108.655 33.0816 109.479 34.4907 109.927 36.0348L110.014 36.0966ZM106.838 25.1003H103.824C104.466 25.5822 105.059 26.0393 105.751 26.4841C106.144 26.0466 106.481 25.5609 106.752 25.0386L106.838 25.1003ZM112.361 40.8534C111.607 45.7337 110.174 49.4403 108.098 51.9732C109.556 50.5351 110.63 48.7555 111.224 46.7963C111.916 44.8697 112.271 42.8386 112.275 40.7916L112.361 40.8534ZM110.681 41.8665V38.9012C110.558 41.4577 110.177 43.9953 109.544 46.4751C110.02 44.9493 110.371 43.3874 110.594 41.8048L110.681 41.8665Z" fill="#D7D7D7"/>
<path d="M149.069 57.916L146.956 60.0164H139.209L137.887 58.6697C136.157 60.2759 133.6 61.079 130.19 61.079C125.066 61.079 121.038 59.4769 118.106 56.2728C115.306 53.1839 113.905 49.0943 113.905 44.0039V33.5513C113.905 29.1446 113.905 25.6769 113.905 23.1481L114.091 22.6045C113.646 22.9257 113.407 25.3103 113.374 29.7582V22.9628L115.017 21.3442C115.455 20.8535 116.066 20.5522 116.722 20.5041C117.278 20.5041 118.18 20.5041 119.416 20.4176C120.651 20.3311 121.59 20.3188 122.22 20.3188C123.105 20.2585 123.981 20.5171 124.691 21.0477L126.607 22.9628C126.607 24.1366 126.607 25.6563 126.607 27.5343V41.7429C126.607 46.1496 128.151 48.3571 131.24 48.3654C134.316 48.3654 135.848 46.3514 135.799 42.3483L135.626 26.8424C135.557 26.1228 135.68 25.3978 135.984 24.742C136.316 25.7521 136.499 26.8051 136.528 27.8679C136.602 28.9799 136.689 30.1042 136.763 31.2285C136.849 30.7096 136.948 29.3629 137.072 27.2007C137.183 24.7914 137.22 23.4941 137.183 23.1729C137.504 22.7281 137.986 22.135 138.628 21.369H145.177C144.638 21.5855 144.073 21.7269 143.496 21.789C143.052 21.789 142.471 21.789 141.754 21.789H140.012C138.888 21.789 138.171 22.0856 137.85 22.691V22.8763L138.381 22.2709C143.076 21.9497 145.885 21.8302 146.808 21.9126C145.317 22.1616 143.809 22.2814 142.298 22.2709C141.024 22.2385 139.75 22.3588 138.505 22.6292L138.023 23.1111C138.023 23.5188 137.924 24.1118 137.85 24.9149C137.85 24.5937 137.726 24.0995 137.603 23.42C137.412 23.7501 137.29 24.1159 137.245 24.4949C137.301 26.0781 137.471 27.6554 137.751 29.2146C138.04 30.7729 138.214 32.3504 138.27 33.9343C138.27 34.6139 138.27 35.7753 138.208 37.4185C138.146 39.0618 138.109 40.0626 138.208 40.9027V41.3722L138.814 40.6556V32.3652L139.407 40.112C139.407 47.97 136.561 51.899 130.869 51.899C129.663 51.9596 128.462 51.7096 127.38 51.1731C126.299 50.6367 125.373 49.8315 124.691 48.8349C123.382 46.7531 122.771 44.3072 122.949 41.8541L123.308 25.508H121.874C121.658 26.1654 121.554 26.8546 121.566 27.5466C121.624 29.3759 121.827 31.1978 122.171 32.9953C122.509 34.7897 122.711 36.6069 122.776 38.4317C122.631 41.4729 122.973 44.5178 123.79 47.4511C124.241 48.8838 125.165 50.121 126.41 50.9604C127.656 51.7998 129.15 52.1917 130.647 52.072C131.332 52.029 132.013 51.9382 132.685 51.8002C133.736 51.6272 134.316 51.5283 134.428 51.5283L134.316 51.8372H134.428C134.959 51.8372 135.663 51.3554 136.713 50.3916C137.462 49.7738 138.058 48.9916 138.455 48.1059C138.859 46.9033 139.403 44.9388 140.086 42.2124C140.261 42.7165 140.34 43.2485 140.321 43.7815C140.462 46.3786 139.575 48.9267 137.85 50.8735C136.938 51.7776 135.847 52.4801 134.647 52.9356C133.446 53.3911 132.163 53.5894 130.882 53.5175C126.742 53.5175 124.024 51.6889 122.702 48.0441C121.969 46.0096 121.607 42.4636 121.615 37.4062C121.615 36.6401 121.615 35.4664 121.615 33.8602C121.615 32.254 121.615 31.0555 121.615 30.2525C121.564 29.4078 121.389 28.5753 121.096 27.7814C120.861 26.9446 120.507 26.1457 120.046 25.4092C119.651 25.4092 119.045 25.4092 118.242 25.2856L117.945 43.2008C117.836 45.4244 118.057 47.652 118.6 49.8109C119.43 52.2682 121.149 54.3263 123.419 55.5809C125.597 56.9475 128.113 57.6792 130.684 57.6936C132.233 57.7841 133.781 57.4957 135.194 56.8535C136.39 55.9133 137.48 54.8443 138.443 53.6658L140.482 54.1971C140.457 54.32 140.458 54.4468 140.484 54.5694C140.51 54.692 140.561 54.8079 140.634 54.9099C140.707 55.0119 140.801 55.0978 140.908 55.1622C141.016 55.2266 141.136 55.2682 141.26 55.2843C141.227 55.5343 141.141 55.7743 141.007 55.9876C140.872 56.2009 140.693 56.3825 140.482 56.5199V56.8905C142.409 57.0388 144.188 57.1253 145.893 57.1253L146.857 33.6502L146.437 57.1253H146.61C146.883 56.1684 147.028 55.1797 147.042 54.1847C147.154 52.455 147.215 51.3554 147.215 50.8735L147.339 31.5745C147.339 30.8579 147.462 29.7706 147.574 28.3374H147.697C147.94 26.9884 148.039 25.6176 147.994 24.2478C147.971 23.8362 147.971 23.4238 147.994 23.0122C148.408 24.313 148.592 25.676 148.537 27.0401C148.537 28.5968 148.537 30.7467 148.537 33.3413C148.537 36.5537 148.476 38.0981 148.476 37.9745L148.784 27.0895L149.019 26.9783C149.113 27.2926 149.175 27.6154 149.204 27.942L149.069 57.916ZM115.462 49.4403C115.043 45.1866 114.841 40.9144 114.857 36.6402V44.9306C114.93 46.4482 115.133 47.9569 115.462 49.4403ZM116.426 48.3654L116.129 41.5699V45.2765L116.426 48.3654ZM126.359 23.1729C125.67 22.118 124.749 21.2348 123.666 20.5906H120.293L119.218 20.8253C122.925 21.3442 125.198 22.135 126.125 23.1729C126.211 25.9775 126.224 29.4617 126.125 33.6378L126.359 23.1729ZM137.603 54.8519C135.762 57.1006 132.92 58.1755 129.065 58.1014C129.338 58.1017 129.611 58.1224 129.881 58.1631C130.132 58.1759 130.383 58.1759 130.634 58.1631C133.241 58.1631 135.119 57.6319 136.281 56.5446C136.651 56.0934 137.065 55.6795 137.516 55.3091L137.603 54.8519ZM143.781 57.323C143.39 57.2545 143.006 57.1554 142.631 57.0265H140.346L140.469 57.2118C141.367 57.314 142.272 57.3511 143.175 57.323H143.781Z" fill="#D7D7D7"/>
<path d="M171.79 23.111C171.714 24.6816 171.448 26.2373 170.999 27.7443C170.448 29.9435 169.83 31.2655 169.146 31.7103C167.554 31.7333 166.017 32.2951 164.785 33.3042C163.862 34.5621 163.423 36.1105 163.549 37.6656C163.549 38.2216 163.45 39.3459 163.376 41.0263C163.265 42.1263 163.224 43.2322 163.253 44.3375L163.549 54.1353C163.711 55.9468 163.221 57.7567 162.165 59.238L162.054 59.6581C162.419 59.4355 162.758 59.1745 163.067 58.8797C163.512 58.472 163.734 58.2002 163.734 58.0396L163.846 46.4997L163.969 58.0396C163.248 59.2534 162.21 60.2484 160.967 60.9184L160.843 60.7454H153.035C152.228 60.2063 151.482 59.5807 150.811 58.8797C150.287 58.08 150.052 57.1255 150.144 56.1739L150.329 44.0904C150.329 42.8548 150.267 40.8904 150.144 38.3204C150.02 35.7505 149.971 33.8355 149.971 32.5505C149.895 31.1258 149.969 29.697 150.193 28.2879L150.49 28.5227C151.15 31.7748 151.456 35.0889 151.404 38.4069C151.514 38.1414 151.556 37.8527 151.527 37.5668C151.527 36.1953 151.453 33.8602 151.293 30.4748C151.083 27.4601 151.009 25.1002 151.046 23.3829C151.475 24.0194 151.688 24.7779 151.651 25.545C151.651 27.0277 151.589 27.7813 151.589 27.8308C151.589 28.1891 151.849 29.6099 152.244 32.0934C152.504 33.5001 152.648 34.9257 152.676 36.356V37.9868L153.047 37.6285C153.16 37.3202 153.215 36.9933 153.208 36.6648C153.208 36.22 153.171 35.5776 153.097 34.7374C153.01 33.8972 152.973 33.2548 152.973 32.81H153.195C153.483 33.7908 153.649 34.8033 153.69 35.8247C153.69 36.7019 153.69 37.8262 153.69 39.1853V42.2495C153.69 43.485 153.776 45.6224 153.937 48.7483C154.048 51.4665 154.097 53.6163 154.048 55.1731L154.171 55.2349L154.233 55.1731C154.233 54.7777 154.295 54.0735 154.295 53.0727C154.295 52.0719 154.233 50.7252 154.11 48.7978C153.986 46.8703 153.937 45.4371 153.937 44.4734L154.295 44.5352C154.295 44.0904 154.295 43.4479 154.233 42.583C154.171 41.7182 154.171 41.0757 154.171 40.6309C154.131 39.8725 154.253 39.1141 154.53 38.4069C155.461 40.3261 155.782 45.956 155.493 55.2967C156.717 55.5169 157.957 55.6367 159.2 55.655L159.497 39.7907C159.534 37.8837 159.779 35.9863 160.226 34.132C160.636 32.56 161.552 31.1665 162.833 30.1659C163.997 29.0679 165.532 28.4464 167.132 28.4238H167.49C167.972 28.4238 168.219 27.5219 168.219 25.718C168.219 24.5566 168.133 23.3952 168.096 22.2338H167.429C166.589 22.2497 165.756 22.3913 164.958 22.6539C164.137 22.8616 163.415 23.3515 162.919 24.0377V25.6068L162.437 25.545V26.0269H161.646C161.646 26.0269 161.152 25.9281 160.275 25.718L160.213 25.2362C159.324 24.7666 158.866 24.5195 158.829 24.5195C159.262 23.8771 159.707 23.284 160.151 22.7157L159.126 22.5427H159.719C160.151 22.5427 160.436 22.5427 160.559 22.2956C158.962 22.1982 157.373 21.996 155.802 21.6902H156.284C155.481 21.6902 154.307 21.5419 152.738 21.3813L153.282 20.9612H160.621C159.732 20.7671 158.825 20.6677 157.915 20.6647C156.346 20.6647 155.444 20.6647 155.086 20.6029V20.4176C155.71 20.2227 156.359 20.1228 157.013 20.121H160.621L161.758 21.2577C163.117 19.8245 165.551 19.0956 169.035 19.0956C169.728 19.6364 170.388 20.2181 171.012 20.8377C171.533 21.4792 171.808 22.2849 171.79 23.111ZM152.429 27.6207L152.158 28.3991L151.527 22.2214C152.075 23.9711 152.379 25.788 152.429 27.6207ZM160.843 60.2635C160.21 60.4139 159.565 60.513 158.916 60.56L153.455 60.2635H160.843ZM162.412 46.9815V39.8278C162.241 42.2093 162.241 44.6 162.412 46.9815ZM168.121 21.6655H167.392C166.568 21.709 165.757 21.8928 164.995 22.2091C164.198 22.4294 163.474 22.8556 162.894 23.4446C164.072 22.5818 165.467 22.0641 166.922 21.9496C167.336 21.9344 167.744 21.8378 168.121 21.6655ZM167.935 28.7574H167.392C166.364 28.9081 165.369 29.234 164.451 29.7211C165.575 29.2781 166.743 28.9551 167.935 28.7574Z" fill="#D7D7D7"/>
<path d="M207.312 54.9631C207.401 57.7507 206.876 60.5237 205.774 63.0858C204.672 65.6479 203.021 67.9365 200.936 69.7895C196.753 73.5413 191.282 75.533 185.665 75.3494C181.804 75.3469 178.05 74.0797 174.978 71.7417C171.784 69.4623 169.317 66.3088 167.874 62.6605C168.233 61.9704 168.646 61.3095 169.109 60.6837C169.357 60.3806 169.673 60.1408 170.032 59.984C170.391 59.8272 170.782 59.7578 171.172 59.7817L176.856 60.14L176.621 59.9053C173.661 57.8366 171.166 55.1728 169.294 52.0843C167.591 48.8862 166.74 45.3035 166.823 41.6811C166.796 39.0149 167.309 36.3707 168.33 33.9077C169.351 31.4446 170.86 29.2136 172.766 27.3489C174.595 25.4135 176.805 23.8776 179.257 22.8378C181.709 21.798 184.349 21.2769 187.012 21.3072C190.533 21.304 193.964 22.4203 196.81 24.4949C197.255 24.4207 197.514 24.0748 197.6 23.4694H203.123C201.468 23.8241 199.773 23.9571 198.082 23.8648L197.477 24.1489V24.2601L205.174 24.013C202.761 24.1777 200.113 24.499 197.23 24.9767C198.395 25.8924 199.306 27.0922 199.874 28.4609C198.89 29.2133 197.736 29.71 196.513 29.9065L196.39 29.7212L196.031 29.9065L195.797 29.7212L194.833 29.9065L195.129 29.1899L195.364 29.61H195.611C196.093 29.61 196.328 29.0046 196.328 27.8061C196.328 27.1266 195.611 26.4223 194.166 25.6933L193.993 25.5821V25.6933C193.08 25.2602 192.104 24.9765 191.102 24.8532L191.46 25.1003C190.568 24.9145 189.664 24.7947 188.754 24.742C184.085 24.5711 179.506 26.0593 175.83 28.9428C174.029 30.4127 172.594 32.2799 171.635 34.3978C170.677 36.5157 170.223 38.8268 170.308 41.1499C170.23 45.7708 171.807 50.2672 174.755 53.8264C176.145 55.6414 177.938 57.1077 179.992 58.1092C182.047 59.1108 184.306 59.6199 186.592 59.5964C188.112 59.5799 189.618 59.2955 191.04 58.7562C192.494 58.3788 193.77 57.5046 194.648 56.2852C192.45 58.2873 189.564 59.3629 186.592 59.2875C184.368 59.2937 182.172 58.7915 180.172 57.8193C178.172 56.8472 176.421 55.4307 175.052 53.6782C172.145 50.2792 170.565 45.9435 170.604 41.4711C170.437 38.4902 171.216 35.5328 172.828 33.0201L172.952 33.5637C173.872 31.926 175.072 30.4623 176.498 29.2393C178.458 27.386 180.002 26.5623 181.131 26.7682L180.945 27.0771C174.941 30.792 171.934 35.7341 171.926 41.9035C171.926 48.493 174.533 53.1428 179.747 55.8527C181.979 57.1713 184.488 57.9538 187.074 58.1385C190.36 58.1385 193.313 56.5323 195.908 53.3322L199.763 55.0126V55.4326C199.763 55.5562 199.478 56.6682 198.922 58.6821C198.278 61.2836 196.705 63.5599 194.499 65.0822C192.261 66.6 189.605 67.3817 186.901 67.3185C185.264 67.3514 183.639 67.0223 182.144 66.3548C180.732 65.614 179.367 64.7888 178.054 63.8837L172.531 63.7601L172.47 63.8837C173.815 66.5494 176.016 68.6859 178.722 69.9502C181.313 71.3975 184.229 72.1627 187.197 72.1741C191.253 72.156 195.168 70.6829 198.231 68.0227C201.407 65.5525 203.523 61.9651 204.149 57.9902C204.589 54.5814 204.808 51.1477 204.804 47.7106C204.853 44.3005 204.894 40.8739 204.927 37.4309L204.754 55.2226C204.737 57.5086 204.243 59.7659 203.305 61.8506C202.367 63.9353 201.005 65.8017 199.305 67.3308C195.994 70.5737 191.535 72.3767 186.901 72.3471C184.595 72.3176 182.313 71.8697 180.167 71.0251H179.92C182.202 72.2231 184.758 72.8025 187.333 72.7054C191.374 72.7029 195.28 71.2519 198.342 68.6158C201.527 66.1112 203.717 62.5548 204.519 58.5832C204.73 57.5312 204.87 56.4663 204.94 55.3956C204.94 51.343 205.026 47.3028 205.063 43.2503C205.052 39.1927 205.271 35.1378 205.718 31.105H205.841C206.065 30.2006 206.144 29.2665 206.076 28.3374C206.04 27.2362 206.081 26.1339 206.2 25.0385C206.554 26.5733 206.716 28.1463 206.682 29.7212C206.682 31.5251 206.682 33.9591 206.682 36.9985V42.3483L206.978 29.6594H207.213C207.308 29.9523 207.37 30.2548 207.398 30.5613L207.312 54.9631ZM200.158 42.1507C200.207 43.7766 199.934 45.3962 199.355 46.9164C198.776 48.4366 197.903 49.8276 196.785 51.0094C195.663 52.1824 194.306 53.1047 192.803 53.7159C191.3 54.327 189.684 54.6131 188.062 54.5554C186.493 54.6174 184.93 54.3404 183.478 53.7434C182.026 53.1464 180.72 52.2434 179.648 51.0959C177.491 48.7038 176.348 45.5673 176.46 42.3483C176.428 40.1548 177.057 38.0023 178.264 36.1707C179.499 34.3689 181.363 33.095 183.491 32.6C181.523 33.4589 179.777 34.7563 178.388 36.3931C177.165 38.1499 176.553 40.2594 176.646 42.3978C176.55 44.2811 176.977 46.1543 177.881 47.8094C177.881 47.8094 177.708 47.0187 177.375 45.5484C177.104 44.5586 176.93 43.5448 176.856 42.5213C176.855 40.0897 177.668 37.7278 179.166 35.8124C179.809 34.8816 180.667 34.1201 181.667 33.5929C182.667 33.0658 183.781 32.7887 184.912 32.7853L187.197 33.0201C187.738 32.8399 188.308 32.7603 188.878 32.7853C189.431 32.7564 189.985 32.8362 190.508 33.0201H188.519C186.602 33.0845 184.726 33.6009 183.046 34.5274H183.169C183.918 34.2008 184.708 33.9764 185.517 33.8602L186.172 33.922L185.937 34.2185C181.65 35.5158 179.5 38.1228 179.5 42.0642C179.456 44.2935 180.275 46.4536 181.786 48.0936C182.471 48.9468 183.341 49.6343 184.329 50.1049C185.317 50.5755 186.399 50.8171 187.494 50.8117C189.015 50.745 190.494 50.2945 191.793 49.5021C193.375 48.6248 194.19 47.6858 194.265 46.6603C192.461 49.1314 190.336 50.3669 187.889 50.3669C187.405 50.3369 186.925 50.2583 186.456 50.1322H187.173C188.196 50.213 189.225 50.074 190.191 49.7245C191.156 49.3751 192.036 48.8232 192.771 48.106C193.506 47.3887 194.078 46.5227 194.451 45.5659C194.824 44.6091 194.988 43.5837 194.932 42.5584C195.017 40.9612 194.584 39.3793 193.696 38.0487C192.601 36.8435 191.3 35.8435 189.854 35.0958C190.051 34.8239 190.249 34.6757 190.459 34.6757C191.235 34.7318 191.988 34.9607 192.663 35.3455C193.339 35.7303 193.92 36.2613 194.363 36.8996V36.7884C193.553 35.8042 192.525 35.0218 191.361 34.5027C190.175 34.0454 188.924 33.7785 187.654 33.712C187.753 33.5866 187.882 33.488 188.029 33.4254C188.176 33.3628 188.336 33.3381 188.495 33.3536C189.178 33.3679 189.859 33.4298 190.533 33.539C191.583 33.6625 192.263 33.712 192.584 33.712L192.164 33.539C192.346 33.5338 192.526 33.5688 192.693 33.6414C192.859 33.714 193.008 33.8225 193.128 33.9591L192.584 33.8355C193.132 34.0249 193.634 34.3258 194.059 34.7192C194.485 35.1127 194.824 35.5901 195.055 36.1212L195.364 35.5776C195.282 35.2564 194.54 34.5768 193.14 33.539C194.734 33.7367 196.105 35.034 197.217 37.4433C198.099 39.2629 198.571 41.2534 198.601 43.275C198.501 45.2392 197.764 47.1174 196.501 48.6248C195.322 50.1741 193.854 51.4792 192.176 52.4674L192.115 52.6527C194.095 51.8975 195.796 50.5534 196.989 48.8015C198.182 47.0497 198.809 44.9742 198.787 42.8549C198.758 42.2238 198.659 41.598 198.49 40.9893C198.316 40.4023 198.212 39.7968 198.181 39.1854V38.8271L198.428 38.8888L196.785 35.1946H197.082C197.848 35.1946 198.589 36.183 199.305 38.1475C199.799 39.4329 200.086 40.788 200.158 42.163V42.1507ZM188.495 64.2173H188.26L186.752 64.2791C184.346 64.2961 182.024 63.3896 180.266 61.7462C181.058 62.6131 182.024 63.3024 183.102 63.7687C184.18 64.2351 185.344 64.468 186.518 64.452L188.495 64.2173ZM196.365 25.7428C194.363 23.5435 191.32 22.4439 187.234 22.4439C184.889 22.4811 182.568 22.9285 180.377 23.7659L180.562 23.8277C182.643 23.0646 184.834 22.6472 187.049 22.5922C190.434 22.488 193.743 23.6114 196.365 25.7551V25.7428ZM192.658 24.8408C190.789 24.1568 188.817 23.7933 186.827 23.7659C184.986 23.8932 183.157 24.1533 181.353 24.5443L182.255 24.8408C183.085 24.809 183.912 24.7098 184.726 24.5443C185.541 24.3794 186.367 24.2802 187.197 24.2478C188.512 24.2665 189.821 24.428 191.102 24.7296L190.978 24.4825C191.541 24.5705 192.098 24.6943 192.646 24.8532L192.658 24.8408ZM191.089 61.7462C189.629 62.1998 188.108 62.4248 186.58 62.4134C185.06 62.3625 183.551 62.1387 182.082 61.7462C183.559 62.3061 185.124 62.5949 186.703 62.5987C188.209 62.6963 189.714 62.407 191.077 61.7586L191.089 61.7462ZM191.818 62.1169C190.396 62.5765 188.923 62.8587 187.432 62.957C186.044 62.9769 184.656 62.8943 183.281 62.7099C184.312 63.2026 185.437 63.472 186.58 63.5007C188.422 63.4958 190.233 63.0239 191.843 62.1292L191.818 62.1169ZM196.501 60.3748C195.777 61.6746 194.768 62.7941 193.551 63.6498C192.334 64.5056 190.939 65.0754 189.471 65.3169H189.891C191.274 65.1664 192.573 64.5776 193.597 63.6366C194.798 62.7899 195.787 61.678 196.488 60.3871L196.501 60.3748Z" fill="#D7D7D7"/>
<path d="M251.383 40.7298C251.477 41.8333 251.25 42.9404 250.728 43.9174C249.997 44.6726 249.212 45.3745 248.381 46.0179C249.307 47.3769 249.764 48.0812 249.764 48.1183C249.764 48.8843 248.722 50.4081 246.638 52.6897C245.336 54.1716 243.91 55.5398 242.376 56.7794C238.887 59.2215 234.724 60.517 230.465 60.486C226.334 60.5454 222.292 59.2859 218.925 56.8906C215.565 54.4645 212.943 51.1542 211.352 47.3275C210.51 44.8314 210.145 42.1993 210.277 39.5684C210.165 36.7227 210.677 33.8871 211.776 31.26C212.875 28.6328 214.535 26.2775 216.64 24.3589C220.958 20.591 226.541 18.5959 232.269 18.7743C231.911 18.751 231.552 18.751 231.194 18.7743C224.819 18.7743 219.77 20.7182 216.047 24.606C212.546 28.2138 210.421 33.2424 209.671 39.6919V38.9012C209.583 36.2085 210.077 33.5285 211.12 31.0443C212.163 28.5601 213.729 26.3303 215.713 24.5072C217.61 22.5429 219.886 20.9829 222.402 19.9213C224.918 18.8596 227.623 18.3181 230.354 18.3296C233.24 18.2361 236.112 18.7736 238.769 19.9046C241.425 21.0356 243.803 22.7329 245.737 24.8779C249.561 29.2548 251.579 34.921 251.383 40.7298ZM214.057 50.1569C211.979 46.4602 210.962 42.2618 211.117 38.0239L211.055 41.7305C211.154 43.2589 211.501 44.761 212.081 46.1785C212.46 47.6262 213.133 48.9804 214.057 50.1569ZM246.453 40.3591C246.415 37.0935 245.502 33.8978 243.809 31.105C242.321 28.1685 239.825 25.8659 236.779 24.6184C234.412 23.8641 231.935 23.5174 229.452 23.5929C227.349 23.5444 225.261 23.9624 223.338 24.817C221.415 25.6715 219.706 26.9412 218.332 28.5351C215.543 31.6994 214.044 35.7958 214.132 40.0132C214.107 42.2423 214.532 44.4535 215.381 46.5148C216.23 48.576 217.486 50.445 219.074 52.0102C220.599 53.621 222.442 54.8983 224.485 55.7616C226.529 56.625 228.729 57.0556 230.947 57.0265C234.046 57.0484 237.088 56.1916 239.719 54.5554C242.406 52.9054 244.64 50.6125 246.218 47.8835L238.397 47.6982C237.104 48.5431 235.758 49.3065 234.37 49.9839C232.936 50.3379 231.458 50.4794 229.983 50.404C229.309 50.4024 228.639 50.2811 228.007 50.0457C228.87 50.0417 229.733 50.0995 230.589 50.2187C234.197 50.2187 236.783 49.2385 238.348 47.2781C237.224 47.8835 236.124 48.5136 235.062 49.082C233.812 49.7299 232.415 50.0408 231.009 49.9839C229.685 50.0557 228.363 49.8222 227.144 49.3016C225.925 48.7811 224.842 47.9873 223.979 46.9816H224.275C223.495 46.2093 222.844 45.3166 222.348 44.3375C222.074 44.4157 221.792 44.4573 221.508 44.4611H221.088V44.3993L222.237 44.1028C222.099 43.8643 222.015 43.5987 221.99 43.3244C221.971 43.2057 221.971 43.0848 221.99 42.9661C222.311 43.0773 222.57 43.448 222.768 44.041C226.944 43.8433 229.18 43.7445 229.502 43.7445C229.873 43.7316 230.243 43.7947 230.589 43.9298L223.015 44.3499L223.139 44.5846H223.497C224.337 44.5846 225.412 44.5846 226.734 44.5846C228.464 44.4982 229.539 44.4611 229.983 44.4611L233.838 43.868C236.242 43.5062 238.674 43.3614 241.103 43.4356L246.218 43.6209L245.489 43.0155C244.41 42.9414 241.766 42.9414 237.557 43.0155L237.804 42.8425C241.165 42.4348 243.327 42.2371 244.291 42.2371C244.956 42.2288 245.621 42.2701 246.28 42.3607C246.327 42.033 246.356 41.7031 246.367 41.3723C246.453 40.9522 246.453 40.6062 246.453 40.3591ZM248.022 39.346C247.851 34.7279 245.94 30.3454 242.672 27.0777C239.404 23.81 235.022 21.8987 230.404 21.7273C228.226 21.6791 226.061 22.0812 224.046 22.9082C222.03 23.7352 220.207 24.9694 218.691 26.5335C221.607 23.6506 225.552 22.2091 230.527 22.2091C233.213 22.2005 235.862 22.8409 238.247 24.0756C240.633 25.3104 242.685 27.103 244.229 29.3011C244.954 30.2507 245.599 31.2591 246.157 32.3158C246.788 33.2977 247.209 34.4 247.392 35.5529L247.33 35.8L247.096 35.6764V35.973C247.114 36.6691 247.184 37.3629 247.306 38.0487C247.421 38.6937 247.491 39.346 247.516 40.0008C247.518 40.4684 247.456 40.9341 247.33 41.3846H247.936C248.009 40.7077 248.038 40.0267 248.022 39.346ZM240.325 34.5892C240.218 34.7485 240.075 34.8805 239.907 34.9749C239.74 35.0693 239.553 35.1233 239.361 35.1328C239.321 35.4941 239.321 35.8588 239.361 36.2201C239.231 36.2241 239.105 36.1794 239.007 36.0947C238.908 36.0101 238.845 35.8918 238.83 35.7629C238.743 35.4664 238.607 35.3181 238.397 35.3181L238.224 35.7382C237.897 35.4851 237.614 35.1805 237.384 34.8363C237.038 35.0653 236.674 35.2677 236.297 35.4417H236.544L236.235 35.8123L235.815 35.6888L236.297 35.5035H233.826C233.9 35.9112 233.987 36.1089 234.061 36.1089C234.135 36.1089 234.901 36.0471 235.865 35.9235L235.988 36.1706C234.811 36.4754 233.594 36.5963 232.38 36.529C231.551 36.5544 230.725 36.6453 229.909 36.8008C229.118 36.9473 228.317 37.0381 227.512 37.0726C226.747 37.0462 225.984 36.9761 225.227 36.8626C224.45 36.7406 223.665 36.6704 222.879 36.6525C222.218 36.6326 221.557 36.6698 220.902 36.7637C222.33 37.022 223.776 37.1625 225.227 37.1838C225.902 37.1838 226.903 37.1344 228.229 37.0355C229.551 36.9367 230.539 36.8873 231.182 36.8873L231.058 37.1838C231.33 37.198 231.602 37.198 231.874 37.1838C232.14 37.1435 232.408 37.1229 232.677 37.122C233.02 37.1286 233.354 37.2313 233.641 37.4185C233.319 38.061 232.282 38.4193 230.515 38.5058C231.602 38.4193 230.441 38.3823 227.031 38.3823C226.664 38.3978 226.3 38.4475 225.943 38.5305C225.59 38.6127 225.23 38.6623 224.868 38.6788C224.19 38.651 223.516 38.56 222.854 38.407C221.952 38.234 221.298 38.1228 220.902 38.0857L218.678 35.071C219.642 32.8911 221.153 30.9973 223.064 29.5729C225.046 28.3531 227.35 27.7589 229.675 27.8679C234.477 27.8679 237.701 29.6882 239.349 33.3289C237.026 29.8447 234.081 28.1026 230.515 28.1026C229.85 28.0701 229.185 28.1325 228.538 28.288C230.694 28.3923 232.83 28.7532 234.901 29.3629C236.856 30.3658 238.393 32.0293 239.238 34.0579H239.892C239.684 34.2752 239.502 34.5157 239.349 34.7745C239.681 34.7609 240.01 34.6984 240.325 34.5892ZM222.41 32.427C222.046 32.6305 221.736 32.9187 221.508 33.2672H221.878L222.41 32.427ZM225.659 31.525H225.301C224.918 31.6518 224.565 31.8567 224.265 32.1268C223.965 32.3969 223.725 32.7263 223.559 33.0942C224.176 32.4589 224.884 31.9177 225.659 31.488V31.525ZM238.163 44.807L223.559 45.0541C224.951 47.5252 227.496 48.7278 231.194 48.6619H231.787C227.982 48.6619 225.42 47.5582 224.102 45.3507V45.2395L227.117 47.0063C228.158 47.6004 229.341 47.9034 230.539 47.8835C232.461 47.9996 234.36 47.4207 235.889 46.2526C234.144 46.2931 232.398 46.2147 230.663 46.0179L230.478 45.8325C231.64 45.4316 232.856 45.2108 234.085 45.1777C235.321 45.1777 236.556 45.0788 237.792 44.9924L238.163 44.807ZM235.815 32.9088C234.327 31.8377 232.546 31.251 230.712 31.2285C229.621 31.2319 228.543 31.4678 227.549 31.9204C226.536 32.3776 225.523 32.8347 224.522 33.2672H231.256L235.815 32.9088ZM246.762 47.8835H246.404C244.799 50.811 242.401 53.2263 239.485 54.8519C236.656 56.6525 233.331 57.517 229.983 57.323C230.524 57.3974 231.069 57.4387 231.614 57.4465C234.787 57.4151 237.88 56.4527 240.51 54.679C243.156 53.0039 245.313 50.6597 246.762 47.8835ZM237.026 34.2309L236.902 33.9343H236.544C236.054 33.9515 235.569 34.0304 235.099 34.1691C234.295 34.3297 233.863 34.4285 233.653 34.478H234.889C235.012 34.478 235.79 34.3915 237.026 34.2309ZM238.101 43.3738C236.977 43.485 236.136 43.5468 235.63 43.5468C236.029 43.4024 236.444 43.3029 236.865 43.2503L238.101 43.3738ZM246.342 47.4017H242.845C243.537 47.4017 244.538 47.4634 245.86 47.5746L246.342 47.4017Z" fill="#D7D7D7"/>
<path d="M274.228 23.111C274.157 24.6813 273.896 26.2371 273.449 27.7443C272.881 29.9435 272.214 31.2656 271.584 31.7104C269.992 31.7333 268.454 32.2951 267.222 33.3042C266.299 34.5621 265.861 36.1105 265.987 37.6656C265.987 38.2216 265.876 39.346 265.802 41.0263C265.69 42.1263 265.649 43.2323 265.678 44.3375L265.987 54.1353C266.144 55.9463 265.653 57.7543 264.603 59.2381L264.48 59.6581C264.848 59.4365 265.192 59.1755 265.505 58.8797C265.937 58.472 266.16 58.2002 266.16 58.0396L266.283 46.4997L266.407 58.0396C265.682 59.255 264.64 60.2502 263.392 60.9184L263.281 60.7454H255.46C254.653 60.2063 253.907 59.5807 253.236 58.8797C252.711 58.0809 252.48 57.1245 252.581 56.1739L252.754 44.0904C252.754 42.8549 252.693 40.8904 252.581 38.3205C252.47 35.7506 252.396 33.8355 252.396 32.5505C252.314 31.1254 252.392 29.6954 252.631 28.2879L252.915 28.5227C253.575 31.775 253.886 35.0886 253.842 38.407C253.939 38.1382 253.977 37.8516 253.953 37.5668C253.953 36.1953 253.879 33.8602 253.718 30.4748C253.52 27.4601 253.434 25.1003 253.483 23.3829C253.899 24.0251 254.107 24.7804 254.076 25.5451C254.076 27.0277 254.015 27.7814 254.015 27.8308C254.015 28.1891 254.274 29.61 254.682 32.0934C254.938 33.5004 255.079 34.926 255.102 36.356V37.9869L255.559 37.6656C255.666 37.3557 255.721 37.0299 255.72 36.7019C255.72 36.2571 255.72 35.6147 255.596 34.7745C255.472 33.9343 255.472 33.2919 255.472 32.8471H255.695C255.988 33.8271 256.158 34.8397 256.201 35.8617C256.201 36.739 256.201 37.8633 256.201 39.2224V42.2865C256.201 43.5221 256.276 45.6595 256.436 48.7854C256.56 51.5036 256.597 53.6534 256.56 55.2102L256.683 55.272V55.2102C256.719 54.5105 256.719 53.8095 256.683 53.1098C256.683 52.1832 256.683 50.7623 256.51 48.8348C256.337 46.9074 256.325 45.4742 256.325 44.5105L256.683 44.5723C256.683 44.1275 256.683 43.485 256.683 42.6201C256.683 41.7552 256.683 41.1128 256.683 40.668C256.636 39.9092 256.758 39.1495 257.042 38.444C257.956 40.3632 258.277 45.9931 258.005 55.3338C259.229 55.5551 260.469 55.675 261.712 55.6921L262.021 39.8278C262.048 37.9208 262.289 36.0228 262.737 34.1691C263.146 32.5931 264.068 31.1979 265.357 30.203C266.522 29.105 268.056 28.4835 269.656 28.4609H270.015C270.497 28.4609 270.731 27.559 270.731 25.7551C270.731 24.5937 270.657 23.4323 270.608 22.2709H269.953C269.113 22.288 268.28 22.4296 267.482 22.691C266.661 22.8987 265.939 23.3886 265.443 24.0748V25.6439L264.961 25.5821V26.064H264.183C264.183 26.064 263.676 25.9651 262.799 25.7551L262.737 25.2732C261.86 24.8037 261.391 24.5566 261.354 24.5566C261.798 23.9141 262.231 23.3211 262.676 22.7527L261.65 22.5798H262.317C262.762 22.5798 263.034 22.5798 263.157 22.3327C261.564 22.2351 259.98 22.0329 258.413 21.7273H258.895C258.092 21.7273 256.906 21.579 255.349 21.4184L255.88 20.9983H263.219C262.33 20.8042 261.423 20.7048 260.513 20.7018C258.957 20.7018 258.042 20.7018 257.684 20.64V20.4547C258.304 20.259 258.949 20.159 259.599 20.1581H263.207L264.356 21.2948C265.715 19.8616 268.137 19.1326 271.621 19.1326C272.314 19.6785 272.978 20.26 273.61 20.8747C274.066 21.5273 274.284 22.3168 274.228 23.111ZM254.867 27.6207L254.595 28.3991L253.965 22.2215C254.52 23.9695 254.823 25.7874 254.867 27.6207ZM263.293 60.2635C262.66 60.4139 262.015 60.513 261.366 60.5601L255.893 60.2635H263.293ZM264.85 46.9815V39.8278C264.678 42.2093 264.678 44.6001 264.85 46.9815ZM270.558 21.6655H269.842C269.013 21.7074 268.198 21.8912 267.432 22.2091C266.638 22.4332 265.914 22.8588 265.332 23.4446C266.511 22.5836 267.905 22.0661 269.36 21.9496C269.774 21.9357 270.182 21.8391 270.558 21.6655ZM270.385 28.7574H269.842C268.809 28.9057 267.81 29.2318 266.889 29.7212C268.018 29.2803 269.19 28.9574 270.385 28.7574Z" fill="#D7D7D7"/>
<path d="M59.4679 41.9653C58.8884 43.658 58.1174 45.2788 57.1698 46.7963C50.6873 56.8535 41.9727 61.8863 31.0259 61.8945C27.116 61.9977 23.227 61.2928 19.6022 59.8237C15.9774 58.3546 12.6948 56.1531 9.96004 53.357C7.19736 50.5712 5.02925 47.2534 3.58717 43.6046C2.1451 39.9559 1.4591 36.0523 1.57077 32.1305C1.57077 21.9991 5.94044 13.7046 14.6798 7.24687L14.791 7.01212C10.7016 9.60095 7.30813 13.1514 4.90671 17.3535C2.41611 21.5114 1.1088 26.2707 1.12598 31.1174V36.5784C0.832105 35.2362 0.711686 33.8617 0.767671 32.4888C0.663615 28.4369 1.38552 24.4061 2.88941 20.6422C4.39329 16.8782 6.64768 13.4598 9.51525 10.5952C12.3501 7.71782 15.7472 5.45512 19.4947 3.94802C23.2423 2.44092 27.26 1.72172 31.2977 1.83523C37.5701 1.90612 43.6803 3.83681 48.8546 7.38278C54.8923 11.32 58.5577 16.1056 59.8509 21.7397L59.7273 21.9744C59.4697 21.7994 59.2476 21.5772 59.0725 21.3196C55.4318 15.2655 51.8034 11.1182 48.1874 8.87776C48.2815 9.07072 48.4021 9.24956 48.5457 9.40905C51.7831 11.9336 54.5516 15.0074 56.725 18.4902C58.6865 22.0793 59.913 26.0233 60.3327 30.0919L60.1474 30.512C59.6271 29.2902 59.3059 27.9929 59.196 26.6695C58.7183 22.551 54.9293 17.0982 47.8291 10.311V10.7928V11.2129C48.7558 12.1396 49.6948 13.0415 50.6585 13.9187C51.597 14.8238 52.4264 15.8356 53.1296 16.9334C48.1298 12.6585 45.0451 10.1586 43.8754 9.43375C40.4085 7.36936 36.4314 6.32049 32.3973 6.4067C27.1674 6.30996 22.0036 7.58811 17.4227 10.1133C12.7679 12.5861 9.17452 16.6714 7.316 21.6038V21.7891C9.64431 17.2123 13.1881 13.365 17.5586 10.6693C21.9446 8.05535 26.9709 6.71215 32.0761 6.78971C34.1332 6.6906 36.1916 6.95836 38.1549 7.58045L37.846 7.87699C39.2545 8.35884 40.6507 8.85306 42.0592 9.38434C43.4804 9.88925 44.7307 10.7841 45.667 11.9666H45.2469C42.9633 10.9026 40.59 10.0426 38.1549 9.39669C35.7245 8.83545 33.2359 8.56585 30.7417 8.5936C28.3862 8.53109 26.0353 8.83537 23.7733 9.49553C21.4955 10.3333 19.3519 11.4988 17.4103 12.955C14.1604 15.1125 11.413 17.9442 9.35463 21.2578C7.46279 24.6799 6.51208 28.5425 6.59939 32.4517C6.53913 35.7788 7.14911 39.0839 8.39298 42.1702C9.63685 45.2566 11.4892 48.061 13.8396 50.4164C16.1133 52.815 18.8622 54.713 21.9107 55.9895C24.9593 57.2659 28.2404 57.8926 31.5448 57.8296C36.7507 57.9018 41.8588 56.4128 46.2106 53.5547C50.4917 50.6261 53.9297 46.6257 56.1813 41.953C54.1985 46.7888 50.7784 50.8989 46.3836 53.7276C41.9142 56.5609 36.7122 58.0214 31.4213 57.9284C27.3438 57.9282 23.3102 57.0869 19.5725 55.4574H19.4613C23.0824 57.5169 27.1947 58.5547 31.3595 58.4597C37.5896 58.5403 43.6548 56.4574 48.521 52.5662C53.377 48.6622 56.8718 43.3205 58.5042 37.3074L58.5659 37.7893C58.8501 36.3807 59.1219 34.5027 59.4061 32.1305C58.5041 28.9698 57.7822 25.7605 57.2439 22.5181C58.059 24.265 58.6645 26.1022 59.0478 27.9915C59.5572 29.8763 59.8597 31.811 59.9497 33.7614C59.8247 35.9887 59.4093 38.19 58.7142 40.3097C58.2271 42.399 57.3917 44.3913 56.2431 46.2032V46.5615C58.2074 43.3212 59.5913 39.7631 60.3327 36.0471L60.5181 36.9985C60.4408 38.7003 60.0861 40.378 59.4679 41.9653ZM6.59939 46.7469C4.77788 43.1019 3.49996 39.2099 2.8063 35.1946V36.0471C3.00934 37.9833 3.47487 39.8829 4.1901 41.6935C5.11675 44.4117 5.90749 46.1044 6.59939 46.7469ZM5.36386 25.0385C4.81655 27.345 4.49788 29.6998 4.4125 32.0687C4.4125 32.3529 4.4125 32.7977 4.49898 33.3907C4.58547 33.9838 4.58547 34.4533 4.58547 34.7746C4.44462 31.5135 4.67676 28.2469 5.27737 25.0385H5.36386ZM7.5384 45.2395C6.97005 44.004 6.30286 42.1136 5.36386 39.5931V39.9514C5.84989 41.7974 6.56811 43.5743 7.50133 45.2395H7.5384ZM52.0794 32.0687C52.0173 34.2526 51.6599 36.4179 51.0168 38.5059C50.5158 40.5644 49.6541 42.5179 48.4716 44.2758C46.5351 46.8923 43.9562 48.9648 40.9843 50.2929C38.0508 51.7956 34.8153 52.6151 31.5201 52.6898C28.9217 52.759 26.3386 52.2722 23.9436 51.2622C21.5485 50.2522 19.3969 48.7422 17.6327 46.8334C15.8317 44.9592 14.418 42.7483 13.4724 40.3272C12.5268 37.9061 12.068 35.3222 12.1222 32.7236C12.0871 28.8327 13.2662 25.0278 15.4952 21.8385C17.6145 18.5627 20.9395 16.2543 24.7494 15.4137C16.4466 18.9309 12.2993 24.6596 12.3076 32.6C12.2429 35.2119 12.8199 37.7997 13.9879 40.1368V39.902C12.7905 36.7577 12.4376 33.3546 12.9644 30.0314C13.4911 26.7083 14.8791 23.5812 16.9902 20.9613C18.2888 19.2418 19.9694 17.8478 21.8992 16.8893C23.829 15.9308 25.9553 15.4341 28.11 15.4384V15.6114C28.4683 15.6114 28.9255 15.6114 29.4815 15.6732H30.8653C31.1494 15.6732 31.6684 15.0307 32.4344 13.7458L31.4213 15.4261C31.5819 15.4261 31.829 15.4261 32.1749 15.3643C32.5209 15.3025 32.768 15.3643 32.9286 15.3643C35.1649 15.3643 36.4128 15.6485 36.6352 16.2045C34.473 15.8832 33.2251 15.7226 32.9286 15.7226C31.8043 15.7226 31.0753 15.9697 30.7541 16.4516C29.5185 16.5628 28.3571 16.7234 27.1463 16.9334C25.9241 17.148 24.7464 17.5656 23.6621 18.169H23.8104C25.3931 17.3689 27.1396 16.946 28.9131 16.9334L29.1602 17.23C28.8974 17.402 28.6154 17.543 28.3201 17.6501C20.2232 20.1211 16.1748 25.0303 16.1748 32.3776C16.1541 36.3317 17.6741 40.1385 20.4127 42.9908C21.6877 44.4441 23.2624 45.6041 25.0283 46.3911C26.7943 47.1781 28.7096 47.5735 30.6429 47.55C33.2747 47.6369 35.8788 46.9895 38.1635 45.6802C40.4482 44.3709 42.3233 42.4514 43.5789 40.1368C39.7405 44.7824 35.6221 47.1052 31.2236 47.1052C30.3895 47.1355 29.5557 47.0355 28.7525 46.8086H31.0382C32.9034 46.8318 34.7534 46.4709 36.473 45.7481C38.1926 45.0254 39.7451 43.9565 41.0337 42.6078C42.3781 41.2926 43.4398 39.7167 44.1536 37.9767C44.8675 36.2367 45.2185 34.3693 45.1851 32.4888C45.303 29.524 44.4339 26.6039 42.714 24.186C40.7674 21.9563 38.426 20.1049 35.8074 18.725V18.3543L36.351 18.2431C37.7934 18.3779 39.1682 18.9175 40.3171 19.7999C41.5378 20.6065 42.6363 21.5843 43.5789 22.7034V22.5181C42.1992 20.6631 40.3827 19.1777 38.2908 18.1937C36.1723 17.4187 33.9771 16.872 31.7425 16.5628C32.086 16.2638 32.5228 16.0935 32.978 16.0809C35.2273 16.1909 37.451 16.6065 39.5881 17.3165C40.7099 17.663 41.7258 18.2878 42.5411 19.1327C43.3514 19.9205 44.0573 20.8092 44.6415 21.7767C44.7448 21.4822 44.8273 21.1808 44.8886 20.8748C44.8886 20.6277 43.653 19.4539 41.182 17.3288C44.0237 18.2431 46.2971 20.6153 47.9774 24.4208C49.36 27.5849 50.0751 31.0003 50.0778 34.4533C50.0778 37.1838 48.7311 40.1615 46.05 43.4109C43.9594 46.0605 41.3101 48.2163 38.2908 49.7245L38.4144 49.7863C39.3378 49.5207 40.2105 49.1032 40.9966 48.5507C41.8918 48.0183 42.7541 47.4324 43.5789 46.7963C45.7259 45.1804 47.4496 43.0688 48.6029 40.6418C49.7562 38.2147 50.3046 35.5446 50.2014 32.8595C50.1481 31.7428 49.9868 30.6338 49.7195 29.5482C49.467 28.6253 49.326 27.6754 49.2994 26.7189L49.596 26.8424V26.6695C48.9384 24.6299 48.0074 22.6889 46.8284 20.8995V20.5289L47.2484 20.6524C48.8705 22.0188 50.0775 23.8121 50.7326 25.8293C51.5537 27.8095 51.9978 29.9255 52.0423 32.0687H52.0794ZM35.8692 49.7492C34.2161 50.1821 32.5226 50.443 30.8158 50.5276C30.2271 50.5302 29.6408 50.4512 29.0737 50.2929H31.2359C32.7891 50.1958 34.3358 50.0144 35.8692 49.7492ZM41.2808 17.7118C40.6956 17.5752 40.142 17.3277 39.6499 16.9829H40.0206C40.4731 17.1648 40.8974 17.4103 41.2808 17.7118ZM54.7976 18.3049C54.1867 17.7753 53.6244 17.1923 53.1172 16.5628V16.2045C53.7275 16.863 54.2891 17.565 54.7976 18.3049Z" fill="#D7D7D7"/>
</svg>
